<svg width="250" height="250" xmlns="http://www.w3.org/2000/svg">

 <g>
  <title>background</title>
  <rect fill="none" id="canvas_background" height="252" width="252" y="-1" x="-1"/>
 </g>
 <g>
  <title>Layer 1</title>
  <path id="svg_1" fill="#F5F5F5" d="m39.2962,196.664c47.0644,25.252 123.3408,25.257 170.4058,0c47.064,-25.257 47.064,-66.205 0,-91.462c-47.065,-25.257 -123.3414,-25.257 -170.4058,0c-47.0643,25.257 -47.0589,66.194 0,91.462z"/>
  <path id="svg_2" fill="#EBEBEB" d="m64.381,187.498l32.7882,18.642c5.3339,3.03 13.9838,3.03 19.3178,0l80.367,-45.683c5.334,-3.031 5.334,-7.947 0,-10.983l-32.788,-18.6419c-5.34,-3.0307 -13.99,-3.0307 -19.324,0l-80.361,45.6829c-5.3394,3.031 -5.3394,7.947 0,10.983z"/>
  <path id="svg_3" fill="#37474F" d="m192.921,154.96c-0.336,-1.752 -0.941,-4.612 -3.046,-6.876c-2.278,-2.3937 -4.964,-4.3766 -7.936,-5.859c-2.954,-1.4806 -4.566,-5.47 1.028,-5.3262c5.161,0.1491 10.068,5.8589 10.646,10.7164l-0.692,7.3448z"/>
  <path id="svg_4" fill="white" d="m193.381,150.348c-0.07,0 -0.137,-0.025 -0.188,-0.072c-0.051,-0.046 -0.083,-0.11 -0.088,-0.178c-0.622,-7.7818 -9.148,-11.4516 -10.82,-11.6061c-0.04,0.0035 -0.08,-0.0017 -0.118,-0.0154c-0.038,-0.0136 -0.073,-0.0352 -0.101,-0.0633c-0.029,-0.0281 -0.05,-0.0621 -0.064,-0.0994c-0.014,-0.0374 -0.019,-0.0772 -0.016,-0.1168c0.004,-0.0396 0.016,-0.0779 0.037,-0.1122c0.02,-0.0344 0.048,-0.0639 0.081,-0.0866c0.033,-0.0226 0.071,-0.0378 0.111,-0.0446c0.039,-0.0067 0.08,-0.0048 0.119,0.0057c1.85,0.1651 10.69,3.8562 11.36,12.1067c0.003,0.036 -0.001,0.071 -0.012,0.106c-0.011,0.034 -0.029,0.065 -0.053,0.092c-0.023,0.028 -0.052,0.05 -0.085,0.066c-0.032,0.016 -0.068,0.026 -0.104,0.029l-0.059,-0.011z"/>
  <path id="svg_5" fill="#455A64" d="m197.45,154.96c0.319,-1.225 1.59,-3.286 3.245,-3.861c1.656,-0.575 5.275,0.255 6.909,-2.317c1.633,-2.5727 0.183,-6.12 0.454,-7.5741c0.27,-1.454 1.309,-2.6631 3.37,-4.0585c2.061,-1.3955 3.051,-4.0853 1.883,-5.3689c-1.169,-1.2836 -3.273,-1.4434 -6.037,0.4314c-2.765,1.8748 -2.857,1.3902 -5.291,1.1718c-2.435,-0.2184 -4.604,2.2849 -4.988,5.7683l0.455,15.808z"/>
  <path id="svg_6" fill="white" d="m197.265,148.797l-0.065,0c-0.035,-0.007 -0.069,-0.022 -0.099,-0.042c-0.029,-0.021 -0.055,-0.047 -0.074,-0.077c-0.019,-0.03 -0.032,-0.064 -0.037,-0.1c-0.006,-0.035 -0.004,-0.071 0.004,-0.105c1.769,-7.7076 10.695,-14.8341 13.952,-16.0432c0.072,-0.0254 0.151,-0.0217 0.22,0.0102c0.069,0.032 0.122,0.0896 0.148,0.1603c0.026,0.0706 0.022,0.1484 -0.011,0.2164c-0.032,0.0679 -0.091,0.1203 -0.162,0.1457c-3.176,1.1825 -11.902,8.1279 -13.606,15.6536c-0.019,0.055 -0.056,0.102 -0.105,0.135c-0.048,0.032 -0.106,0.049 -0.165,0.046z"/>
  <path id="svg_7" fill="white" d="m201.436,140.8718c-0.056,0 -0.11,-0.0162 -0.156,-0.0465c-0.047,-0.0303 -0.083,-0.0734 -0.104,-0.1239c-0.876,-2.1304 -0.709,-4.9532 -0.703,-5.0757c0.02,-0.0572 0.059,-0.1061 0.111,-0.1394c0.051,-0.0332 0.112,-0.0489 0.174,-0.0447c0.061,0.0042 0.119,0.0282 0.166,0.0681c0.046,0.04 0.078,0.0938 0.09,0.1532c0,0 -0.168,2.8282 0.665,4.8308c0.014,0.0335 0.021,0.0694 0.021,0.1057c-0.001,0.0362 -0.008,0.072 -0.023,0.1052c-0.015,0.0333 -0.036,0.0633 -0.062,0.0884c-0.027,0.025 -0.058,0.0446 -0.093,0.0575c-0.027,0.0126 -0.056,0.0198 -0.086,0.0213z"/>
  <path id="svg_8" fill="white" d="m205.645,146.2302c-1.223,0 -4.36,-0.1651 -6.816,-1.7523c-0.062,-0.0395 -0.105,-0.1016 -0.12,-0.1725c-0.016,-0.0709 -0.002,-0.1449 0.039,-0.2056c0.04,-0.0608 0.103,-0.1033 0.175,-0.1183c0.072,-0.015 0.147,-0.0012 0.209,0.0384c2.894,1.8695 6.951,1.6564 6.994,1.6511c0.037,-0.0022 0.074,0.0029 0.109,0.0149c0.034,0.012 0.066,0.0308 0.093,0.0551c0.027,0.0243 0.049,0.0537 0.065,0.0865c0.015,0.0328 0.024,0.0683 0.026,0.1045c0.002,0.0356 -0.003,0.0714 -0.015,0.1052c-0.012,0.0338 -0.03,0.0649 -0.055,0.0916c-0.024,0.0268 -0.053,0.0485 -0.086,0.0641c-0.032,0.0156 -0.068,0.0246 -0.104,0.0267c-0.065,0.0053 -0.249,0.0106 -0.514,0.0106z"/>
  <path id="svg_9" fill="#37474F" d="m104.564,205.186c-0.6271,-2.221 -2.7477,-4.138 -6.2586,-6.13c-3.5109,-1.992 -9.521,-4.56 -8.1145,-8.038c1.4065,-3.478 7.5249,-0.676 9.8132,1.289c2.9969,2.578 5.3179,6.392 5.3829,9.018l-0.823,3.861z"/>
  <path id="svg_10" fill="white" d="m105.133,202.886c-0.064,0 -0.127,-0.022 -0.177,-0.061c-0.05,-0.04 -0.085,-0.096 -0.099,-0.158c-1.298,-6.077 -8.6119,-10.775 -12.1661,-11.59c-0.0723,-0.016 -0.135,-0.06 -0.1746,-0.122c-0.0395,-0.062 -0.0526,-0.137 -0.0364,-0.208c0.018,-0.07 0.0629,-0.131 0.1254,-0.17c0.0625,-0.039 0.1377,-0.052 0.21,-0.038c3.6786,0.847 11.2417,5.716 12.5887,12.017c0.008,0.035 0.008,0.071 0.002,0.107c-0.007,0.036 -0.021,0.07 -0.041,0.1c-0.02,0.03 -0.046,0.056 -0.077,0.076c-0.03,0.02 -0.065,0.034 -0.101,0.041l-0.054,0.006z"/>
  <path id="svg_11" fill="#455A64" d="m109.093,205.187c0.281,-2.418 2.32,-3.857 4.803,-4.432c2.484,-0.575 4.691,-0.964 4.869,-3.648c0.179,-2.685 -2.315,-4.895 -0.314,-7.201c2.002,-2.307 5.053,-4.719 4.842,-8.767c-0.211,-4.048 -4.03,-4.469 -5.518,-1.918c-1.487,2.551 -1.796,4.32 -3.889,4.075c-2.094,-0.245 -5.448,1.102 -5.87,7.265l1.077,14.626z"/>
  <path id="svg_12" fill="white" d="m108.719,200.308l-0.038,0c-0.073,-0.011 -0.138,-0.049 -0.183,-0.107c-0.044,-0.057 -0.064,-0.13 -0.055,-0.202c0.828,-6.035 5.123,-11.185 8.261,-14.945c1.347,-1.598 2.51,-3.01 3.013,-4.032c0.015,-0.033 0.037,-0.062 0.063,-0.087c0.027,-0.024 0.059,-0.043 0.093,-0.056c0.034,-0.012 0.07,-0.017 0.107,-0.016c0.036,0.002 0.072,0.01 0.105,0.025c0.066,0.033 0.117,0.089 0.143,0.157c0.025,0.069 0.022,0.144 -0.008,0.211c-0.541,1.065 -1.715,2.503 -3.089,4.149c-3.094,3.728 -7.33,8.783 -8.114,14.669c-0.01,0.069 -0.046,0.132 -0.101,0.175c-0.056,0.044 -0.126,0.065 -0.197,0.059z"/>
  <path id="svg_13" fill="white" d="m112.057,191.679c-0.057,0.001 -0.113,-0.016 -0.16,-0.049c-0.046,-0.032 -0.081,-0.078 -0.1,-0.132c-0.494,-1.694 -0.729,-3.452 -0.698,-5.214c0.003,-0.073 0.035,-0.142 0.088,-0.193c0.054,-0.051 0.125,-0.079 0.199,-0.079c0.037,0.001 0.073,0.009 0.107,0.023c0.033,0.015 0.063,0.036 0.089,0.062c0.025,0.027 0.044,0.058 0.057,0.092c0.013,0.033 0.019,0.069 0.018,0.105c-0.029,1.698 0.195,3.39 0.665,5.023c0.013,0.034 0.018,0.07 0.016,0.106c-0.002,0.036 -0.011,0.071 -0.027,0.104c-0.016,0.032 -0.039,0.061 -0.067,0.084c-0.028,0.024 -0.06,0.042 -0.095,0.052c-0.029,0.011 -0.061,0.017 -0.092,0.016z"/>
  <path id="svg_14" fill="white" d="m115.892,196.962c-2.043,-0.113 -4.053,-0.556 -5.951,-1.31c-0.034,-0.012 -0.065,-0.031 -0.092,-0.056c-0.026,-0.024 -0.047,-0.054 -0.062,-0.087c-0.015,-0.033 -0.022,-0.068 -0.023,-0.104c0,-0.036 0.007,-0.071 0.021,-0.104c0.012,-0.034 0.031,-0.065 0.056,-0.091c0.025,-0.027 0.055,-0.048 0.088,-0.063c0.033,-0.014 0.069,-0.023 0.106,-0.024c0.036,-0.001 0.073,0.005 0.107,0.018c1.836,0.729 3.779,1.164 5.756,1.289c0.036,0 0.072,0.008 0.106,0.023c0.034,0.014 0.064,0.036 0.089,0.062c0.025,0.026 0.045,0.057 0.058,0.091c0.013,0.034 0.018,0.07 0.017,0.106c-0.004,0.069 -0.035,0.133 -0.087,0.18c-0.051,0.046 -0.119,0.072 -0.189,0.07z"/>
  <path id="svg_15" fill="#37474F" d="m65.0629,165.266c0.1298,-0.053 0.5409,-8.602 -3.2026,-13.64c-3.7435,-5.0388 -8.2606,-5.6193 -11.2359,-4.3943c-2.9754,1.2253 -2.3695,4.2343 1.2929,6.0403c3.6624,1.805 8.2227,4.953 9.3101,10.705l3.8355,1.289z"/>
  <path id="svg_16" fill="white" d="m63.6889,162.757c-0.066,0 -0.1297,-0.023 -0.1802,-0.065c-0.0504,-0.042 -0.0843,-0.1 -0.0957,-0.164c-1.4011,-8.681 -6.6161,-12.937 -11.025,-14.024c-0.0356,-0.008 -0.0693,-0.023 -0.099,-0.044c-0.0297,-0.021 -0.0549,-0.048 -0.074,-0.078c-0.0192,-0.031 -0.0319,-0.065 -0.0375,-0.101c-0.0055,-0.035 -0.0039,-0.072 0.005,-0.107c0.0072,-0.039 0.0229,-0.076 0.046,-0.109c0.0232,-0.033 0.0533,-0.06 0.0882,-0.0805c0.0349,-0.0202 0.0739,-0.0328 0.1142,-0.0368c0.0404,-0.004 0.0811,0.0006 0.1194,0.0135c4.5821,1.1288 9.9972,5.5228 11.4415,14.4658c0.0062,0.036 0.005,0.073 -0.0034,0.108c-0.0084,0.035 -0.0239,0.068 -0.0456,0.098c-0.0217,0.029 -0.0491,0.054 -0.0806,0.072c-0.0315,0.019 -0.0665,0.031 -0.103,0.036l-0.0703,0.016z"/>
  <path id="svg_17" fill="#455A64" d="m64.3923,181.138c-0.541,-2.253 -2.8726,-3.728 -5.5937,-3.984c-2.8292,-0.25 -6.1183,-0.532 -6.9947,-2.876c-0.8764,-2.343 0,-5.534 -0.3949,-7.094c-0.4815,-1.891 -1.2172,-3.015 -4.9337,-4.165c-3.3269,-1.028 -5.1662,-4.16 -1.8122,-5.481c3.354,-1.321 6.7134,-0.485 8.9963,0.532c2.2829,1.018 2.3803,2.067 5.5936,1.795c3.2134,-0.271 5.6099,1.715 5.8101,3.633l-0.6708,17.64z"/>
  <path id="svg_18" fill="white" d="m64.3918,173.496c-0.0575,-0.001 -0.1136,-0.018 -0.1608,-0.051c-0.0473,-0.032 -0.0836,-0.077 -0.1042,-0.13c-2.64,-7.244 -13.4377,-13.801 -17.0298,-14.216c-0.0728,-0.009 -0.139,-0.046 -0.1844,-0.103c-0.0455,-0.057 -0.0667,-0.129 -0.059,-0.201c0.0082,-0.072 0.0452,-0.139 0.1029,-0.185c0.0578,-0.046 0.1316,-0.067 0.2054,-0.06c3.6895,0.432 14.7847,7.153 17.4896,14.578c0.0129,0.034 0.0187,0.07 0.0172,0.106c-0.0015,0.036 -0.0103,0.072 -0.0259,0.105c-0.0157,0.032 -0.0378,0.062 -0.0651,0.086c-0.0273,0.024 -0.0592,0.043 -0.0939,0.055l-0.092,0.016z"/>
  <path id="svg_19" fill="white" d="m61.8603,169.144l-0.0595,0c-0.0723,-0.017 -0.135,-0.061 -0.1746,-0.123c-0.0395,-0.061 -0.0526,-0.136 -0.0364,-0.207c0.8872,-3.777 0,-6.205 0,-6.232c-0.0251,-0.071 -0.0207,-0.148 0.0123,-0.216c0.033,-0.067 0.0918,-0.119 0.1635,-0.144c0.0718,-0.024 0.1505,-0.02 0.219,0.012c0.0685,0.033 0.1211,0.091 0.1462,0.161c0.0379,0.102 0.9359,2.6 0,6.541c-0.0155,0.059 -0.0505,0.112 -0.0994,0.149c-0.0489,0.038 -0.1091,0.058 -0.1711,0.059z"/>
  <path id="svg_20" fill="white" d="m63.6885,171.929c-0.0453,0 -0.09,-0.011 -0.1299,-0.032c-2.1638,-1.156 -6.8703,-0.33 -6.919,-0.325c-0.0365,0.009 -0.0746,0.011 -0.1118,0.005c-0.0373,-0.005 -0.073,-0.019 -0.1048,-0.039c-0.0319,-0.019 -0.0592,-0.046 -0.0804,-0.076c-0.0212,-0.031 -0.0358,-0.066 -0.0428,-0.102c-0.0071,-0.037 -0.0064,-0.074 0.0018,-0.11c0.0083,-0.037 0.024,-0.071 0.0463,-0.101c0.0222,-0.03 0.0504,-0.055 0.0829,-0.074c0.0325,-0.019 0.0686,-0.031 0.1061,-0.035c0.2001,-0.038 4.9444,-0.869 7.2868,0.378c0.0633,0.024 0.1154,0.071 0.1464,0.131c0.0311,0.059 0.0392,0.128 0.0226,0.193c-0.0165,0.065 -0.0564,0.122 -0.1124,0.161c-0.056,0.038 -0.1241,0.055 -0.1918,0.047l0,-0.021z"/>
  <path id="svg_21" fill="#E62C38" d="m112.387,74.3212c-2.072,-1.9174 -5.821,-2.6631 -10.5275,0.1758c-4.7064,2.8389 -8.4283,11.9201 -9.5968,18.3435c-1.1685,6.4234 -1.9042,14.8122 0.4328,18.3702c2.337,3.5579 10.8194,7.3289 10.8194,7.3289l1.0281,-3.4994l7.844,-40.719z"/>
  <path id="svg_22" fill="white" d="m112.387,74.3212c-2.072,-1.9174 -5.821,-2.6631 -10.5275,0.1758c-4.7064,2.8389 -8.4283,11.9201 -9.5968,18.3435c-1.1685,6.4234 -1.9042,14.8122 0.4328,18.3702c2.337,3.5579 10.8194,7.3289 10.8194,7.3289l1.0281,-3.4994l7.844,-40.719z" opacity="0.4"/>
  <path id="svg_23" fill="#E62C38" d="m95.022,110.1452c3.6732,4.3302 9.543,4.9161 9.543,4.9161l22.639,-12.9055l-9.066,-5.1504l-23.116,13.1398z"/>
  <path id="svg_24" fill="black" d="m95.022,110.1452c3.6732,4.3302 9.543,4.9161 9.543,4.9161l22.639,-12.9055l-9.066,-5.1504l-23.116,13.1398z" opacity="0.2"/>
  <path id="svg_25" fill="#E62C38" d="m95.0219,110.1453c-1.4876,-1.7364 -1.7906,-6.2051 -0.9845,-13.1132c0.8764,-7.5846 3.7273,-19.3183 10.5216,-23.1851c7.969,-4.5273 16.062,6.7217 13.595,23.1851l-23.1321,13.1132z"/>
  <path id="svg_26" fill="#263238" d="m148.059,146.8539c4.181,4.6661 7.243,5.5931 8.363,6.5891c1.12,0.996 0.676,3.147 -1.823,3.834c-2.499,0.688 -5.307,0.283 -7.065,-1.203c-1.758,-1.486 -3.062,-3.516 -4.826,-4.57c-1.763,-1.055 -2.64,-1.305 -2.997,-2.663c-0.357,-1.3586 0.596,-5.593 0.596,-5.593l7.752,3.6059z"/>
  <path id="svg_27" fill="#FFA8A7" d="m145.663,139.4395c-0.222,1.8215 -0.493,3.4247 0.914,5.4966c0.454,0.6663 0.949,1.3048 1.482,1.9121c2.445,2.7748 4.431,4.9378 4.782,5.3258c0.352,0.389 -1.439,1.801 -3.657,1.066c-2.218,-0.735 -4.3,-3.729 -5.848,-5.5023c-0.687,-0.7936 -1.357,-1.5126 -1.888,-2.0666c-0.713,-0.7385 -1.126,-1.7086 -1.163,-2.727l-0.102,-2.8762l5.48,-0.6284z"/>
  <path id="svg_28" fill="#263238" d="m135.362,154.486c4.182,4.671 7.238,5.593 8.363,6.589c1.126,0.996 0.677,3.153 -1.823,3.84c-2.499,0.687 -5.307,0.282 -7.07,-1.209c-1.764,-1.491 -3.057,-3.51 -4.82,-4.565c-1.764,-1.054 -2.646,-1.305 -2.997,-2.663c-0.352,-1.358 0.595,-5.592 0.595,-5.592l7.752,3.6z"/>
  <path id="svg_29" fill="#FFA8A7" d="m132.961,147.0771c-0.217,1.8269 -0.493,3.4249 0.919,5.4969c0.453,0.667 0.948,1.306 1.482,1.912c2.446,2.78 4.426,4.943 4.777,5.326c0.352,0.384 -1.433,1.8 -3.657,1.065c-2.223,-0.735 -4.3,-3.728 -5.842,-5.496c-0.687,-0.799 -1.358,-1.513 -1.888,-2.067c-0.712,-0.739 -1.126,-1.709 -1.163,-2.727l-0.109,-2.8814l5.481,-0.6285z"/>
  <path id="svg_30" fill="#263238" d="m116.05,48.07325l3.213,0c1.255,-0.0014 2.498,0.24068 3.658,0.71243c1.16,0.47174 2.214,1.16389 3.102,2.03691c0.889,0.87301 1.593,1.90978 2.075,3.05106c0.481,1.14128 0.729,2.36472 0.729,3.60039l0,23.62716l-22.331,0l0,-23.62716c0.002,-2.49373 1.009,-4.88485 2.8,-6.64768c1.792,-1.76284 4.221,-2.75311 6.754,-2.75311z"/>
  <path id="svg_31" fill="#FFA8A7" d="m130.169,75.5242c-3.738,-3.8669 -5.648,-4.261 -7.92,-4.261l4.328,12.5167c0,0 7.119,4.6338 11.284,7.1904l2.646,-5.7417c0,0 -6.6,-5.8535 -10.338,-9.7044z"/>
  <path id="svg_32" fill="#263238" d="m104.905,103.7539c-1.3902,2.9508 -3.1809,6.088 -1.3686,9.1239c1.8126,3.036 16.5316,0 16.5316,0l0,-9.1239l-15.163,0z"/>
  <path id="svg_33" fill="#E62C38" d="m120.832,71.2633c1.623,-0.1331 3.462,-0.0852 5.41,3.1425c1.947,3.2277 3.04,5.0386 2.423,9.7364c-0.617,4.6977 -2.921,8.3196 -3.089,10.0772c-0.167,1.7577 0.26,10.2051 0.26,10.2051c0,0 -2.846,4 -9.921,4.1864c-2.087,0.045 -4.157,-0.3675 -6.061,-1.2077c-1.904,-0.8401 -3.594,-2.0869 -4.948,-3.6498l5.409,-9.5553l-1.384,-19.4195l5.285,-3.1158l6.616,-0.3995z"/>
  <path id="svg_34" fill="#E0E0E0" d="m120.832,71.2633c1.623,-0.1331 3.462,-0.0852 5.41,3.1425c1.947,3.2277 3.04,5.0386 2.423,9.7364c-0.617,4.6977 -2.921,8.3196 -3.089,10.0772c-0.167,1.7577 0.26,10.2051 0.26,10.2051c0,0 -2.846,4 -9.921,4.1864c-2.087,0.045 -4.157,-0.3675 -6.061,-1.2077c-1.904,-0.8401 -3.594,-2.0869 -4.948,-3.6498l5.409,-9.5553l-1.384,-19.4195l5.285,-3.1158l6.616,-0.3995z"/>
  <path id="svg_35" fill="#263238" d="m114.221,78.1342c-0.513,0 -1.021,-0.0995 -1.494,-0.2929c-0.474,-0.1933 -0.904,-0.4766 -1.266,-0.8338c-0.362,-0.3572 -0.65,-0.7811 -0.845,-1.2477c-0.196,-0.4665 -0.296,-0.9664 -0.296,-1.4712l0,-11.1851l3.901,0l0,15.0307z"/>
  <path id="svg_36" fill="#FFA8A7" d="m125.148,52.51514c1.174,0.68708 2.635,3.60584 2.489,9.72036c-0.119,5.1877 -1.829,6.466 -2.705,6.8388c-0.876,0.3729 -2.51,0.1438 -4.122,-0.1225l0,3.1159c0,0 2.223,2.5406 2.083,3.9627c-0.141,1.4221 -3.208,1.7683 -5.286,0.3728c-1.347,-0.9555 -2.504,-2.1471 -3.413,-3.5153l0,-7.5259c0,0 -1.082,1.4274 -2.857,0.2663c-1.774,-1.1611 -1.844,-4.032 -0.811,-5.0599c1.033,-1.028 3.246,-0.7084 3.668,0.719c0,0 2.564,0.0906 5.95,-1.7523c1.337,-0.6993 2.487,-1.69964 3.357,-2.91956c0.869,-1.21993 1.434,-2.6249 1.647,-4.1004z"/>
  <path id="svg_37" fill="#263238" d="m121.757,60.9366c0.008,0.1723 -0.054,0.3407 -0.173,0.468c-0.118,0.1274 -0.283,0.2033 -0.458,0.2111c-0.175,0.0077 -0.346,-0.0533 -0.475,-0.1696c-0.129,-0.1164 -0.206,-0.2786 -0.214,-0.4509c-0.004,-0.0854 0.009,-0.1706 0.039,-0.2509c0.029,-0.0803 0.074,-0.1541 0.133,-0.2172c0.058,-0.063 0.129,-0.1141 0.208,-0.1503c0.078,-0.0362 0.163,-0.0569 0.25,-0.0607c0.087,-0.0039 0.173,0.0091 0.255,0.0382c0.081,0.0291 0.156,0.0738 0.22,0.1314c0.064,0.0576 0.116,0.1271 0.153,0.2045c0.037,0.0773 0.058,0.1611 0.062,0.2464z"/>
  <path id="svg_38" fill="#263238" d="m120.561,58.9383l-1.374,0.8361c-0.112,-0.1853 -0.146,-0.406 -0.095,-0.6157c0.05,-0.2096 0.181,-0.3918 0.366,-0.508c0.091,-0.054 0.192,-0.0895 0.298,-0.1043c0.105,-0.0148 0.212,-0.0086 0.315,0.0182c0.103,0.0269 0.2,0.0738 0.284,0.1379c0.084,0.0642 0.154,0.1444 0.206,0.2358z"/>
  <path id="svg_39" fill="#F28F8F" d="m121.935,65.3301l1.536,0.4847c-0.029,0.1003 -0.078,0.1939 -0.144,0.2753c-0.067,0.0813 -0.149,0.1488 -0.242,0.1984c-0.093,0.0496 -0.196,0.0804 -0.301,0.0905c-0.106,0.0101 -0.212,-0.0006 -0.313,-0.0316c-0.204,-0.0706 -0.373,-0.2151 -0.473,-0.4042c-0.099,-0.189 -0.122,-0.4083 -0.063,-0.6131z"/>
  <path id="svg_40" fill="#263238" d="m127.204,58.9337l-1.342,-0.9161c0.056,-0.08946 0.13,-0.16664 0.217,-0.2268c0.088,-0.06016 0.187,-0.10202 0.291,-0.12299c0.105,-0.02097 0.212,-0.02061 0.317,0.00107c0.104,0.02168 0.203,0.06421 0.29,0.12497c0.178,0.12568 0.301,0.31365 0.343,0.52555c0.042,0.2119 0.001,0.4316 -0.116,0.6143z"/>
  <path id="svg_41" fill="#263238" d="m126.88,60.4622c0.002,0.1286 -0.035,0.255 -0.105,0.3633c-0.071,0.1083 -0.172,0.1938 -0.292,0.2458c-0.119,0.052 -0.252,0.0682 -0.38,0.0466c-0.129,-0.0216 -0.249,-0.08 -0.344,-0.168c-0.095,-0.088 -0.162,-0.2017 -0.192,-0.3268c-0.03,-0.1252 -0.022,-0.2563 0.023,-0.377c0.045,-0.1208 0.125,-0.2258 0.23,-0.3019c0.105,-0.0762 0.231,-0.1202 0.362,-0.1265c0.089,-0.0028 0.177,0.0116 0.26,0.0425c0.083,0.0308 0.159,0.0775 0.224,0.1374c0.065,0.0598 0.117,0.1317 0.154,0.2114c0.036,0.0797 0.057,0.1658 0.06,0.2532z"/>
  <path id="svg_42" fill="#F28F8F" d="m123.753,60.0889l0.108,3.9254l2.099,-0.6392l-2.207,-3.2862z"/>
  <path id="svg_43" fill="#F28F8F" d="m120.831,68.9523c-1.336,-0.1491 -4.019,-0.948 -4.614,-1.8376c0.115,0.5682 0.436,1.0758 0.903,1.4275c0.877,0.8256 3.711,1.4222 3.711,1.4222l0,-1.0121z"/>
  <path id="svg_44" fill="#E62C38" d="m106.826,157.538l-43.0452,-24.4689l90.6232,-51.5154l43.045,24.4687l-90.623,51.5156z"/>
  <path id="svg_45" fill="white" d="m106.826,157.538l-43.0452,-24.4689l90.6232,-51.5154l43.045,24.4687l-90.623,51.5156z" opacity="0.4"/>
  <path id="svg_46" fill="#E62C38" d="m63.7808,133.0693l0,48.9377l2.2666,1.289l0,-33.486l38.5166,21.891l0,33.486l2.262,1.288l0,-48.937l-43.0452,-24.4687z"/>
  <path id="svg_47" fill="black" d="m63.7808,133.0693l0,48.9377l2.2666,1.289l0,-33.486l38.5166,21.891l0,33.486l2.262,1.288l0,-48.937l-43.0452,-24.4687z" opacity="0.3"/>
  <path id="svg_48" fill="#E62C38" d="m66.0479,183.296l2.2666,-1.289l0,-30.908l-2.2666,-1.289l0,33.486z"/>
  <path id="svg_49" fill="black" d="m66.0479,183.296l2.2666,-1.289l0,-30.908l-2.2666,-1.289l0,33.486z" opacity="0.5"/>
  <path id="svg_50" fill="#E62C38" d="m106.826,206.475l2.266,-1.289l0,-33.486l86.09,-48.9372l0,33.4862l2.267,-1.289l0,-48.9375l-90.623,51.5155l0,48.937z"/>
  <path id="svg_51" fill="black" d="m106.826,206.475l2.266,-1.289l0,-33.486l86.09,-48.9372l0,33.4862l2.267,-1.289l0,-48.9375l-90.623,51.5155l0,48.937z" opacity="0.1"/>
  <path id="svg_52" fill="#E62C38" d="m109.092,169.128l0,-10.301l27.189,-15.4569l0,10.3009l-27.189,15.457z"/>
  <path id="svg_53" fill="black" d="m109.092,169.128l0,-10.301l27.189,-15.4569l0,10.3009l-27.189,15.457z" opacity="0.3"/>
  <path id="svg_54" fill="#E62C38" d="m138.543,152.388l0,-10.3067l27.189,-15.4514l0,10.3009l-27.189,15.4572z"/>
  <path id="svg_55" fill="black" d="m138.543,152.388l0,-10.3067l27.189,-15.4514l0,10.3009l-27.189,15.4572z" opacity="0.3"/>
  <path id="svg_56" fill="#E62C38" d="m167.999,135.6416l0,-10.301l27.184,-15.4568l0,10.3063l-27.184,15.4515z"/>
  <path id="svg_57" fill="black" d="m167.999,135.6416l0,-10.301l27.184,-15.4568l0,10.3063l-27.184,15.4515z" opacity="0.3"/>
  <path id="svg_58" fill="#263238" d="m127.204,148.521l0,0.825c0,0.453 -1.082,1.438 -2.418,2.194l-4.23,2.408c-1.336,0.756 -2.418,1.006 -2.418,0.532l0,-0.82l9.066,-5.139z"/>
  <path id="svg_59" fill="#263238" d="m156.671,131.7803l0,0.8255c0,0.4528 -1.082,1.4381 -2.418,2.1944l-4.23,2.4075c-1.331,0.7563 -2.413,1.0013 -2.413,0.5326l0,-0.8255l9.061,-5.1345z"/>
  <path id="svg_60" fill="#263238" d="m186.121,115.04l0,0.8203c0,0.4581 -1.082,1.4381 -2.412,2.1998l-4.236,2.4021c-1.331,0.7617 -2.413,1.0067 -2.413,0.5327l0,-0.8256l9.061,-5.1293z"/>
  <path id="svg_61" fill="#E62C38" d="m195.183,156.249l-2.262,-1.289l0,-30.9084l2.262,-1.2889l0,33.4863z"/>
  <path id="svg_62" fill="black" d="m195.183,156.249l-2.262,-1.289l0,-30.9084l2.262,-1.2889l0,33.4863z" opacity="0.3"/>
  <path id="svg_63" fill="#E62C38" d="m131.749,109.3359l0,-0.1864c0.009,-0.1649 0.058,-0.3254 0.141,-0.4687c0.084,-0.1433 0.2,-0.2654 0.34,-0.3569l28.515,-16.1918c0.15,-0.074 0.316,-0.1126 0.484,-0.1126c0.168,0 0.334,0.0386 0.484,0.1126l5.832,3.313c0.139,0.0914 0.256,0.2136 0.339,0.3569c0.084,0.1432 0.132,0.3037 0.142,0.4686l0,0.1918c-0.011,0.1645 -0.061,0.3242 -0.145,0.4665c-0.085,0.1423 -0.202,0.2634 -0.342,0.3537l-28.482,16.1918c-0.15,0.0741 -0.316,0.1126 -0.484,0.1126c-0.168,0 -0.334,-0.0385 -0.484,-0.1126l-5.859,-3.3289c-0.138,-0.0898 -0.253,-0.2095 -0.336,-0.3498c-0.084,-0.1403 -0.133,-0.2976 -0.145,-0.4598z"/>
  <path id="svg_64" fill="white" d="m131.749,109.3359l0,-0.1864c0.009,-0.1649 0.058,-0.3254 0.141,-0.4687c0.084,-0.1433 0.2,-0.2654 0.34,-0.3569l28.515,-16.1918c0.15,-0.074 0.316,-0.1126 0.484,-0.1126c0.168,0 0.334,0.0386 0.484,0.1126l5.832,3.313c0.139,0.0914 0.256,0.2136 0.339,0.3569c0.084,0.1432 0.132,0.3037 0.142,0.4686l0,0.1918c-0.011,0.1645 -0.061,0.3242 -0.145,0.4665c-0.085,0.1423 -0.202,0.2634 -0.342,0.3537l-28.482,16.1918c-0.15,0.0741 -0.316,0.1126 -0.484,0.1126c-0.168,0 -0.334,-0.0385 -0.484,-0.1126l-5.859,-3.3289c-0.138,-0.0898 -0.253,-0.2095 -0.336,-0.3498c-0.084,-0.1403 -0.133,-0.2976 -0.145,-0.4598z" opacity="0.7"/>
  <path id="svg_65" fill="#E62C38" d="m132.23,108.8721l5.831,3.3183c0.151,0.074 0.316,0.1126 0.485,0.1126c0.168,0 0.333,-0.0386 0.484,-0.1126l28.482,-16.1917c0.052,-0.0234 0.095,-0.0609 0.126,-0.1081c0.031,-0.0472 0.047,-0.1022 0.047,-0.1582c0,-0.0561 -0.016,-0.1111 -0.047,-0.1583c-0.031,-0.0472 -0.074,-0.0847 -0.126,-0.1081l-5.832,-3.3129c-0.15,-0.074 -0.316,-0.1126 -0.484,-0.1126c-0.168,0 -0.334,0.0386 -0.484,0.1126l-28.488,16.1917c-0.259,0.1332 -0.259,0.3782 0.006,0.5273z"/>
  <path id="svg_66" fill="white" d="m132.23,108.8721l5.831,3.3183c0.151,0.074 0.316,0.1126 0.485,0.1126c0.168,0 0.333,-0.0386 0.484,-0.1126l28.482,-16.1917c0.052,-0.0234 0.095,-0.0609 0.126,-0.1081c0.031,-0.0472 0.047,-0.1022 0.047,-0.1582c0,-0.0561 -0.016,-0.1111 -0.047,-0.1583c-0.031,-0.0472 -0.074,-0.0847 -0.126,-0.1081l-5.832,-3.3129c-0.15,-0.074 -0.316,-0.1126 -0.484,-0.1126c-0.168,0 -0.334,0.0386 -0.484,0.1126l-28.488,16.1917c-0.259,0.1332 -0.259,0.3782 0.006,0.5273z" opacity="0.9"/>
  <path id="svg_67" fill="#E62C38" d="m95.9846,124.755l17.1544,9.7576c0.15,0.0741 0.316,0.1126 0.484,0.1126c0.168,0 0.334,-0.0385 0.484,-0.1126l12.626,-7.1797c0.054,-0.0216 0.1,-0.0585 0.132,-0.1059c0.033,-0.0474 0.05,-0.1033 0.05,-0.1604c0,-0.0572 -0.017,-0.113 -0.05,-0.1605c-0.032,-0.0474 -0.078,-0.0842 -0.132,-0.1058l-17.159,-9.7523c-0.149,-0.0761 -0.314,-0.1159 -0.482,-0.1159c-0.167,0 -0.332,0.0398 -0.481,0.1159l-12.6264,7.1584c-0.2705,0.1545 -0.2705,0.3995 0,0.5486z"/>
  <path id="svg_68" fill="white" d="m95.9846,124.755l17.1544,9.7576c0.15,0.0741 0.316,0.1126 0.484,0.1126c0.168,0 0.334,-0.0385 0.484,-0.1126l12.626,-7.1797c0.054,-0.0216 0.1,-0.0585 0.132,-0.1059c0.033,-0.0474 0.05,-0.1033 0.05,-0.1604c0,-0.0572 -0.017,-0.113 -0.05,-0.1605c-0.032,-0.0474 -0.078,-0.0842 -0.132,-0.1058l-17.159,-9.7523c-0.149,-0.0761 -0.314,-0.1159 -0.482,-0.1159c-0.167,0 -0.332,0.0398 -0.481,0.1159l-12.6264,7.1584c-0.2705,0.1545 -0.2705,0.3995 0,0.5486z" opacity="0.8"/>
  <path id="svg_69" fill="#E62C38" d="m108.611,117.0321l-11.9933,6.8122l16.5213,9.3955c0.15,0.074 0.316,0.1126 0.484,0.1126c0.168,0 0.334,-0.0386 0.484,-0.1126l12.015,-6.8176l-16.526,-9.3901c-0.152,-0.0797 -0.321,-0.1215 -0.493,-0.1215c-0.171,0 -0.341,0.0418 -0.492,0.1215z"/>
  <path id="svg_70" fill="white" d="m108.611,117.0321l-11.9933,6.8122l16.5213,9.3955c0.15,0.074 0.316,0.1126 0.484,0.1126c0.168,0 0.334,-0.0386 0.484,-0.1126l12.015,-6.8176l-16.526,-9.3901c-0.152,-0.0797 -0.321,-0.1215 -0.493,-0.1215c-0.171,0 -0.341,0.0418 -0.492,0.1215z" opacity="0.7"/>
  <path id="svg_71" fill="#E62C38" d="m95.9845,123.0403l17.1545,9.7522c0.15,0.0741 0.316,0.1127 0.484,0.1127c0.168,0 0.334,-0.0386 0.484,-0.1127l12.626,-7.1743c0.052,-0.0234 0.096,-0.0609 0.127,-0.1081c0.031,-0.0473 0.047,-0.1022 0.047,-0.1583c0,-0.0561 -0.016,-0.111 -0.047,-0.1582c-0.031,-0.0472 -0.075,-0.0847 -0.127,-0.1081l-17.159,-9.7735c-0.15,-0.0732 -0.315,-0.1113 -0.482,-0.1113c-0.167,0 -0.332,0.0381 -0.481,0.1113l-12.6265,7.1797c-0.0592,0.0184 -0.1109,0.0549 -0.1477,0.1042c-0.0367,0.0493 -0.0565,0.1089 -0.0565,0.1701c0,0.0611 0.0198,0.1207 0.0565,0.17c0.0368,0.0494 0.0885,0.0859 0.1477,0.1043z"/>
  <path id="svg_72" fill="white" d="m95.9845,123.0403l17.1545,9.7522c0.15,0.0741 0.316,0.1127 0.484,0.1127c0.168,0 0.334,-0.0386 0.484,-0.1127l12.626,-7.1743c0.052,-0.0234 0.096,-0.0609 0.127,-0.1081c0.031,-0.0473 0.047,-0.1022 0.047,-0.1583c0,-0.0561 -0.016,-0.111 -0.047,-0.1582c-0.031,-0.0472 -0.075,-0.0847 -0.127,-0.1081l-17.159,-9.7735c-0.15,-0.0732 -0.315,-0.1113 -0.482,-0.1113c-0.167,0 -0.332,0.0381 -0.481,0.1113l-12.6265,7.1797c-0.0592,0.0184 -0.1109,0.0549 -0.1477,0.1042c-0.0367,0.0493 -0.0565,0.1089 -0.0565,0.1701c0,0.0611 0.0198,0.1207 0.0565,0.17c0.0368,0.0494 0.0885,0.0859 0.1477,0.1043z" opacity="0.9"/>
  <path id="svg_73" fill="#E62C38" d="m105.495,112.8776c-0.568,1.5232 0.303,2.7536 1.953,2.7429c0.867,-0.0445 1.703,-0.3284 2.414,-0.8191c0.711,-0.4907 1.267,-1.1685 1.605,-1.9558c0.574,-1.5233 -0.303,-2.7536 -1.953,-2.743c-0.867,0.0445 -1.703,0.3284 -2.414,0.8191c-0.711,0.4908 -1.267,1.1685 -1.605,1.9559z"/>
  <path id="svg_74" fill="black" d="m105.495,112.8776c-0.568,1.5232 0.303,2.7536 1.953,2.7429c0.867,-0.0445 1.703,-0.3284 2.414,-0.8191c0.711,-0.4907 1.267,-1.1685 1.605,-1.9558c0.574,-1.5233 -0.303,-2.7536 -1.953,-2.743c-0.867,0.0445 -1.703,0.3284 -2.414,0.8191c-0.711,0.4908 -1.267,1.1685 -1.605,1.9559z" opacity="0.1"/>
  <path id="svg_75" fill="#455A64" d="m106.864,120.1052c-1.293,3.4461 0.687,6.2317 4.425,6.2104c3.738,-0.0214 7.801,-2.8549 9.099,-6.2849c1.298,-3.4301 -0.692,-6.2263 -4.425,-6.2103c-3.733,0.016 -7.812,2.8335 -9.099,6.2848z"/>
  <path id="svg_76" fill="#455A64" d="m109.893,110.1455l-2.239,1.5393l-2.24,1.5393c-0.741,2.8921 -0.963,7.4088 1.791,11.2969l12.885,-8.8628c-2.78,-3.9148 -7.205,-5.2251 -10.197,-5.5127z"/>
  <path id="svg_77" fill="#263238" d="m111.186,110.3535c0,0 0.4,3.4887 -2.256,5.0706c0,0 2.499,-0.6765 3.246,-2.4075c0.747,-1.731 -0.99,-2.6631 -0.99,-2.6631z"/>
  <path id="svg_78" fill="#37474F" d="m111.516,110.7469c-0.998,-1.3653 -2.341,-2.4504 -3.895,-3.1478l-1.796,1.257l-0.2,0.1385l-1.8018,1.257c0.1564,1.6684 0.7488,3.2685 1.7208,4.6444c0.223,0.2803 0.513,0.5025 0.844,0.6473c0.331,0.1448 0.693,0.2078 1.054,0.1836c0.913,-0.0492 1.794,-0.3505 2.541,-0.8696c0.747,-0.519 1.331,-1.2347 1.684,-2.0651c0.146,-0.3297 0.207,-0.6895 0.179,-1.0479c-0.028,-0.3584 -0.145,-0.7045 -0.341,-1.0081l0.011,0.0107z"/>
  <path id="svg_79" fill="#455A64" d="m103.8829,109.3042c-0.1082,0.2144 -0.1554,0.4536 -0.1367,0.6923c0.0187,0.2386 0.1026,0.4679 0.243,0.6634c0.1398,0.1955 0.3318,0.3499 0.5538,0.447c0.222,0.097 0.467,0.133 0.709,0.1041c0.603,-0.0314 1.185,-0.2301 1.679,-0.5731c0.494,-0.343 0.879,-0.8164 1.112,-1.3656c0.108,-0.214 0.155,-0.4526 0.136,-0.6908c-0.018,-0.2381 -0.101,-0.4669 -0.241,-0.6622c-0.14,-0.1953 -0.33,-0.3499 -0.552,-0.4473c-0.221,-0.0975 -0.465,-0.1343 -0.706,-0.1066c-0.604,0.0348 -1.185,0.2347 -1.679,0.5773c-0.494,0.3425 -0.881,0.814 -1.1181,1.3615z"/>
  <path id="svg_80" fill="#455A64" d="m107.572,113.6341c-0.225,-0.3189 -0.522,-0.5815 -0.869,-0.7665c-0.347,-0.185 -0.733,-0.2873 -1.127,-0.2988c-0.15,-0.0129 -0.3,0.0175 -0.433,0.0875c-0.132,0.07 -0.241,0.1766 -0.314,0.3066l-5.3118,12.6285c-0.0391,0.1224 -0.0487,0.252 -0.0281,0.3787c0.0207,0.1267 0.071,0.2468 0.1471,0.351c0.2251,0.3199 0.5237,0.5831 0.8715,0.7682c0.3477,0.185 0.7349,0.2868 1.1301,0.297c0.15,0.0136 0.3007,-0.0165 0.4334,-0.0866c0.1327,-0.07 0.2416,-0.177 0.3131,-0.3075l5.3017,-12.5858c0.05,-0.1275 0.066,-0.2656 0.046,-0.4009c-0.02,-0.1353 -0.075,-0.2633 -0.16,-0.3714z"/>
  <path id="svg_81" fill="#455A64" d="m113.897,144.5634c0,-0.1791 -0.02,-0.3577 -0.06,-0.5326c-0.455,-2.0431 -1.678,-3.8411 -3.424,-5.0332l-7.168,0c-1.7473,1.1915 -2.9725,2.9895 -3.4297,5.0332c-0.0381,0.175 -0.0562,0.3536 -0.0541,0.5326c-0.0019,0.0319 -0.0019,0.0639 0,0.0959c0.0649,0.9747 0.7465,1.9387 2.0557,2.6631c2.7641,1.5976 7.2381,1.5976 10.0021,0c1.31,-0.7457 1.991,-1.7097 2.056,-2.6631c0.009,-0.0315 0.016,-0.0635 0.022,-0.0959z"/>
  <path id="svg_82" fill="#37474F" d="m106.826,143.53c2.653,0 4.804,-1.2233 4.804,-2.7323c0,-1.509 -2.151,-2.7323 -4.804,-2.7323c-2.653,0 -4.804,1.2233 -4.804,2.7323c0,1.509 2.151,2.7323 4.804,2.7323z"/>
  <path id="svg_83" fill="#455A64" d="m105.69,140.148c-0.138,0.0451 -0.258,0.1319 -0.344,0.2481c-0.085,0.1162 -0.131,0.2558 -0.131,0.3991c0,0.1433 0.046,0.283 0.131,0.3991c0.086,0.1162 0.206,0.203 0.344,0.2481c0.353,0.176 0.743,0.2677 1.139,0.2677c0.395,0 0.785,-0.0917 1.138,-0.2677c0.139,-0.0451 0.259,-0.1319 0.344,-0.2481c0.085,-0.1161 0.131,-0.2558 0.131,-0.3991c0,-0.1433 -0.046,-0.2829 -0.131,-0.3991c-0.085,-0.1162 -0.205,-0.203 -0.344,-0.2481c-0.353,-0.1759 -0.743,-0.2676 -1.138,-0.2676c-0.396,0 -0.786,0.0917 -1.139,0.2676z"/>
  <path id="svg_84" fill="#E62C38" d="m99.1118,127.8018c-0.1381,0.0451 -0.2583,0.1319 -0.3435,0.2481c-0.0852,0.1161 -0.1311,0.2558 -0.1311,0.3991c0,0.1433 0.0459,0.2829 0.1311,0.3991c0.0852,0.1161 0.2054,0.2029 0.3435,0.248c0.353,0.176 0.7431,0.2677 1.1387,0.2677c0.3957,0 0.7858,-0.0917 1.1388,-0.2677c0.1381,-0.0451 0.2583,-0.1319 0.3435,-0.248c0.0852,-0.1162 0.1311,-0.2558 0.1311,-0.3991c0,-0.1433 -0.0459,-0.283 -0.1311,-0.3991c-0.0852,-0.1162 -0.2054,-0.203 -0.3435,-0.2481c-0.353,-0.1759 -0.7431,-0.2676 -1.1388,-0.2676c-0.3956,0 -0.7857,0.0917 -1.1387,0.2676z"/>
  <path id="svg_85" fill="black" d="m99.1118,127.8018c-0.1381,0.0451 -0.2583,0.1319 -0.3435,0.2481c-0.0852,0.1161 -0.1311,0.2558 -0.1311,0.3991c0,0.1433 0.0459,0.2829 0.1311,0.3991c0.0852,0.1161 0.2054,0.2029 0.3435,0.248c0.353,0.176 0.7431,0.2677 1.1387,0.2677c0.3957,0 0.7858,-0.0917 1.1388,-0.2677c0.1381,-0.0451 0.2583,-0.1319 0.3435,-0.248c0.0852,-0.1162 0.1311,-0.2558 0.1311,-0.3991c0,-0.1433 -0.0459,-0.283 -0.1311,-0.3991c-0.0852,-0.1162 -0.2054,-0.203 -0.3435,-0.2481c-0.353,-0.1759 -0.7431,-0.2676 -1.1388,-0.2676c-0.3956,0 -0.7857,0.0917 -1.1387,0.2676z" opacity="0.3"/>
  <path id="svg_86" fill="#455A64" d="m101.8004,128.1904l6.5726,12.3463l-3.089,0.522l-6.5833,-12.3623l3.0997,-0.506z"/>
  <path id="svg_87" fill="#37474F" d="m99.4796,124.5952c-0.2035,-0.0492 -0.4172,-0.0392 -0.615,0.0289c-0.1978,0.0681 -0.3713,0.1913 -0.4994,0.3546c-0.3711,0.4113 -0.6384,0.903 -0.7804,1.4351c-0.1419,0.5321 -0.1544,1.0897 -0.0365,1.6274c0.0328,0.1767 0.1071,0.3434 0.217,0.4868c0.1099,0.1433 0.2523,0.2594 0.416,0.3388l2.456,0.9054l1.2226,-4.3142l-2.3803,-0.8628z"/>
  <path id="svg_88" fill="#263238" d="m100.789,125.8738c-0.3725,0.4116 -0.6411,0.904 -0.784,1.4371c-0.1428,0.5331 -0.156,1.0918 -0.0383,1.6308c0.2705,0.9748 1.082,1.1825 1.796,0.4634c0.3724,-0.4106 0.641,-0.902 0.7839,-1.4343c0.1429,-0.5322 0.1561,-1.0901 0.0384,-1.6283c-0.2651,-0.9747 -1.0765,-1.1825 -1.796,-0.4687z"/>
  <path id="svg_89" fill="#E62C38" d="m88.438,136.5739c2.2829,-2.2903 3.6191,-8.016 1.3957,-9.8322l-11.3171,0c-2.2233,1.8162 -0.8871,7.5366 1.3957,9.8322l0.0596,0.0639l0.0811,0.0746c0.0647,0.0644 0.1334,0.1249 0.2056,0.1811l0.0541,0.0426l0.1731,0.1278c0.0936,0.0677 0.1911,0.13 0.2921,0.1864c1.054,0.5252 2.2187,0.7988 3.4,0.7988c1.1813,0 2.346,-0.2736 3.4,-0.7988c0.0974,-0.0532 0.1947,-0.1171 0.2975,-0.1864l0.1569,-0.1225l0.0703,-0.0479l0.1948,-0.1758l0.0919,-0.0905l0.0487,-0.0533z"/>
  <path id="svg_90" fill="white" d="m88.438,136.5739c2.2829,-2.2903 3.6191,-8.016 1.3957,-9.8322l-11.3171,0c-2.2233,1.8162 -0.8871,7.5366 1.3957,9.8322l0.0596,0.0639l0.0811,0.0746c0.0647,0.0644 0.1334,0.1249 0.2056,0.1811l0.0541,0.0426l0.1731,0.1278c0.0936,0.0677 0.1911,0.13 0.2921,0.1864c1.054,0.5252 2.2187,0.7988 3.4,0.7988c1.1813,0 2.346,-0.2736 3.4,-0.7988c0.0974,-0.0532 0.1947,-0.1171 0.2975,-0.1864l0.1569,-0.1225l0.0703,-0.0479l0.1948,-0.1758l0.0919,-0.0905l0.0487,-0.0533z" opacity="0.7"/>
  <path id="svg_91" fill="#E62C38" d="m84.1703,132.4303c3.6539,0 6.616,-1.6836 6.616,-3.7603c0,-2.0768 -2.9621,-3.7603 -6.616,-3.7603c-3.654,0 -6.6161,1.6835 -6.6161,3.7603c0,2.0767 2.9621,3.7603 6.6161,3.7603z"/>
  <path id="svg_92" fill="white" d="m84.1703,132.4303c3.6539,0 6.616,-1.6836 6.616,-3.7603c0,-2.0768 -2.9621,-3.7603 -6.616,-3.7603c-3.654,0 -6.6161,1.6835 -6.6161,3.7603c0,2.0767 2.9621,3.7603 6.6161,3.7603z" opacity="0.9"/>
  <path id="svg_93" fill="#E62C38" d="m81.3246,127.0505c-1.5689,0.8948 -1.5689,2.3435 0,3.2383c0.8833,0.4387 1.8588,0.6673 2.8482,0.6673c0.9893,0 1.9649,-0.2286 2.8482,-0.6673c1.5688,-0.8948 1.5688,-2.3435 0,-3.2383c-0.8826,-0.4412 -1.8584,-0.6711 -2.8482,-0.6711c-0.9898,0 -1.9657,0.2299 -2.8482,0.6711z"/>
  <path id="svg_94" fill="white" d="m81.3246,127.0505c-1.5689,0.8948 -1.5689,2.3435 0,3.2383c0.8833,0.4387 1.8588,0.6673 2.8482,0.6673c0.9893,0 1.9649,-0.2286 2.8482,-0.6673c1.5688,-0.8948 1.5688,-2.3435 0,-3.2383c-0.8826,-0.4412 -1.8584,-0.6711 -2.8482,-0.6711c-0.9898,0 -1.9657,0.2299 -2.8482,0.6711z" opacity="0.7"/>
  <path id="svg_95" fill="#E62C38" d="m87.021,128.5847c-0.8833,-0.4387 -1.8589,-0.6672 -2.8482,-0.6672c-0.9893,0 -1.9649,0.2285 -2.8482,0.6672c-0.3784,0.206 -0.7012,0.4982 -0.9413,0.8523c0.2401,0.354 0.5629,0.6462 0.9413,0.8522c0.8833,0.4387 1.8589,0.6672 2.8482,0.6672c0.9893,0 1.9649,-0.2285 2.8482,-0.6672c0.3784,-0.206 0.7012,-0.4982 0.9413,-0.8522c-0.2401,-0.3541 -0.5629,-0.6463 -0.9413,-0.8523z"/>
  <path id="svg_96" fill="black" d="m87.021,128.5847c-0.8833,-0.4387 -1.8589,-0.6672 -2.8482,-0.6672c-0.9893,0 -1.9649,0.2285 -2.8482,0.6672c-0.3784,0.206 -0.7012,0.4982 -0.9413,0.8523c0.2401,0.354 0.5629,0.6462 0.9413,0.8522c0.8833,0.4387 1.8589,0.6672 2.8482,0.6672c0.9893,0 1.9649,-0.2285 2.8482,-0.6672c0.3784,-0.206 0.7012,-0.4982 0.9413,-0.8522c-0.2401,-0.3541 -0.5629,-0.6463 -0.9413,-0.8523z" opacity="0.3"/>
  <path id="svg_97" fill="#37474F" d="m85.198,129.7882c1.6395,-1.0083 2.8771,-2.541 3.5055,-4.3409c1.044,-3.0041 0.4273,-6.6366 -0.5086,-8.1386c-1.2658,-2.0346 -4.3277,-1.8056 -3.4243,1.5979c0.9034,3.4035 1.466,7.084 0.0325,9.5447l0.3949,1.3369z"/>
  <path id="svg_98" fill="white" d="m85.3062,129.1705c-0.0335,0.0001 -0.066,-0.0112 -0.092,-0.0319c-0.0133,-0.0129 -0.0238,-0.0282 -0.031,-0.0452c-0.0071,-0.0169 -0.0108,-0.035 -0.0108,-0.0534c0,-0.0183 0.0037,-0.0364 0.0108,-0.0534c0.0072,-0.0169 0.0177,-0.0322 0.031,-0.0451c0.9147,-0.9957 1.6146,-2.1638 2.0572,-3.4337c0.4427,-1.2699 0.6188,-2.615 0.5178,-3.9539c-0.1569,-2.466 -1.0819,-4.261 -1.4336,-4.5326c-0.0254,-0.0267 -0.0396,-0.0619 -0.0396,-0.0986c0,-0.0366 0.0142,-0.0718 0.0396,-0.0985c0.0262,-0.0247 0.0611,-0.0386 0.0974,-0.0386c0.0363,0 0.0712,0.0139 0.0974,0.0386c0.4652,0.3941 1.3741,2.3116 1.5255,4.7191c0.1046,1.3764 -0.076,2.7594 -0.5307,4.065c-0.4548,1.3056 -1.1742,2.5067 -2.1146,3.5303c-0.0162,0.0155 -0.0361,0.0266 -0.0579,0.0322c-0.0219,0.0056 -0.0448,0.0055 -0.0665,-0.0003z"/>
  <path id="svg_99" fill="#455A64" d="m82.5579,129.7881c-0.0875,-0.297 -0.2792,-0.5537 -0.541,-0.7244c-0.3232,-0.1775 -0.664,-0.322 -1.017,-0.4314c-0.6113,-0.2184 -1.3903,-0.5327 -1.4715,-1.257c-0.0191,-0.2595 0.014,-0.5202 0.0974,-0.767c0.1507,-0.3347 0.1867,-0.7086 0.1028,-1.0653c-0.1353,-0.3195 -0.4815,-0.49 -0.779,-0.6817c-0.3281,-0.191 -0.6076,-0.4534 -0.8169,-0.767c-0.1765,-0.2787 -0.2615,-0.6041 -0.2434,-0.9321c0.0595,-0.6711 0.7141,-1.1132 0.7357,-1.779c0.0271,-0.9747 -2.2883,-2.2956 -1.0549,-3.1957c1.5796,-1.1771 4.0519,0.1864 4.7605,1.1877c0.7087,1.0014 0.7087,1.4488 2.0016,2.2957c1.082,0.703 2.337,0.8468 2.337,2.2317c0,1.3848 -1.8014,1.4487 -0.3841,3.0199c0.8548,0.9428 -0.5409,1.7577 -1.0819,2.8762c-0.8818,-0.0106 -1.7744,-0.0532 -2.6453,-0.0106z"/>
  <path id="svg_100" fill="white" d="m83.9857,129.9103c-0.0185,-0.0007 -0.0366,-0.005 -0.0534,-0.0126c-0.0168,-0.0076 -0.0319,-0.0184 -0.0445,-0.0317c-0.0125,-0.0134 -0.0223,-0.029 -0.0287,-0.0461c-0.0064,-0.0171 -0.0093,-0.0352 -0.0086,-0.0534c0.3137,-8.048 -3.8463,-10.8708 -4.6794,-11.0946c-0.0341,-0.0113 -0.0624,-0.0352 -0.0792,-0.0665c-0.0168,-0.0313 -0.0207,-0.0678 -0.011,-0.1019c0.0097,-0.0341 0.0323,-0.0633 0.0632,-0.0815c0.0308,-0.0182 0.0676,-0.024 0.1027,-0.0164c1.4066,0.3782 5.1771,3.7763 4.8688,11.3715c-0.0013,0.0341 -0.0152,0.0664 -0.0391,0.091c-0.024,0.0246 -0.0563,0.0396 -0.0908,0.0422z"/>
  <path id="svg_101" fill="white" d="m83.3261,124.1902c-0.0334,0 -0.0659,-0.0113 -0.0919,-0.032c-1.2064,-1.0654 -3.565,-1.0227 -3.5921,-1.0227c-0.0364,0 -0.0714,-0.0139 -0.0976,-0.0387c-0.0262,-0.0248 -0.0416,-0.0587 -0.043,-0.0945c-0.0001,-0.0364 0.0138,-0.0714 0.0388,-0.0981c0.0251,-0.0267 0.0596,-0.0431 0.0964,-0.0457c0.1028,0 2.4939,-0.0267 3.7868,1.0653c0.0204,0.0188 0.0347,0.0431 0.041,0.0698c0.0064,0.0268 0.0045,0.0548 -0.0054,0.0805c-0.0098,0.0257 -0.0272,0.0479 -0.0499,0.0638c-0.0228,0.0159 -0.0498,0.0249 -0.0777,0.0257l-0.0054,0.0266z"/>
  <path id="svg_102" fill="#E62C38" d="m179.44,102.0809l2.034,-24.309c0.021,-0.3935 -0.061,-0.7856 -0.239,-1.1384c-0.179,-0.3528 -0.446,-0.6542 -0.778,-0.8749c-0.366,-0.1746 -0.769,-0.2617 -1.176,-0.2543c-0.407,0.0074 -0.807,0.1091 -1.166,0.2969l-27.049,15.3715c-0.357,0.228 -0.661,0.5292 -0.89,0.883c-0.228,0.3539 -0.377,0.7521 -0.435,1.1676l-2.034,24.309c-0.021,0.3935 0.061,0.7856 0.239,1.1384c0.179,0.3527 0.446,0.6542 0.778,0.8749c0.366,0.1746 0.769,0.2617 1.176,0.2543c0.407,-0.0074 0.807,-0.1091 1.166,-0.2969l27.049,-15.3715c0.357,-0.2285 0.66,-0.5298 0.889,-0.8836c0.228,-0.3538 0.377,-0.7517 0.436,-1.167z"/>
  <path id="svg_103" fill="white" d="m179.44,102.0809l2.034,-24.309c0.021,-0.3935 -0.061,-0.7856 -0.239,-1.1384c-0.179,-0.3528 -0.446,-0.6542 -0.778,-0.8749c-0.366,-0.1746 -0.769,-0.2617 -1.176,-0.2543c-0.407,0.0074 -0.807,0.1091 -1.166,0.2969l-27.049,15.3715c-0.357,0.228 -0.661,0.5292 -0.89,0.883c-0.228,0.3539 -0.377,0.7521 -0.435,1.1676l-2.034,24.309c-0.021,0.3935 0.061,0.7856 0.239,1.1384c0.179,0.3527 0.446,0.6542 0.778,0.8749c0.366,0.1746 0.769,0.2617 1.176,0.2543c0.407,-0.0074 0.807,-0.1091 1.166,-0.2969l27.049,-15.3715c0.357,-0.2285 0.66,-0.5298 0.889,-0.8836c0.228,-0.3538 0.377,-0.7517 0.436,-1.167z" opacity="0.8"/>
  <path id="svg_104" fill="#E62C38" d="m179.44,102.0809l2.034,-24.309c0.021,-0.3935 -0.062,-0.7856 -0.24,-1.1384c-0.178,-0.3528 -0.446,-0.6542 -0.777,-0.8749c-0.367,-0.1746 -0.77,-0.2617 -1.177,-0.2543c-0.407,0.0074 -0.806,0.1091 -1.166,0.2969l-27.048,15.3715c-0.359,0.2194 -0.661,0.5185 -0.882,0.8735l4.203,2.3862l0,23.1692l23.711,-13.4808c0.359,-0.2251 0.665,-0.5239 0.897,-0.8759c0.231,-0.3521 0.383,-0.7491 0.445,-1.164z"/>
  <path id="svg_105" fill="white" d="m179.44,102.0809l2.034,-24.309c0.021,-0.3935 -0.062,-0.7856 -0.24,-1.1384c-0.178,-0.3528 -0.446,-0.6542 -0.777,-0.8749c-0.367,-0.1746 -0.77,-0.2617 -1.177,-0.2543c-0.407,0.0074 -0.806,0.1091 -1.166,0.2969l-27.048,15.3715c-0.359,0.2194 -0.661,0.5185 -0.882,0.8735l4.203,2.3862l0,23.1692l23.711,-13.4808c0.359,-0.2251 0.665,-0.5239 0.897,-0.8759c0.231,-0.3521 0.383,-0.7491 0.445,-1.164z" opacity="0.9"/>
  <path id="svg_106" fill="#E62C38" d="m149.99,118.8218l2.034,-24.3089c0.059,-0.4154 0.207,-0.8136 0.435,-1.1681c0.227,-0.3545 0.529,-0.6572 0.885,-0.8878l27.048,-15.3662c0.671,-0.3782 1.158,-0.0746 1.082,0.6818l-2.034,24.3089c-0.058,0.4148 -0.206,0.8125 -0.434,1.1662c-0.228,0.3538 -0.53,0.6553 -0.886,0.8844l-27.048,15.3715c-0.66,0.3781 -1.147,0.0745 -1.082,-0.6818z"/>
  <path id="svg_107" fill="white" d="m149.99,118.8218l2.034,-24.3089c0.059,-0.4154 0.207,-0.8136 0.435,-1.1681c0.227,-0.3545 0.529,-0.6572 0.885,-0.8878l27.048,-15.3662c0.671,-0.3782 1.158,-0.0746 1.082,0.6818l-2.034,24.3089c-0.058,0.4148 -0.206,0.8125 -0.434,1.1662c-0.228,0.3538 -0.53,0.6553 -0.886,0.8844l-27.048,15.3715c-0.66,0.3781 -1.147,0.0745 -1.082,-0.6818z" opacity="0.7"/>
  <path id="svg_108" fill="#E62C38" d="m163.942,99.3169c0.073,-0.6535 0.288,-1.2839 0.629,-1.8489c0.342,-0.565 0.802,-1.0515 1.351,-1.4267c0.99,-0.5646 1.704,0 1.623,1.2356c-0.075,0.6533 -0.29,1.2835 -0.631,1.8484c-0.342,0.5649 -0.802,1.0515 -1.349,1.4273c-1.034,0.5379 -1.726,0.0053 -1.623,-1.2357z"/>
  <path id="svg_109" fill="white" d="m163.942,99.3169c0.073,-0.6535 0.288,-1.2839 0.629,-1.8489c0.342,-0.565 0.802,-1.0515 1.351,-1.4267c0.99,-0.5646 1.704,0 1.623,1.2356c-0.075,0.6533 -0.29,1.2835 -0.631,1.8484c-0.342,0.5649 -0.802,1.0515 -1.349,1.4273c-1.034,0.5379 -1.726,0.0053 -1.623,-1.2357z" opacity="0.4"/>
  <path id="svg_110" fill="#E62C38" d="m163.466,107.3115l9.061,-5.1504l-1.131,-0.6445l-9.061,5.1505l1.131,0.6444z"/>
  <path id="svg_111" fill="white" d="m163.466,107.3115l9.061,-5.1504l-1.131,-0.6445l-9.061,5.1505l1.131,0.6444z" opacity="0.9"/>
  <path id="svg_112" fill="#E62C38" d="m174.306,114.0231l-8.114,4.6019c-0.166,0.0879 -0.354,0.1284 -0.541,0.1172c-0.153,-0.0065 -0.302,-0.0446 -0.439,-0.1119l-3.565,-2.0239c-0.135,-0.0921 -0.247,-0.2134 -0.328,-0.3546c-0.081,-0.1412 -0.127,-0.2986 -0.137,-0.4604l0,-0.1864c0,-0.3036 0.217,-0.4314 0.482,-0.2769l2.163,1.2197l0.482,0.2769l-0.108,-0.5326l-1.872,-9.5872l1.131,0.6444l9.066,-5.1931l2.164,11.0467c0.025,0.1588 0.002,0.3213 -0.066,0.4673c-0.068,0.1459 -0.179,0.2687 -0.318,0.3529z"/>
  <path id="svg_113" fill="white" d="m174.306,114.0231l-8.114,4.6019c-0.166,0.0879 -0.354,0.1284 -0.541,0.1172c-0.153,-0.0065 -0.302,-0.0446 -0.439,-0.1119l-3.565,-2.0239c-0.135,-0.0921 -0.247,-0.2134 -0.328,-0.3546c-0.081,-0.1412 -0.127,-0.2986 -0.137,-0.4604l0,-0.1864c0,-0.3036 0.217,-0.4314 0.482,-0.2769l2.163,1.2197l0.482,0.2769l-0.108,-0.5326l-1.872,-9.5872l1.131,0.6444l9.066,-5.1931l2.164,11.0467c0.025,0.1588 0.002,0.3213 -0.066,0.4673c-0.068,0.1459 -0.179,0.2687 -0.318,0.3529z" opacity="0.7"/>
  <path id="svg_114" fill="#E62C38" d="m161.35,115.2744l2.759,-1.5713l0.563,3.6593l-3.322,-2.088z"/>
  <path id="svg_115" fill="white" d="m161.35,115.2744l2.759,-1.5713l0.563,3.6593l-3.322,-2.088z" opacity="0.7"/>
  <path id="svg_116" fill="#E62C38" d="m163.449,107.3115l-1.131,-0.6445l1.872,9.5872c0.065,0.2929 -0.108,0.4155 -0.373,0.261l-2.164,-1.2197c-0.265,-0.1545 -0.482,0 -0.482,0.2769l0,0.1865c0.01,0.1617 0.057,0.3191 0.137,0.4603c0.081,0.1413 0.193,0.2625 0.329,0.3546l3.565,2.0239c0.136,0.0673 0.285,0.1054 0.438,0.1119l-2.191,-11.3981z"/>
  <path id="svg_117" fill="white" d="m163.449,107.3115l-1.131,-0.6445l1.872,9.5872c0.065,0.2929 -0.108,0.4155 -0.373,0.261l-2.164,-1.2197c-0.265,-0.1545 -0.482,0 -0.482,0.2769l0,0.1865c0.01,0.1617 0.057,0.3191 0.137,0.4603c0.081,0.1413 0.193,0.2625 0.329,0.3546l3.565,2.0239c0.136,0.0673 0.285,0.1054 0.438,0.1119l-2.191,-11.3981z" opacity="0.8"/>
  <path id="svg_118" fill="#E62C38" d="m134.237,120.1906c1.661,-0.1225 2.196,-0.7244 2.467,-1.4487c0.27,-0.7244 0.368,-1.518 -0.276,-3.1958c-0.644,-1.6777 -4.328,-3.8775 -8.153,-3.0732c-3.824,0.8043 -4.354,3.6804 -4.149,4.4527c0.206,0.7723 2.505,2.7324 5.486,3.0679c1.533,0.1971 3.08,0.263 4.625,0.1971z"/>
  <path id="svg_119" fill="white" d="m134.237,120.1906c1.661,-0.1225 2.196,-0.7244 2.467,-1.4487c0.27,-0.7244 0.368,-1.518 -0.276,-3.1958c-0.644,-1.6777 -4.328,-3.8775 -8.153,-3.0732c-3.824,0.8043 -4.354,3.6804 -4.149,4.4527c0.206,0.7723 2.505,2.7324 5.486,3.0679c1.533,0.1971 3.08,0.263 4.625,0.1971z" opacity="0.7"/>
  <path id="svg_120" fill="#E62C38" d="m132.295,114.9387c0.219,-0.1706 0.491,-0.2634 0.771,-0.2634c0.279,0 0.551,0.0928 0.77,0.2634c0.506,0.2822 0.911,0.7121 1.158,1.2303c0.168,0.4314 0.087,0.8149 -0.103,0.8149c-0.189,0 -0.33,-0.3941 -1.055,-0.9906c-0.724,-0.5965 -1.704,-0.8309 -1.541,-1.0546z"/>
  <path id="svg_121" fill="white" d="m132.295,114.9387c0.219,-0.1706 0.491,-0.2634 0.771,-0.2634c0.279,0 0.551,0.0928 0.77,0.2634c0.506,0.2822 0.911,0.7121 1.158,1.2303c0.168,0.4314 0.087,0.8149 -0.103,0.8149c-0.189,0 -0.33,-0.3941 -1.055,-0.9906c-0.724,-0.5965 -1.704,-0.8309 -1.541,-1.0546z" opacity="0.9"/>
  <path id="svg_122" fill="#FFA8A7" d="m108.93,74.79c-1.785,1.1825 -3.9,2.5833 -3.608,7.1958c0.292,4.6125 3.787,17.3369 4.025,18.8868c0.238,1.55 9.737,9.0546 11.485,10.5353c2.007,1.7204 2.764,2.0826 3.673,3.0679c0.909,0.9854 1.764,3.4994 2.705,4.5912c1.477,1.6885 4.658,1.7257 6.124,1.5287c1.466,-0.1971 0.541,-1.9494 0,-3.1958c-0.541,-1.2463 -1.991,-2.9454 -1.58,-3.2383c0.281,-0.1971 1.812,0.0692 2.997,1.0652c0.914,0.767 1.022,1.518 1.536,1.8695c0.86,0.5966 1.147,-0.458 0.26,-2.1305c-0.887,-1.6724 -2.24,-2.8708 -3.576,-3.2862c0.59,0.0457 1.18,-0.0842 1.693,-0.3729c0.736,-0.4474 0.996,-1.4594 0.087,-1.1931c-0.541,0.1545 -1.082,0 -2.164,0c-3.397,0 -4.42,1.2144 -8.353,-2.5246c-3.932,-3.739 -9.196,-8.8256 -9.196,-8.8256c0,0 -1.769,-10.5992 -2.564,-15.2916c-0.676,-4.0426 -0.958,-6.6897 -3.544,-8.6818z"/>
  <path id="svg_123" fill="#FFA8A7" d="m140.507,85.2132l6.713,-13.9974l3.787,1.5393c0,0 -5.567,16.586 -6.367,18.3862c-0.471,1.0653 -1.98,2.3596 -4.166,1.3103c-0.476,-0.229 -1.423,-0.7777 -2.597,-1.4967"/>
  <path id="svg_124" fill="#FFA8A7" d="m149.584,76.9253c0.466,-1.3688 1.943,-2.8282 2.164,-3.4088c0.197,-0.4585 0.263,-0.9614 0.19,-1.454l-1.726,0.1704l-0.628,4.6924z"/>
  <path id="svg_125" fill="#FFA8A7" d="m146.025,73.6604c0.281,-0.6338 0.33,-2.8549 0,-4.1332c-0.33,-1.2783 0.465,-2.8761 0.265,-3.7763c-0.2,-0.9001 0.384,-1.1718 0.914,-0.8468c0.325,0.2028 0.593,0.4816 0.782,0.8115c0.189,0.3299 0.292,0.7007 0.3,1.0793c0.027,0.9321 0.086,3.3022 -0.298,4.458c-0.384,1.1558 -1.963,2.4075 -1.963,2.4075z"/>
  <path id="svg_126" fill="#F28F8F" d="m146.917,71.4819c0.103,0.2877 0.493,0.6871 1.753,0.4741l2.321,0.7989l0.947,-0.0532c-0.506,0.3525 -1.126,0.5112 -1.742,0.4465c-0.616,-0.0647 -1.188,-0.3485 -1.607,-0.7981c0,0 -1.704,0.2077 -1.672,-0.8682z"/>
  <path id="svg_127" fill="#E62C38" d="m153.408,70.5445c-1.455,1.1186 -1.249,2.5726 0.466,3.2544c0.95,0.3216 1.964,0.4178 2.96,0.2808c0.995,-0.137 1.944,-0.5032 2.769,-1.0691c1.455,-1.1185 1.244,-2.5779 -0.466,-3.2597c-0.951,-0.3195 -1.965,-0.4142 -2.96,-0.2763c-0.996,0.1379 -1.944,0.5044 -2.769,1.0699z"/>
  <path id="svg_128" fill="white" d="m153.408,70.5445c-1.455,1.1186 -1.249,2.5726 0.466,3.2544c0.95,0.3216 1.964,0.4178 2.96,0.2808c0.995,-0.137 1.944,-0.5032 2.769,-1.0691c1.455,-1.1185 1.244,-2.5779 -0.466,-3.2597c-0.951,-0.3195 -1.965,-0.4142 -2.96,-0.2763c-0.996,0.1379 -1.944,0.5044 -2.769,1.0699z" opacity="0.7"/>
  <path id="svg_129" fill="#E62C38" d="m160.614,62.3799l-5.339,0.735l-5.35,0.735c0.119,3.4088 1.293,7.2277 2.824,9.1718l7.703,-1.0652c0.936,-2.2903 0.995,-6.269 0.162,-9.5766z"/>
  <path id="svg_130" fill="white" d="m160.614,62.3799l-5.339,0.735l-5.35,0.735c0.119,3.4088 1.293,7.2277 2.824,9.1718l7.703,-1.0652c0.936,-2.2903 0.995,-6.269 0.162,-9.5766z" opacity="0.7"/>
  <path id="svg_131" fill="#E62C38" d="m151.299,62.2573c-1.959,1.1772 -1.753,2.626 0.46,3.2278c2.572,0.5546 5.261,0.1763 7.573,-1.0652c1.958,-1.1825 1.753,-2.6259 -0.46,-3.2332c-2.573,-0.5524 -5.262,-0.1723 -7.573,1.0706z"/>
  <path id="svg_132" fill="white" d="m151.299,62.2573c-1.959,1.1772 -1.753,2.626 0.46,3.2278c2.572,0.5546 5.261,0.1763 7.573,-1.0652c1.958,-1.1825 1.753,-2.6259 -0.46,-3.2332c-2.573,-0.5524 -5.262,-0.1723 -7.573,1.0706z" opacity="0.9"/>
  <path id="svg_133" fill="#E62C38" d="m152.089,62.7412c-1.623,0.8149 -1.466,1.7576 0.297,2.1304c2.072,0.3089 4.191,0.0164 6.097,-0.8415c1.596,-0.8149 1.466,-1.7577 -0.303,-2.1305c-2.07,-0.3084 -4.187,-0.016 -6.091,0.8416z"/>
  <path id="svg_134" fill="white" d="m152.089,62.7412c-1.623,0.8149 -1.466,1.7576 0.297,2.1304c2.072,0.3089 4.191,0.0164 6.097,-0.8415c1.596,-0.8149 1.466,-1.7577 -0.303,-2.1305c-2.07,-0.3084 -4.187,-0.016 -6.091,0.8416z" opacity="0.4"/>
  <path id="svg_135" fill="#E62C38" d="m152.289,63.9885c-0.286,0.1386 -0.551,0.318 -0.784,0.5326c0.284,0.1434 0.589,0.2439 0.903,0.2983c2.072,0.3088 4.191,0.0164 6.097,-0.8416c0.288,-0.1363 0.553,-0.316 0.784,-0.5326c-0.284,-0.1434 -0.588,-0.2439 -0.903,-0.2983c-2.072,-0.3088 -4.191,-0.0164 -6.097,0.8416z"/>
  <path id="svg_136" fill="black" d="m152.289,63.9885c-0.286,0.1386 -0.551,0.318 -0.784,0.5326c0.284,0.1434 0.589,0.2439 0.903,0.2983c2.072,0.3088 4.191,0.0164 6.097,-0.8416c0.288,-0.1363 0.553,-0.316 0.784,-0.5326c-0.284,-0.1434 -0.588,-0.2439 -0.903,-0.2983c-2.072,-0.3088 -4.191,-0.0164 -6.097,0.8416z" opacity="0.3"/>
  <path id="svg_137" fill="#E62C38" d="m151.153,72.8617c-0.449,0.0655 -0.907,0.0438 -1.347,-0.0639c-0.606,-0.1598 -1.179,-0.7351 -1.747,-1.763c-0.476,-0.8629 -1.293,-2.7803 -0.947,-3.8403c0.444,-1.3475 2.029,-1.5392 3.083,-1.6671l0.363,-0.0479l0.233,1.6352l-0.39,0.0479c-0.595,0.0692 -1.585,0.1917 -1.699,0.5326c-0.151,0.6605 0.985,3.233 1.564,3.5153c0.522,0.0714 1.053,-0.014 1.525,-0.245l0.758,1.4701c-0.44,0.2131 -0.911,0.3569 -1.396,0.4261z"/>
  <path id="svg_138" fill="white" d="m151.153,72.8617c-0.449,0.0655 -0.907,0.0438 -1.347,-0.0639c-0.606,-0.1598 -1.179,-0.7351 -1.747,-1.763c-0.476,-0.8629 -1.293,-2.7803 -0.947,-3.8403c0.444,-1.3475 2.029,-1.5392 3.083,-1.6671l0.363,-0.0479l0.233,1.6352l-0.39,0.0479c-0.595,0.0692 -1.585,0.1917 -1.699,0.5326c-0.151,0.6605 0.985,3.233 1.564,3.5153c0.522,0.0714 1.053,-0.014 1.525,-0.245l0.758,1.4701c-0.44,0.2131 -0.911,0.3569 -1.396,0.4261z" opacity="0.7"/>
  <path id="svg_139" fill="#FFA8A7" d="m149.168,67.7002c-1.034,0 -4.068,1.1878 -4.133,2.2637c-0.065,1.0759 1.996,0.996 1.996,0.996c-0.097,0.1599 -0.134,0.3483 -0.105,0.5324c0.03,0.1841 0.124,0.352 0.267,0.4743c0.514,0.4368 4.409,-0.8948 4.409,-0.8948c-0.136,-0.4395 -0.342,-0.8549 -0.611,-1.2304c-0.194,-0.2429 -0.478,-0.4 -0.79,-0.4368c0,0 0.503,-1.7044 -1.033,-1.7044z"/>
  <path id="svg_140" fill="#E0E0E0" d="m71.8683,120.1528l-4.5333,-2.5724l4.5333,-1.2889l0,3.8613z"/>
  <g id="svg_141" opacity="0.5">
   <g id="svg_142" opacity="0.5">
    <path id="svg_143" fill="#E0E0E0" d="m71.8683,116.2915l0,3.8613l-4.5333,-2.5724"/>
   </g>
  </g>
  <path id="svg_144" fill="#E0E0E0" d="m44.6788,131.7479l0,4.1012l-24.9171,-14.1625l0,-4.1065l24.9171,14.1678z"/>
  <g id="svg_145" opacity="0.5">
   <g id="svg_146" opacity="0.5">
    <path id="svg_147" fill="#E0E0E0" d="m44.6788,131.7479l0,4.1012l-24.9171,-14.1625l0,-4.1065l24.9171,14.1678z"/>
   </g>
  </g>
  <path id="svg_148" fill="#E0E0E0" d="m17.4951,85.3828l24.9225,14.1679l0,33.4808l-24.9225,-14.1625l0,-33.4862z"/>
  <path id="svg_149" fill="#EBEBEB" d="m42.4175,99.5507l33.9783,-19.3183l0,33.4808l-33.9783,19.3183l0,-33.4808z"/>
  <path id="svg_150" fill="#F5F5F5" d="m76.3959,80.2327l-24.9171,-14.1678l-33.9837,19.3183l24.9225,14.1678l33.9783,-19.3183z"/>
  <path id="svg_151" fill="#E0E0E0" d="m44.6787,100.8399l29.4558,-16.7457l0,7.7284l-29.4558,16.7403l0,-7.723z"/>
  <g id="svg_152" opacity="0.5">
   <g id="svg_153" opacity="0.5">
    <path id="svg_154" fill="#E0E0E0" d="m56.0069,95.0396c0,0.3569 1.0819,0.032 2.4181,-0.7243l4.2304,-2.4075c1.3362,-0.7564 2.4127,-1.6618 2.4127,-2.0187l0,-0.6445l-9.0666,5.1559l0.0054,0.6391z"/>
   </g>
  </g>
  <path id="svg_155" fill="#E0E0E0" d="m44.6787,111.1408l29.4558,-16.7404l0,7.7231l-29.4558,16.7458l0,-7.7285z"/>
  <g id="svg_156" opacity="0.5">
   <g id="svg_157" opacity="0.5">
    <path id="svg_158" fill="#E0E0E0" d="m56.0069,105.3515c0,0.3569 1.0819,0 2.4181,-0.7297l4.2304,-2.4074c1.3362,-0.7563 2.4127,-1.6618 2.4127,-2.0133l0,-0.6445l-9.0666,5.1505l0.0054,0.6444z"/>
   </g>
  </g>
  <path id="svg_159" fill="#E0E0E0" d="m44.6787,121.4416l29.4558,-16.7404l0,7.7283l-29.4558,16.7404l0,-7.7283z"/>
  <g id="svg_160" opacity="0.5">
   <g id="svg_161" opacity="0.5">
    <path id="svg_162" fill="#E0E0E0" d="m56.0069,115.6472c0,0.3568 1.0819,0.0319 2.4181,-0.7298l4.2304,-2.4022c1.3362,-0.7616 2.4127,-1.6618 2.4127,-2.0187l0,-0.6444l-9.0666,5.1506l0.0054,0.6445z"/>
   </g>
  </g>
  <path id="svg_163" fill="#E0E0E0" d="m44.6787,135.8488l2.2667,-1.2837l0,-4.1066l-2.2667,1.289l0,4.1013z"/>
  <path id="svg_164" fill="#E0E0E0" d="m71.8677,120.1525l2.2666,-1.2837l0,-3.8668l-2.2666,1.2889l0,3.8616z"/>
  <path id="svg_165" fill="#EBEBEB" d="m32.0636,86.7784c2.2828,-2.2956 3.6245,-7.9893 1.3957,-9.8375l-11.3225,0c-2.2234,1.8216 -0.8872,7.5419 1.3957,9.8322l0.0595,0.0639l0.0811,0.0746c0.0647,0.0644 0.1334,0.1249 0.2056,0.1811l0.0541,0.0426l0.1731,0.1278c0.0936,0.0677 0.1911,0.13 0.2921,0.1864c1.054,0.5252 2.2187,0.7988 3.4,0.7988c1.1813,0 2.346,-0.2736 3.4,-0.7988c0.1028,-0.0564 0.2021,-0.1186 0.2975,-0.1864l0.1569,-0.1171l0.0703,-0.0533l0.2002,-0.1758l0.0866,-0.0852l0.0541,-0.0533z"/>
  <path id="svg_166" fill="#F5F5F5" d="m23.121,76.211c-2.5858,1.47 -2.5858,3.8508 0,5.3262c2.5859,1.4754 6.773,1.47 9.3534,0c2.5804,-1.47 2.5858,-3.8455 0,-5.3262c-2.5858,-1.4807 -6.773,-1.47 -9.3534,0z"/>
  <path id="svg_167" fill="#E0E0E0" d="m24.9603,77.2498c-1.5688,0.8948 -1.5688,2.3435 0,3.2383c0.8826,0.4412 1.8584,0.6711 2.8482,0.6711c0.9898,0 1.9656,-0.2299 2.8482,-0.6711c1.5688,-0.8948 1.5688,-2.3435 0,-3.2383c-0.8833,-0.4387 -1.8589,-0.6673 -2.8482,-0.6673c-0.9893,0 -1.9649,0.2286 -2.8482,0.6673z"/>
  <path id="svg_168" fill="#E0E0E0" d="m30.646,78.7892c-0.8826,-0.4411 -1.8584,-0.671 -2.8482,-0.671c-0.9898,0 -1.9656,0.2299 -2.8482,0.671c-0.3797,0.2018 -0.703,0.4927 -0.9413,0.8469c0.2379,0.3558 0.5612,0.6485 0.9413,0.8521c0.8826,0.4412 1.8584,0.6711 2.8482,0.6711c0.9898,0 1.9656,-0.2299 2.8482,-0.6711c0.3801,-0.2036 0.7034,-0.4963 0.9413,-0.8521c-0.2383,-0.3542 -0.5616,-0.6451 -0.9413,-0.8469z"/>
  <g id="svg_169" opacity="0.5">
   <g id="svg_170" opacity="0.5">
    <path id="svg_171" fill="#E0E0E0" d="m30.646,78.7892c-0.8826,-0.4411 -1.8584,-0.671 -2.8482,-0.671c-0.9898,0 -1.9656,0.2299 -2.8482,0.671c-0.3797,0.2018 -0.703,0.4927 -0.9413,0.8469c0.2379,0.3558 0.5612,0.6485 0.9413,0.8521c0.8826,0.4412 1.8584,0.6711 2.8482,0.6711c0.9898,0 1.9656,-0.2299 2.8482,-0.6711c0.3801,-0.2036 0.7034,-0.4963 0.9413,-0.8521c-0.2383,-0.3542 -0.5616,-0.6451 -0.9413,-0.8469z"/>
   </g>
  </g>
  <path id="svg_172" fill="#EBEBEB" d="m25.301,79.6358c-0.8057,-0.8041 -1.4988,-1.7105 -2.061,-2.6951c-0.9522,-1.6511 -1.1253,-3.8722 -0.633,-4.1438c0.4923,-0.2717 2.4885,1.9387 2.4885,1.9387c-0.1819,-0.9314 -0.2528,-1.8806 -0.211,-2.8282c0.0866,-1.4754 0.449,-2.8123 0.8818,-3.084c0.4328,-0.2716 1.3849,1.5979 1.796,2.9402c0.4111,1.3422 0.6438,2.4554 0.6438,2.4554c0.1656,-1.0518 0.4115,-2.0899 0.7357,-3.1053c0.4977,-1.3954 0.9521,-1.715 1.3037,-1.5978c0.3516,0.1171 0.5843,0.7936 0.687,2.6631c0.0359,0.8886 0.007,1.7786 -0.0865,2.6631c0,0 0.7087,-0.7669 1.4877,-1.5073c0.8601,-0.8149 1.228,-0.9268 1.4768,-0.7723c0.2488,0.1545 0.3138,1.4221 -1.017,3.7923c-0.6634,1.2074 -1.5119,2.3068 -2.5155,3.2597c0,0 -1.8285,1.1931 -4.977,0.0213z"/>
  <path id="svg_173" fill="#E0E0E0" d="m54.898,89.5373l13.5242,-7.723c0.2651,-0.1492 0.2651,-0.3942 0,-0.5326l-18.5769,-10.4181c-0.1503,-0.0741 -0.3161,-0.1126 -0.4841,-0.1126c-0.1681,0 -0.3339,0.0385 -0.4842,0.1126l-13.4052,7.6325c-0.2651,0.1544 -0.2651,0.3994 0,0.5326l18.4578,10.4926c0.1491,0.0766 0.3142,0.1179 0.4823,0.1206c0.1681,0.0028 0.3345,-0.033 0.4861,-0.1046z"/>
  <g id="svg_174" opacity="0.5">
   <g id="svg_175" opacity="0.5">
    <path id="svg_176" fill="#E0E0E0" d="m54.898,89.5373l13.5242,-7.723c0.2651,-0.1492 0.2651,-0.3942 0,-0.5326l-18.5769,-10.4181c-0.1503,-0.0741 -0.3161,-0.1126 -0.4841,-0.1126c-0.1681,0 -0.3339,0.0385 -0.4842,0.1126l-13.4052,7.6325c-0.2651,0.1544 -0.2651,0.3994 0,0.5326l18.4578,10.4926c0.1491,0.0766 0.3142,0.1179 0.4823,0.1206c0.1681,0.0028 0.3345,-0.033 0.4861,-0.1046z"/>
   </g>
  </g>
  <path id="svg_177" fill="#EBEBEB" d="m35.4606,78.4803l15.2446,-9.5447c0.1477,-0.076 0.312,-0.1158 0.4787,-0.1158c0.1668,0 0.331,0.0398 0.4788,0.1158l5.4908,3.1212c0.1285,0.0767 0.2231,0.198 0.2651,0.34c0.0421,0.142 0.0286,0.2943 -0.0379,0.427l-0.2218,0.4261c-0.0664,0.1326 -0.0799,0.285 -0.0379,0.427c0.0421,0.142 0.1367,0.2633 0.2651,0.34l11.0629,6.3009c0.0587,0.0227 0.1091,0.0622 0.1447,0.1136c0.0355,0.0513 0.0545,0.1119 0.0545,0.174c0,0.0621 -0.019,0.1228 -0.0545,0.1741c-0.0356,0.0513 -0.086,0.0909 -0.1447,0.1136l-13.5784,8.6072c-0.1459,0.0788 -0.3096,0.1201 -0.476,0.1201c-0.1664,0 -0.3302,-0.0413 -0.4761,-0.1201l-18.4579,-10.4927c-0.0472,-0.0266 -0.0864,-0.065 -0.1137,-0.1113c-0.0273,-0.0463 -0.0417,-0.0989 -0.0417,-0.1524c0,-0.0535 0.0144,-0.1061 0.0417,-0.1524c0.0273,-0.0463 0.0665,-0.0847 0.1137,-0.1112z"/>
  <path id="svg_178" fill="#37474F" d="m227.099,101.1332c3.928,-3.9468 6.238,-20.0107 2.402,-23.1425l-19.475,0c-3.835,3.1265 -1.525,19.1744 2.402,23.1371l0.103,0.1066l0.135,0.1331c0.114,0.1065 0.233,0.2077 0.357,0.3089l0.092,0.0746c0.098,0.0746 0.195,0.1491 0.298,0.2184c0.162,0.1171 0.332,0.2238 0.508,0.3196c3.246,1.8375 8.472,1.8375 11.707,0c0.176,-0.0958 0.346,-0.2025 0.508,-0.3196l0.276,-0.2077l0.119,-0.0906c0.119,-0.0959 0.233,-0.1971 0.341,-0.2983l0.157,-0.1491l0.07,-0.0905z"/>
  <path id="svg_179" fill="#455A64" d="m211.698,76.7285c-4.452,2.53 -4.452,6.6311 0,9.1611c4.452,2.5299 11.663,2.5246 16.11,0c4.447,-2.5246 4.447,-6.6311 0,-9.1611c-4.447,-2.5299 -11.663,-2.5299 -16.11,0z"/>
  <path id="svg_180" fill="#37474F" d="m213.834,77.9424c-3.246,1.8588 -3.246,4.8681 0,6.727c3.246,1.8588 8.569,1.8588 11.831,0c3.262,-1.8589 3.246,-4.8682 0,-6.727c-3.246,-1.8588 -8.563,-1.8535 -11.831,0z"/>
  <path id="svg_181" fill="#E0E0E0" d="m225.66,81.1388c-3.246,-1.8589 -8.564,-1.8589 -11.831,0c-0.79,0.421 -1.462,1.0264 -1.958,1.763c0.496,0.7382 1.168,1.3454 1.958,1.7683c3.246,1.8588 8.563,1.8588 11.831,0c0.792,-0.42 1.465,-1.0278 1.958,-1.7683c-0.494,-0.7387 -1.167,-1.3446 -1.958,-1.763z"/>
  <g id="svg_182">
   <g id="svg_183">
    <path id="svg_184" fill="#263238" d="m225.66,81.1388c-3.246,-1.8589 -8.564,-1.8589 -11.831,0c-0.79,0.421 -1.462,1.0264 -1.958,1.763c0.496,0.7382 1.168,1.3454 1.958,1.7683c3.246,1.8588 8.563,1.8588 11.831,0c0.792,-0.42 1.465,-1.0278 1.958,-1.7683c-0.494,-0.7387 -1.167,-1.3446 -1.958,-1.763z"/>
   </g>
  </g>
  <path id="svg_185" fill="#E62C38" d="m223.399,82.9119c0.947,-2.8229 2.266,-7.9893 7.173,-11.8615c5.031,-3.984 9.992,-7.1371 8.282,-9.7522c-1.558,-2.3755 -6.242,-2.7271 -11.598,1.3422c-5.199,3.9413 -7.547,12.9852 -7.087,18.9825l3.23,1.289z"/>
  <g id="svg_186" opacity="0.1">
   <path id="svg_187" fill="black" d="m223.399,82.9119c0.947,-2.8229 2.266,-7.9893 7.173,-11.8615c5.031,-3.984 9.992,-7.1371 8.282,-9.7522c-1.558,-2.3755 -6.242,-2.7271 -11.598,1.3422c-5.199,3.9413 -7.547,12.9852 -7.087,18.9825l3.23,1.289z" opacity="0.1"/>
  </g>
  <path id="svg_188" fill="white" d="m221.008,82.2355l-0.038,0c-0.036,-0.0039 -0.071,-0.015 -0.102,-0.0325c-0.032,-0.0175 -0.06,-0.0412 -0.082,-0.0695c-0.022,-0.0284 -0.039,-0.0608 -0.048,-0.0955c-0.009,-0.0346 -0.011,-0.0707 -0.006,-0.1061c1.861,-14.1731 10.82,-20.4474 15.196,-20.6551c0.037,-0.0037 0.074,0.0001 0.109,0.0112c0.035,0.0111 0.067,0.0293 0.094,0.0533c0.028,0.0241 0.05,0.0535 0.065,0.0864c0.016,0.0329 0.024,0.0685 0.024,0.1047c0.003,0.0732 -0.023,0.1446 -0.072,0.1992c-0.05,0.0547 -0.119,0.0883 -0.193,0.0938c-3.246,0.1491 -12.702,5.2197 -14.671,20.1757c-0.009,0.0654 -0.042,0.1253 -0.093,0.1684c-0.051,0.0431 -0.116,0.0666 -0.183,0.066z"/>
  <path id="svg_189" fill="#E62C38" d="m216.242,83.5728c-0.128,-0.7949 -0.446,-1.5482 -0.93,-2.1969c-0.484,-0.6487 -1.119,-1.1738 -1.851,-1.5315c-1.596,-0.8522 -3.538,0 -5.409,-2.5725c-1.872,-2.5726 -0.233,-4.6605 -0.541,-5.9068c-0.309,-1.2463 -0.633,-2.0613 -2.765,-2.9561c-2.131,-0.8948 -2.705,-2.2104 -1.969,-5.1611c0.736,-2.9507 0.698,-3.8455 -1.125,-5.1398c-1.823,-1.29426 -1.91,-2.93474 0,-4.01597c1.91,-1.08122 5.307,-1.06524 7.995,1.28362c2.689,2.34887 3.03,3.36085 5.989,3.64315c2.959,0.2823 4.652,0.3995 5.323,2.1305c0.671,1.731 0.325,3.0732 0,4.6924c-0.152,0.7391 -0.05,1.5072 0.291,2.1826c0.341,0.6753 0.901,1.2193 1.592,1.5458c1.293,0.6018 3.446,1.0652 4.246,3.3874c0.801,2.3223 -0.973,7.0573 -3.246,9.9654c-0.027,-0.0107 -0.568,1.6884 -7.6,0.6498z"/>
  <path id="svg_190" fill="white" d="m221.192,83.844c-0.037,0 -0.073,-0.0072 -0.107,-0.0211c-0.034,-0.014 -0.065,-0.0345 -0.09,-0.0603c-0.026,-0.0258 -0.046,-0.0564 -0.06,-0.0899c-0.013,-0.0336 -0.02,-0.0695 -0.019,-0.1056c-0.088,-4.544 -1.117,-9.0225 -3.024,-13.1612c-3.046,-6.4713 -12.778,-14.11447 -13.373,-14.466c-0.034,-0.01058 -0.065,-0.02794 -0.091,-0.05097c-0.026,-0.02303 -0.048,-0.05123 -0.062,-0.08279c-0.015,-0.03156 -0.023,-0.0658 -0.024,-0.10054c0,-0.03475 0.007,-0.06923 0.02,-0.10125c0.029,-0.06931 0.084,-0.12506 0.153,-0.15577c0.07,-0.03071 0.149,-0.03406 0.22,-0.00934c0.336,0.10652 10.457,7.92006 13.66,14.73236c1.94,4.2166 2.987,8.778 3.078,13.4061c0,0.0359 -0.007,0.0714 -0.022,0.1044c-0.014,0.0331 -0.035,0.0629 -0.061,0.0878c-0.026,0.0249 -0.057,0.0443 -0.091,0.057c-0.034,0.0127 -0.071,0.0186 -0.107,0.0171z"/>
  <path id="svg_191" fill="white" d="m214.754,65.4846c-0.045,0.0002 -0.09,-0.0108 -0.13,-0.032c-2.039,-1.1026 -6.913,-0.3196 -6.962,-0.309c-0.073,0.0094 -0.147,-0.0091 -0.206,-0.0517c-0.059,-0.0427 -0.1,-0.1061 -0.113,-0.1773c-0.006,-0.0353 -0.005,-0.0715 0.003,-0.1065c0.008,-0.035 0.023,-0.068 0.044,-0.0973c0.021,-0.0292 0.048,-0.054 0.079,-0.0729c0.031,-0.019 0.065,-0.0318 0.101,-0.0376c0.206,-0.0319 5.118,-0.8203 7.319,0.3729c0.033,0.0172 0.061,0.0406 0.084,0.0688c0.023,0.0282 0.04,0.0605 0.05,0.0953c0.01,0.0347 0.013,0.071 0.009,0.1069c-0.005,0.0358 -0.016,0.0705 -0.034,0.1019c-0.024,0.0428 -0.059,0.0784 -0.102,0.1028c-0.043,0.0244 -0.092,0.0368 -0.142,0.0357z"/>
  <path id="svg_192" fill="white" d="m220.689,78.7206c-0.068,0.0074 -0.136,-0.0095 -0.192,-0.0478c-0.056,-0.0383 -0.096,-0.0952 -0.113,-0.1603c-0.016,-0.0651 -0.008,-0.1339 0.023,-0.1935c0.031,-0.0597 0.083,-0.1063 0.146,-0.1311c2.294,-1.225 4.047,-4.6871 4.063,-4.719c0.013,-0.0369 0.034,-0.0706 0.061,-0.099c0.027,-0.0284 0.06,-0.0508 0.097,-0.0657c0.037,-0.0149 0.076,-0.022 0.116,-0.0209c0.04,0.0012 0.078,0.0105 0.114,0.0275c0.036,0.0171 0.068,0.0413 0.093,0.0712c0.026,0.0299 0.044,0.0648 0.055,0.1023c0.011,0.0376 0.014,0.077 0.008,0.1156c-0.006,0.0387 -0.02,0.0757 -0.041,0.1087c-0.076,0.1491 -1.855,3.6538 -4.301,4.964c-0.038,0.0268 -0.083,0.0434 -0.129,0.048z"/>
 </g>
</svg>