<svg width="250" height="250" xmlns="http://www.w3.org/2000/svg">

 <g>
  <title>background</title>
  <rect fill="none" id="canvas_background" height="252" width="252" y="-1" x="-1"/>
 </g>
 <g>
  <title>Layer 1</title>
  <path id="svg_1" fill="#F5F5F5" d="m118.377,241.435c64.825,0 117.377,-30.7 117.377,-68.571c0,-37.871 -52.552,-68.571 -117.377,-68.571c-64.8256,0 -117.377,30.7 -117.377,68.571c0,37.871 52.5514,68.571 117.377,68.571z"/>
  <path id="svg_2" fill="#E0E0E0" d="m159.068,224.398c14.067,0 25.47,-6.484 25.47,-14.483c0,-7.999 -11.403,-14.483 -25.47,-14.483c-14.066,0 -25.469,6.484 -25.469,14.483c0,7.999 11.403,14.483 25.469,14.483z"/>
  <path id="svg_3" fill="#E0E0E0" d="m39.8289,210.948l1.448,0.821c0.3593,0.204 0.767,0.312 1.1819,0.312c0.4149,0 0.8226,-0.108 1.1819,-0.312l126.3203,-71.584c0.154,-0.089 0.282,-0.216 0.37,-0.368c0.089,-0.152 0.136,-0.325 0.136,-0.501c0,-0.175 -0.047,-0.348 -0.136,-0.5c-0.088,-0.153 -0.216,-0.28 -0.37,-0.369l-1.443,-0.821c-0.359,-0.204 -0.767,-0.312 -1.182,-0.312c-0.414,0 -0.822,0.108 -1.181,0.312l-126.3261,71.584c-0.1538,0.089 -0.2814,0.216 -0.3701,0.368c-0.0887,0.152 -0.1353,0.325 -0.1353,0.501c0,0.175 0.0466,0.348 0.1353,0.5c0.0887,0.153 0.2163,0.28 0.3701,0.369z"/>
  <path id="svg_4" fill="#E6E6E6" d="m84.0557,32.0395l-2.241,1.2695l0,-1.7481c0,-1.0075 -0.8442,-1.3702 -1.8777,-0.7808l-0.0768,0.0454c-0.4755,0.2802 -0.8839,0.6582 -1.1972,1.1082c-0.0563,-1.7127 -1.535,-2.2921 -3.3104,-1.2795l-0.1381,0.0806c-1.8215,1.0377 -3.3155,3.355 -3.3155,5.1484l0,3.0577l-2.0466,1.1788c-0.4475,0.2587 -0.8271,0.6173 -1.1079,1.047c-0.2809,0.4296 -0.4552,0.9183 -0.5089,1.4265c0,0.8614 0.7163,1.1586 1.5912,0.6599l2.7527,-1.5616l5.3927,-3.0629l6.0835,-3.4406c0.4414,-0.2654 0.8137,-0.6285 1.0873,-1.0606c0.2735,-0.432 0.4409,-0.921 0.4886,-1.428c0,-0.8614 -0.701,-1.1586 -1.5759,-0.6599z"/>
  <path id="svg_5" fill="#E6E6E6" d="m57.6392,33.0223l-3.4076,1.9344l0,-2.6598c0,-1.5516 -1.2842,-2.0855 -2.855,-1.1939l-0.1228,0.0705c-0.7213,0.4296 -1.3421,1.0048 -1.8214,1.6876c-0.087,-2.6094 -2.3178,-3.486 -5.0346,-1.9445l-0.2098,0.1209c-2.7783,1.5768 -5.05,5.103 -5.05,7.8384l0,4.6597l-3.1364,1.7883c-1.3302,0.7556 -2.4201,2.4482 -2.4201,3.763c0,1.3148 1.0899,1.7682 2.4201,1.0075l4.1904,-2.3777l8.1864,-4.6647l9.2403,-5.2541c1.3354,-0.7557 2.4252,-2.4483 2.4252,-3.7631c0,-1.3148 -1.0693,-1.7732 -2.4047,-1.0125z"/>
  <path id="svg_6" fill="#E62C38" d="m26.9098,75.0458l-3.7913,-2.146l-0.0358,0l0.9414,-2.5742l0.2558,-0.5038l1.581,-3.0225l-2.5582,-1.4307l-0.1689,-0.1007l-0.046,0c-0.701,-0.3224 -1.6271,-0.2368 -2.6504,0.3375c-0.9601,0.5826 -1.7791,1.3649 -2.3996,2.2921c-0.9356,1.2875 -1.4691,2.816 -1.5349,4.3978c0,1.1888 0.4195,2.015 1.0898,2.4482l1.0744,0.6045c-2.1898,2.0805 -3.7606,5.3196 -3.7555,8.0601l0,1.617l2.6555,1.5113l2.0773,-5.1333l-0.0972,-0.4131l3.1517,-1.7832l2.0466,-1.1788l0,-1.612c0,-0.1612 0,-0.3174 0,-0.4736c0.2456,0 0.481,-0.0403 0.5117,-0.0503c0.0307,-0.0101 1.6526,-0.8463 1.6526,-0.8463z"/>
  <path id="svg_7" fill="#E62C38" d="m14.9678,83.398l0,1.617l2.6554,1.5112l2.0773,-5.1332l-0.0972,-0.413l3.0954,-1.7732c-0.486,-1.4105 -0.9516,-2.7303 -0.9516,-2.7303l-2.6299,-1.4911c-2.3945,2.0149 -4.1545,5.4959 -4.1494,8.4126z"/>
  <path id="svg_8" fill="black" d="m26.9098,75.0458l-3.7913,-2.146l-0.0358,0l0.9414,-2.5742l0.2558,-0.5038l1.581,-3.0225l-2.5582,-1.4307l-0.1689,-0.1007l-0.046,0c-0.701,-0.3224 -1.6271,-0.2368 -2.6504,0.3375c-0.9601,0.5826 -1.7791,1.3649 -2.3996,2.2921c-0.9356,1.2875 -1.4691,2.816 -1.5349,4.3978c0,1.1888 0.4195,2.015 1.0898,2.4482l1.0744,0.6045c-2.1898,2.0805 -3.7606,5.3196 -3.7555,8.0601l0,1.617l2.6555,1.5113l2.0773,-5.1333l-0.0972,-0.4131l3.1517,-1.7832l2.0466,-1.1788l0,-1.612c0,-0.1612 0,-0.3174 0,-0.4736c0.2456,0 0.481,-0.0403 0.5117,-0.0503c0.0307,-0.0101 1.6526,-0.8463 1.6526,-0.8463z" opacity="0.4"/>
  <path id="svg_9" fill="#E62C38" d="m23.113,67.076c-1.1435,0.7314 -2.0952,1.7187 -2.7772,2.8814c-0.6821,1.1626 -1.0751,2.4676 -1.1471,3.8084c0,1.9142 1.0796,2.9368 2.5582,2.7152c-2.3894,2.0503 -4.1545,5.506 -4.1443,8.4277l0,1.6121l11.0618,-6.2869l0,-1.612c0,-2.9217 -1.7856,-4.3675 -4.175,-3.6975c1.494,-1.481 2.5582,-3.7177 2.5582,-5.6319c0.0051,-2.4583 -1.7601,-3.4507 -3.9346,-2.2165z"/>
  <path id="svg_10" fill="#E62C38" d="m186.216,58.0741l-2.497,-1.4207l0.619,-1.6976l0.169,-0.3275l1.023,-2.015l-1.662,-0.937l-0.113,-0.0655l-0.026,0c-0.287,-0.1066 -0.597,-0.1421 -0.902,-0.1035c-0.306,0.0387 -0.596,0.1503 -0.847,0.3251c-0.634,0.3833 -1.174,0.8993 -1.581,1.5113c-0.623,0.8459 -0.979,1.8532 -1.024,2.8967c-0.029,0.3072 0.021,0.6169 0.146,0.8997c0.125,0.2829 0.322,0.5298 0.571,0.7173l0.706,0.398c-1.481,1.4021 -2.366,3.3051 -2.477,5.3248l0,1.0629l1.75,1.0075l1.371,-3.3852l-0.066,-0.2721l2.046,-1.1687l1.367,-0.7758l0,-1.0629c0,-0.1058 0,-0.2116 0,-0.3124l0.342,-0.0302c0.082,-0.0201 1.085,-0.5692 1.085,-0.5692z"/>
  <path id="svg_11" fill="#E62C38" d="m178.342,63.58l0,1.0629l1.75,1.0075l1.371,-3.3852l-0.067,-0.272l2.047,-1.1687c-0.322,-0.927 -0.629,-1.7984 -0.629,-1.7984l-1.75,-1.0075c-1.566,1.35 -2.727,3.637 -2.722,5.5614z"/>
  <path id="svg_12" fill="black" d="m186.216,58.0741l-2.497,-1.4207l0.619,-1.6976l0.169,-0.3275l1.023,-2.015l-1.662,-0.937l-0.113,-0.0655l-0.026,0c-0.287,-0.1066 -0.597,-0.1421 -0.902,-0.1035c-0.306,0.0387 -0.596,0.1503 -0.847,0.3251c-0.634,0.3833 -1.174,0.8993 -1.581,1.5113c-0.623,0.8459 -0.979,1.8532 -1.024,2.8967c-0.029,0.3072 0.021,0.6169 0.146,0.8997c0.125,0.2829 0.322,0.5298 0.571,0.7173l0.706,0.398c-1.481,1.4021 -2.366,3.3051 -2.477,5.3248l0,1.0629l1.75,1.0075l1.371,-3.3852l-0.066,-0.2721l2.046,-1.1687l1.367,-0.7758l0,-1.0629c0,-0.1058 0,-0.2116 0,-0.3124l0.342,-0.0302c0.082,-0.0201 1.085,-0.5692 1.085,-0.5692z" opacity="0.4"/>
  <path id="svg_13" fill="#E62C38" d="m183.714,52.8202c-0.755,0.4819 -1.383,1.133 -1.833,1.9001c-0.45,0.767 -0.709,1.6281 -0.756,2.5128c0,1.2644 0.712,1.9394 1.699,1.7933c-1.576,1.3501 -2.737,3.6321 -2.732,5.5413l0,1.0629l7.291,-4.1459l0,-1.0629c0,-1.9294 -1.177,-2.8815 -2.758,-2.4382c1.009,-0.9894 1.609,-2.3124 1.683,-3.7126c0,-1.612 -1.161,-2.2669 -2.594,-1.4508z"/>
  <path id="svg_14" fill="#E62C38" d="m202.037,153.389l1.294,0.574l0.486,0.217l1.09,0.504c0,0 0.21,-7.103 2.471,-12.322c2.262,-5.219 6.289,-10.075 6.979,-13.007c0.691,-2.932 -1.581,-4.03 -1.581,-4.03c-4.799,-1.798 -9.455,5.073 -10.744,10.795c-1.29,5.723 0.005,17.269 0.005,17.269z"/>
  <path id="svg_15" fill="black" d="m202.037,153.389l1.294,0.574l0.486,0.217l1.09,0.504c0,0 0.21,-7.103 2.471,-12.322c2.262,-5.219 6.289,-10.075 6.979,-13.007c0.691,-2.932 -1.581,-4.03 -1.581,-4.03c-4.799,-1.798 -9.455,5.073 -10.744,10.795c-1.29,5.723 0.005,17.269 0.005,17.269z" opacity="0.4"/>
  <path id="svg_16" fill="white" d="m203.311,153.963l0.486,0.217c-1.024,-19.923 7.946,-26.986 8.038,-27.056c0.025,-0.019 0.046,-0.042 0.062,-0.069c0.016,-0.026 0.026,-0.056 0.03,-0.086c0.004,-0.031 0.001,-0.062 -0.008,-0.092c-0.008,-0.03 -0.023,-0.057 -0.043,-0.081c-0.019,-0.025 -0.042,-0.046 -0.07,-0.061c-0.027,-0.016 -0.057,-0.026 -0.088,-0.03c-0.031,-0.003 -0.063,-0.001 -0.093,0.008c-0.03,0.008 -0.058,0.023 -0.082,0.043c-0.046,0.07 -9.158,7.198 -8.232,27.207z"/>
  <path id="svg_17" fill="#E62C38" d="m200.712,150.19c-0.077,1.829 1.923,5.113 1.923,5.113l3.434,2.393l0.45,0.318l5.024,3.501c0.802,-0.054 1.575,-0.315 2.24,-0.757c0.666,-0.442 1.201,-1.05 1.552,-1.762c1.335,-2.519 -0.594,-5.259 -0.036,-7.012c0.557,-1.753 3.965,-2.262 3.822,-4.312c-0.144,-2.051 -3.531,-4.282 -3.019,-6.106c0.512,-1.824 1.673,-2.544 2.047,-4.03c0.09,-0.265 0.121,-0.546 0.091,-0.823c-0.031,-0.278 -0.122,-0.546 -0.268,-0.785c-0.146,-0.24 -0.343,-0.445 -0.578,-0.602c-0.234,-0.158 -0.501,-0.263 -0.78,-0.309c-1.152,-0.196 -2.63,0.061 -4.094,1.451c-1.463,1.39 -2.046,2.353 -3.719,2.756c-1.673,0.403 -3.413,0.146 -4.303,1.511c-0.89,1.365 0.148,4.166 -0.778,5.259c-0.926,1.093 -2.937,2.363 -3.008,4.196z"/>
  <path id="svg_18" fill="white" d="m206.068,157.696l0.451,0.318c0.268,-3.465 0.999,-6.88 2.174,-10.156c2.87,-0.851 6.749,-0.504 6.785,-0.504c0.033,0.007 0.067,0.007 0.1,0c0.033,-0.007 0.064,-0.021 0.091,-0.041c0.028,-0.02 0.05,-0.045 0.067,-0.074c0.017,-0.029 0.027,-0.061 0.03,-0.094c0.003,-0.033 0,-0.066 -0.011,-0.098c-0.011,-0.031 -0.028,-0.06 -0.051,-0.085c-0.023,-0.024 -0.051,-0.044 -0.082,-0.057c-0.031,-0.013 -0.065,-0.02 -0.098,-0.019c-0.159,0 -3.73,-0.323 -6.652,0.428c2.681,-7.083 6.539,-10.579 6.6,-10.644c0.045,-0.044 0.069,-0.103 0.069,-0.164c0,-0.062 -0.024,-0.12 -0.069,-0.164c-0.045,-0.044 -0.107,-0.069 -0.171,-0.069c-0.064,0 -0.125,0.025 -0.171,0.069c-0.057,0.05 -4.129,3.753 -6.862,11.194c-0.029,0.043 -0.045,0.094 -0.046,0.146c-1.149,3.234 -1.873,6.599 -2.154,10.014z"/>
  <path id="svg_19" fill="#E62C38" d="m24.7868,164.3l-1.2945,0.575l-0.486,0.216l-1.0949,0.479c0,0 -0.2098,-7.103 -2.4713,-12.327c-2.2615,-5.224 -6.2881,-10.075 -6.9738,-13.007c-0.6856,-2.932 1.5759,-4.03 1.5759,-4.03c4.7993,-1.798 9.4553,5.068 10.7446,10.79c1.2894,5.723 0,17.304 0,17.304z"/>
  <path id="svg_20" fill="black" d="m24.7868,164.3l-1.2945,0.575l-0.486,0.216l-1.0949,0.479c0,0 -0.2098,-7.103 -2.4713,-12.327c-2.2615,-5.224 -6.2881,-10.075 -6.9738,-13.007c-0.6856,-2.932 1.5759,-4.03 1.5759,-4.03c4.7993,-1.798 9.4553,5.068 10.7446,10.79c1.2894,5.723 0,17.304 0,17.304z" opacity="0.4"/>
  <path id="svg_21" fill="white" d="m23.4926,164.875l-0.4861,0.217c1.0233,-19.929 -7.9458,-26.987 -8.0431,-27.057c-0.0425,-0.041 -0.0683,-0.095 -0.0726,-0.153c-0.0043,-0.058 0.0132,-0.116 0.0493,-0.162c0.0361,-0.046 0.0881,-0.077 0.1462,-0.088c0.0581,-0.011 0.1182,0 0.1688,0.03c0.0972,0.071 9.1789,7.199 8.2375,27.213z"/>
  <path id="svg_22" fill="#E62C38" d="m25.8511,161.041c0.0768,1.834 -1.9289,5.118 -1.9289,5.118l-3.428,2.388l-0.4554,0.317l-5.0141,3.501c-0.8014,-0.053 -1.5743,-0.314 -2.2401,-0.757c-0.6659,-0.442 -1.201,-1.05 -1.5512,-1.762c-1.33536,-2.518 0.5935,-5.259 0.0358,-7.017c-0.55765,-1.758 -3.9652,-2.262 -3.82194,-4.307c0.14326,-2.045 3.52523,-4.277 3.00847,-6.105c-0.51676,-1.829 -1.67308,-2.519 -2.04658,-4.03c-0.08703,-0.264 -0.11538,-0.542 -0.08311,-0.817c0.03227,-0.275 0.12439,-0.54 0.27009,-0.777c0.1457,-0.236 0.34155,-0.439 0.57417,-0.595c0.23262,-0.155 0.49656,-0.259 0.77379,-0.305c1.15121,-0.201 2.62981,0.055 4.09311,1.451c1.4633,1.395 2.0466,2.347 3.7197,2.75c1.6731,0.403 3.4127,0.146 4.3029,1.512c0.8903,1.365 -0.1483,4.171 0.7777,5.264c0.9261,1.093 2.9318,2.342 3.0136,4.171z"/>
  <path id="svg_23" fill="white" d="m20.4939,168.547l-0.4554,0.317c-0.2675,-3.464 -0.9969,-6.878 -2.1694,-10.155c-2.8703,-0.846 -6.7486,-0.504 -6.7844,-0.504c-0.031,0.004 -0.0623,0.001 -0.09221,-0.008c-0.02992,-0.008 -0.05782,-0.022 -0.08209,-0.042c-0.02427,-0.019 -0.04443,-0.043 -0.05931,-0.069c-0.01487,-0.027 -0.02417,-0.057 -0.02735,-0.087c-0.00572,-0.063 0.01363,-0.124 0.05386,-0.172c0.04023,-0.048 0.09808,-0.079 0.161,-0.085c2.2262,-0.186 4.468,-0.043 6.6515,0.423c-2.6811,-7.078 -6.544,-10.579 -6.6003,-10.639c-0.0441,-0.044 -0.0688,-0.103 -0.0688,-0.164c0,-0.062 0.0247,-0.12 0.0688,-0.164c0.0224,-0.022 0.0491,-0.04 0.0785,-0.052c0.0294,-0.012 0.061,-0.019 0.0929,-0.019c0.0319,0 0.0635,0.007 0.0929,0.019c0.0294,0.012 0.0561,0.03 0.0785,0.052c0.0563,0.051 4.129,3.753 6.8612,11.193c0.0304,0.043 0.0465,0.094 0.0461,0.147c1.1492,3.232 1.8731,6.596 2.154,10.009z"/>
  <path id="svg_24" fill="#E62C38" d="m171.491,15.70294l-4.047,-2.30215c-0.287,-0.22385 -0.636,-0.35709 -1.001,-0.38226c-0.365,-0.02517 -0.73,0.0589 -1.046,0.24121l-125.0409,70.86796c-0.8189,0.4631 -1.499,1.1309 -1.9716,1.9359c-0.4725,0.805 -0.7208,1.7185 -0.7197,2.6483l0,109.1381c-0.0016,0.344 0.0974,0.682 0.2852,0.972c0.1878,0.29 0.4564,0.521 0.7739,0.665l3.9806,2.262l0.9261,-4.156l121.8184,-69.039c0.817,-0.465 1.496,-1.133 1.968,-1.938c0.473,-0.804 0.722,-1.717 0.723,-2.646l0,-106.84648l3.351,-1.42058z"/>
  <path id="svg_25" fill="white" d="m171.491,15.70294l-4.047,-2.30215c-0.287,-0.22385 -0.636,-0.35709 -1.001,-0.38226c-0.365,-0.02517 -0.73,0.0589 -1.046,0.24121l-125.0409,70.86796c-0.8189,0.4631 -1.499,1.1309 -1.9716,1.9359c-0.4725,0.805 -0.7208,1.7185 -0.7197,2.6483l0,109.1381c-0.0016,0.344 0.0974,0.682 0.2852,0.972c0.1878,0.29 0.4564,0.521 0.7739,0.665l3.9806,2.262l0.9261,-4.156l121.8184,-69.039c0.817,-0.465 1.496,-1.133 1.968,-1.938c0.473,-0.804 0.722,-1.717 0.723,-2.646l0,-106.84648l3.351,-1.42058z" opacity="0.7"/>
  <path id="svg_26" fill="#E62C38" d="m44.2548,89.2709l0,107.9641l-0.6242,0.358l-0.9261,4.156l-3.9806,-2.262c-0.3169,-0.144 -0.5854,-0.374 -0.7739,-0.663c-0.1886,-0.289 -0.2893,-0.625 -0.2903,-0.969l0,-109.1483c0.0003,-0.9669 0.2712,-1.915 0.7828,-2.7404l5.8123,3.3046z"/>
  <path id="svg_27" fill="#FAFAFA" d="m172.187,17.10858l0,109.14342c0,0.93 -0.249,1.844 -0.723,2.649c-0.473,0.804 -1.154,1.472 -1.973,1.935l-112.7058,63.871l-12.3409,6.992c-0.2778,0.16 -0.5935,0.244 -0.9152,0.245c-0.3217,0.001 -0.6379,-0.081 -0.9167,-0.239c-0.2789,-0.158 -0.5104,-0.386 -0.6711,-0.66c-0.1608,-0.275 -0.2451,-0.586 -0.2445,-0.903l0,-109.1429c-0.0011,-0.9298 0.2471,-1.8433 0.7197,-2.6483c0.4726,-0.8049 1.1527,-1.4727 1.9715,-1.9358l12.3972,-7.0224l112.6488,-63.85069c0.279,-0.15976 0.596,-0.24412 0.919,-0.24455c0.323,-0.00042 0.64,0.08309 0.919,0.2421c0.28,0.15901 0.511,0.38787 0.672,0.66341c0.161,0.27554 0.245,0.58799 0.243,0.90571z"/>
  <path id="svg_28" fill="#37474F" d="m170.35,15.6825c0.385,0 0.754,0.15004 1.026,0.41725c0.272,0.26721 0.426,0.62981 0.427,1.00837l0,109.14288c-0.001,0.863 -0.233,1.711 -0.673,2.458c-0.439,0.747 -1.069,1.367 -1.829,1.799l-112.7102,63.866l-12.3409,7.002c-0.2198,0.126 -0.4695,0.193 -0.7238,0.193c-0.2544,0.001 -0.5044,-0.065 -0.7246,-0.19c-0.2203,-0.126 -0.403,-0.306 -0.5296,-0.523c-0.1266,-0.217 -0.1926,-0.464 -0.1914,-0.714l0,-109.1434c0.0008,-0.8633 0.2324,-1.7112 0.6716,-2.4585c0.4392,-0.7472 1.0705,-1.3674 1.8304,-1.7982l12.3972,-7.0223l112.6493,-63.84064c0.218,-0.12841 0.467,-0.1963 0.721,-0.19646zm0,-0.37781c-0.322,-0.00011 -0.638,0.08515 -0.916,0.24684l-112.6488,63.84067l-12.3972,7.0223c-0.8188,0.4631 -1.4989,1.1309 -1.9715,1.9358c-0.4726,0.805 -0.7208,1.7186 -0.7197,2.6483l0,109.1434c0,0.478 0.193,0.937 0.5365,1.275c0.3435,0.338 0.8094,0.528 1.2952,0.528c0.3222,0 0.6386,-0.085 0.9158,-0.247l12.3409,-6.992l112.7058,-63.871c0.819,-0.462 1.5,-1.13 1.973,-1.935c0.474,-0.805 0.723,-1.719 0.723,-2.649l0,-109.14288c-0.001,-0.47876 -0.195,-0.93746 -0.54,-1.27552c-0.344,-0.33807 -0.81,-0.52791 -1.297,-0.52791z"/>
  <path id="svg_29" fill="#37474F" d="m56.7852,79.3926l0,115.3144l-12.3409,6.992c-0.2778,0.16 -0.5935,0.244 -0.9152,0.245c-0.3217,0.001 -0.6379,-0.081 -0.9167,-0.239c-0.2789,-0.158 -0.5104,-0.386 -0.6711,-0.66c-0.1608,-0.275 -0.2451,-0.586 -0.2445,-0.903l0,-109.1429c-0.0011,-0.9298 0.2471,-1.8434 0.7197,-2.6483c0.4726,-0.805 1.1527,-1.4728 1.9715,-1.9359l12.3972,-7.0223z"/>
  <path id="svg_30" fill="#E62C38" d="m49.4072,94.4598l-4.5486,0.1007c-0.1279,0 -0.1279,-0.1763 0,-0.3224l4.5486,-5.0677c0.0449,-0.0577 0.1111,-0.0957 0.1842,-0.1058l4.5486,-0.1007c0.133,0 0.133,0.1763 0,0.3224l-4.5486,5.0677c-0.0449,0.0577 -0.1111,0.0957 -0.1842,0.1058z"/>
  <path id="svg_31" fill="#E62C38" d="m54.1399,92.2934l-4.5434,5.0375c-0.0217,0.0302 -0.0499,0.0554 -0.0827,0.0737c-0.0327,0.0183 -0.0691,0.0292 -0.1066,0.0321l-4.5486,0.1108c-0.1279,0 -0.1279,-0.1814 0,-0.3274l1.535,-1.7027c0.0403,-0.0435 0.0893,-0.0785 0.1438,-0.1027c0.0546,-0.0243 0.1136,-0.0373 0.1734,-0.0384l2.7066,-0.0554c0.0731,-0.0141 0.1396,-0.0512 0.1893,-0.1058l2.7732,-3.098c0.0401,-0.0442 0.0889,-0.08 0.1434,-0.1051c0.0545,-0.0251 0.1136,-0.039 0.1738,-0.041l1.4531,-0.0252c0.1279,0.0202 0.1279,0.1965 -0.0103,0.3476z"/>
  <path id="svg_32" fill="#E62C38" d="m54.1399,95.331l-4.5434,5.0375c-0.0199,0.0319 -0.0477,0.0584 -0.0808,0.0769c-0.0331,0.0185 -0.0704,0.0284 -0.1085,0.0289l-4.5486,0.1108c-0.1279,0 -0.1279,-0.1763 0,-0.3275l1.535,-1.6976c0.0401,-0.0442 0.0889,-0.0799 0.1434,-0.105c0.0545,-0.0251 0.1136,-0.0391 0.1738,-0.0411l2.7066,-0.0503c0.0727,-0.0183 0.1384,-0.0567 0.1893,-0.1109l2.7732,-3.098c0.0395,-0.0445 0.0883,-0.0801 0.143,-0.1045c0.0548,-0.0243 0.1141,-0.0368 0.1742,-0.0366l1.4531,-0.0302c0.1279,0.0151 0.1279,0.1914 -0.0103,0.3476z"/>
  <path id="svg_33" fill="#37474F" d="m88.727,174.169c-0.0507,-0.002 -0.0988,-0.022 -0.1342,-0.058c-0.0353,-0.036 -0.0551,-0.084 -0.0551,-0.134l0,-110.614c-0.0045,-0.0274 -0.003,-0.0554 0.0045,-0.0822c0.0076,-0.0267 0.021,-0.0515 0.0392,-0.0727c0.0183,-0.0211 0.041,-0.0381 0.0665,-0.0498c0.0256,-0.0116 0.0535,-0.0177 0.0817,-0.0177c0.0281,0 0.056,0.0061 0.0816,0.0177c0.0256,0.0117 0.0483,0.0287 0.0665,0.0498c0.0183,0.0212 0.0316,0.046 0.0392,0.0727c0.0075,0.0268 0.009,0.0548 0.0045,0.0822l0,110.614c0,0.051 -0.0205,0.1 -0.0569,0.135c-0.0365,0.036 -0.0859,0.057 -0.1375,0.057z"/>
  <path id="svg_34" fill="#37474F" d="m85.7391,167.952l0,0.282c0.0001,0.08 -0.0212,0.158 -0.0616,0.227c-0.0404,0.069 -0.0986,0.127 -0.1686,0.166l-10.6781,6.045c-0.0241,0.014 -0.0512,0.02 -0.0788,0.02c-0.0275,0 -0.0545,-0.008 -0.0782,-0.022c-0.0238,-0.013 -0.0435,-0.033 -0.0572,-0.056c-0.0137,-0.024 -0.021,-0.051 -0.0211,-0.078l0,-0.277c0.0009,-0.079 0.0226,-0.157 0.0629,-0.226c0.0403,-0.069 0.0979,-0.126 0.1673,-0.167l10.6781,-6.045c0.0237,-0.013 0.0504,-0.019 0.0775,-0.019c0.0271,0 0.0538,0.007 0.0774,0.02c0.0236,0.013 0.0434,0.032 0.0575,0.055c0.014,0.023 0.022,0.049 0.0229,0.075z"/>
  <path id="svg_35" fill="#E0E0E0" d="m85.7391,170.008l0,0.277c0.0001,0.079 -0.0212,0.158 -0.0616,0.226c-0.0404,0.069 -0.0986,0.127 -0.1686,0.167l-10.6781,6.045c-0.0237,0.013 -0.0504,0.019 -0.0775,0.019c-0.0271,0 -0.0538,-0.007 -0.0774,-0.02c-0.0236,-0.013 -0.0434,-0.032 -0.0575,-0.055c-0.0141,-0.023 -0.022,-0.049 -0.0229,-0.075l0,-0.282c0.0009,-0.08 0.0226,-0.158 0.0629,-0.227c0.0403,-0.068 0.0979,-0.126 0.1673,-0.166l10.6781,-6.045c0.0241,-0.014 0.0512,-0.02 0.0788,-0.02c0.0275,0 0.0545,0.008 0.0782,0.022c0.0238,0.013 0.0435,0.033 0.0572,0.056c0.0137,0.024 0.021,0.05 0.0211,0.078z"/>
  <path id="svg_36" fill="#E0E0E0" d="m80.4027,175.09l0,0.282c0,0.08 -0.0212,0.158 -0.0616,0.227c-0.0405,0.069 -0.0986,0.127 -0.1687,0.166l-5.3416,3.023c-0.0237,0.013 -0.0504,0.019 -0.0775,0.019c-0.0271,0 -0.0538,-0.007 -0.0774,-0.02c-0.0236,-0.013 -0.0434,-0.032 -0.0575,-0.055c-0.0141,-0.022 -0.022,-0.048 -0.0229,-0.075l0,-0.282c0.0009,-0.08 0.0226,-0.158 0.0629,-0.226c0.0403,-0.069 0.0979,-0.127 0.1673,-0.167l5.3416,-3.023c0.0235,-0.014 0.0505,-0.022 0.0782,-0.023c0.0277,-0.001 0.0551,0.006 0.0792,0.02c0.0242,0.013 0.0442,0.033 0.0579,0.056c0.0137,0.024 0.0207,0.051 0.0201,0.078z"/>
  <path id="svg_37" fill="#E62C38" d="m70.8368,182.898c3.0043,-3.944 3.6036,-8.497 1.3385,-10.17c-2.2651,-1.673 -6.5368,0.169 -9.5412,4.113c-3.0043,3.944 -3.6035,8.497 -1.3384,10.17c2.2651,1.672 6.5368,-0.169 9.5411,-4.113z"/>
  <path id="svg_38" fill="white" d="m70.8368,182.898c3.0043,-3.944 3.6036,-8.497 1.3385,-10.17c-2.2651,-1.673 -6.5368,0.169 -9.5412,4.113c-3.0043,3.944 -3.6035,8.497 -1.3384,10.17c2.2651,1.672 6.5368,-0.169 9.5411,-4.113z" opacity="0.7"/>
  <path id="svg_39" fill="#37474F" d="m63.2575,188.072c-0.6439,0.012 -1.2794,-0.145 -1.8419,-0.453c-1.1308,-0.645 -1.755,-1.924 -1.755,-3.612c0,-3.758 3.1006,-8.564 6.9124,-10.75c2.0465,-1.159 3.9908,-1.385 5.3466,-0.61c1.1359,0.645 1.7601,1.925 1.7601,3.612c0,3.758 -3.1006,8.564 -6.9123,10.75c-1.0571,0.647 -2.2663,1.013 -3.5099,1.063zm6.8202,-15.505c-1.1736,0.046 -2.3146,0.394 -3.3103,1.007c-3.7094,2.116 -6.7179,6.796 -6.7179,10.433c0,1.547 0.5526,2.71 1.5656,3.284c1.2331,0.706 3.0443,0.504 4.963,-0.609c3.7094,-2.106 6.723,-6.786 6.723,-10.423c0,-1.546 -0.5577,-2.71 -1.5657,-3.284c-0.5059,-0.279 -1.0781,-0.42 -1.6577,-0.408z"/>
  <path id="svg_40" fill="#E62C38" d="m72.6511,181.957c-0.0484,0.475 -0.2087,0.932 -0.468,1.335c-0.2594,0.403 -0.6107,0.741 -1.026,0.987c-0.8237,0.469 -1.494,0.187 -1.494,-0.624c0.0476,-0.476 0.2076,-0.933 0.467,-1.336c0.2594,-0.404 0.6112,-0.741 1.027,-0.987c0.8238,-0.468 1.494,-0.191 1.494,0.625z"/>
  <path id="svg_41" fill="#37474F" d="m85.7391,148.835l0,0.282c0.0001,0.08 -0.0212,0.158 -0.0616,0.227c-0.0404,0.069 -0.0986,0.126 -0.1686,0.166l-10.6781,6.045c-0.0241,0.013 -0.0512,0.02 -0.0788,0.02c-0.0275,-0.001 -0.0545,-0.008 -0.0782,-0.022c-0.0238,-0.014 -0.0435,-0.033 -0.0572,-0.057c-0.0137,-0.023 -0.021,-0.05 -0.0211,-0.077l0,-0.277c0.0009,-0.079 0.0226,-0.157 0.0629,-0.226c0.0403,-0.069 0.0979,-0.126 0.1673,-0.167l10.6781,-6.045c0.0237,-0.013 0.0504,-0.02 0.0775,-0.019c0.0271,0 0.0538,0.007 0.0774,0.02c0.0236,0.013 0.0434,0.032 0.0575,0.055c0.014,0.022 0.022,0.048 0.0229,0.075z"/>
  <path id="svg_42" fill="#E0E0E0" d="m85.7391,150.89l0,0.277c0.0001,0.08 -0.0212,0.158 -0.0616,0.227c-0.0404,0.069 -0.0986,0.126 -0.1686,0.166l-10.6781,6.045c-0.0237,0.013 -0.0504,0.02 -0.0775,0.02c-0.0271,-0.001 -0.0538,-0.008 -0.0774,-0.021c-0.0236,-0.013 -0.0434,-0.032 -0.0575,-0.055c-0.0141,-0.022 -0.022,-0.048 -0.0229,-0.075l0,-0.282c0.0009,-0.08 0.0226,-0.157 0.0629,-0.226c0.0403,-0.069 0.0979,-0.126 0.1673,-0.167l10.6781,-6.045c0.0241,-0.013 0.0512,-0.02 0.0788,-0.02c0.0275,0.001 0.0545,0.008 0.0782,0.022c0.0238,0.014 0.0435,0.033 0.0572,0.057c0.0137,0.023 0.021,0.05 0.0211,0.077z"/>
  <path id="svg_43" fill="#E0E0E0" d="m80.4027,155.973l0,0.282c0,0.08 -0.0212,0.158 -0.0616,0.227c-0.0405,0.069 -0.0986,0.126 -0.1687,0.166l-5.3416,3.023c-0.0237,0.013 -0.0504,0.019 -0.0775,0.019c-0.0271,0 -0.0538,-0.007 -0.0774,-0.02c-0.0236,-0.013 -0.0434,-0.032 -0.0575,-0.055c-0.0141,-0.023 -0.022,-0.049 -0.0229,-0.075l0,-0.282c0.0009,-0.08 0.0226,-0.158 0.0629,-0.227c0.0403,-0.068 0.0979,-0.126 0.1673,-0.166l5.3416,-3.023c0.0235,-0.014 0.0505,-0.022 0.0782,-0.023c0.0277,-0.001 0.0551,0.006 0.0792,0.019c0.0242,0.014 0.0442,0.033 0.0579,0.057c0.0137,0.024 0.0207,0.051 0.0201,0.078z"/>
  <path id="svg_44" fill="#E62C38" d="m70.8217,163.8c3.0043,-3.944 3.6035,-8.497 1.3384,-10.17c-2.2651,-1.672 -6.5368,0.169 -9.5411,4.113c-3.0043,3.944 -3.6036,8.497 -1.3385,10.17c2.2651,1.673 6.5369,-0.169 9.5412,-4.113z"/>
  <path id="svg_45" fill="white" d="m70.8217,163.8c3.0043,-3.944 3.6035,-8.497 1.3384,-10.17c-2.2651,-1.672 -6.5368,0.169 -9.5411,4.113c-3.0043,3.944 -3.6036,8.497 -1.3385,10.17c2.2651,1.673 6.5369,-0.169 9.5412,-4.113z" opacity="0.7"/>
  <path id="svg_46" fill="#37474F" d="m63.2575,168.955c-0.6439,0.012 -1.2794,-0.145 -1.8419,-0.453c-1.1308,-0.645 -1.755,-1.925 -1.755,-3.612c0,-3.758 3.1006,-8.564 6.9124,-10.75c2.0465,-1.164 3.9908,-1.386 5.3466,-0.61c1.1359,0.64 1.7601,1.924 1.7601,3.607c0,3.763 -3.1006,8.589 -6.9123,10.755c-1.0571,0.647 -2.2663,1.013 -3.5099,1.063zm6.8202,-15.506c-1.1736,0.047 -2.3146,0.394 -3.3103,1.008c-3.7094,2.136 -6.7179,6.791 -6.7179,10.433c0,1.546 0.5526,2.71 1.5656,3.284c1.2331,0.705 3.0443,0.504 4.963,-0.609c3.7094,-2.106 6.723,-6.786 6.723,-10.428c0,-1.542 -0.5577,-2.71 -1.5657,-3.279c-0.5059,-0.279 -1.0781,-0.42 -1.6577,-0.409z"/>
  <path id="svg_47" fill="#E62C38" d="m72.6511,162.839c-0.048,0.474 -0.2081,0.931 -0.4676,1.333c-0.2594,0.403 -0.6109,0.74 -1.0264,0.984c-0.8237,0.474 -1.494,0.192 -1.494,-0.619c0.0476,-0.475 0.2076,-0.933 0.467,-1.336c0.2594,-0.403 0.6112,-0.741 1.027,-0.987c0.8238,-0.468 1.494,-0.191 1.494,0.625z"/>
  <path id="svg_48" fill="#37474F" d="m85.7391,129.717l0,0.283c0.0001,0.079 -0.0212,0.157 -0.0616,0.226c-0.0404,0.069 -0.0986,0.127 -0.1686,0.166l-10.6781,6.045c-0.0241,0.014 -0.0512,0.02 -0.0788,0.02c-0.0275,0 -0.0545,-0.008 -0.0782,-0.022c-0.0238,-0.013 -0.0435,-0.033 -0.0572,-0.056c-0.0137,-0.024 -0.021,-0.05 -0.0211,-0.078l0,-0.277c0.0004,-0.079 0.0219,-0.157 0.0623,-0.226c0.0403,-0.069 0.0982,-0.126 0.1679,-0.167l10.6781,-6.045c0.0237,-0.012 0.0504,-0.019 0.0775,-0.019c0.0271,0 0.0538,0.007 0.0774,0.02c0.0236,0.013 0.0434,0.032 0.0575,0.055c0.014,0.023 0.022,0.049 0.0229,0.075z"/>
  <path id="svg_49" fill="#E0E0E0" d="m85.7391,131.768l0,0.282c0.0001,0.079 -0.0212,0.158 -0.0616,0.227c-0.0404,0.069 -0.0986,0.126 -0.1686,0.166l-10.6781,6.045c-0.0237,0.013 -0.0504,0.019 -0.0775,0.019c-0.0271,0 -0.0538,-0.007 -0.0774,-0.02c-0.0236,-0.013 -0.0434,-0.032 -0.0575,-0.055c-0.0141,-0.023 -0.022,-0.049 -0.0229,-0.075l0,-0.282c0.0009,-0.08 0.0226,-0.158 0.0629,-0.226c0.0403,-0.069 0.0979,-0.127 0.1673,-0.167l10.6781,-6.045c0.0237,-0.013 0.0504,-0.02 0.0775,-0.02c0.0271,0 0.0538,0.007 0.0774,0.02c0.0236,0.014 0.0434,0.032 0.0575,0.055c0.014,0.023 0.022,0.049 0.0229,0.076z"/>
  <path id="svg_50" fill="#E0E0E0" d="m80.4027,136.855l0,0.283c0,0.079 -0.0212,0.157 -0.0616,0.226c-0.0405,0.069 -0.0986,0.127 -0.1687,0.166l-5.3416,3.023c-0.0237,0.013 -0.0504,0.02 -0.0775,0.02c-0.0271,-0.001 -0.0538,-0.008 -0.0774,-0.021c-0.0236,-0.013 -0.0434,-0.032 -0.0575,-0.055c-0.0141,-0.022 -0.022,-0.048 -0.0229,-0.075l0,-0.282c0.0009,-0.08 0.0226,-0.157 0.0629,-0.226c0.0403,-0.069 0.0979,-0.126 0.1673,-0.167l5.3416,-3.023c0.0235,-0.014 0.0505,-0.022 0.0782,-0.023c0.0277,0 0.0551,0.006 0.0792,0.02c0.0242,0.013 0.0442,0.033 0.0579,0.056c0.0137,0.024 0.0207,0.051 0.0201,0.078z"/>
  <path id="svg_51" fill="#E62C38" d="m70.8064,144.708c3.0043,-3.944 3.6036,-8.497 1.3384,-10.169c-2.2651,-1.673 -6.5368,0.168 -9.5411,4.112c-3.0044,3.944 -3.6036,8.497 -1.3385,10.17c2.2651,1.673 6.5368,-0.169 9.5412,-4.113z"/>
  <path id="svg_52" fill="white" d="m70.8064,144.708c3.0043,-3.944 3.6036,-8.497 1.3384,-10.169c-2.2651,-1.673 -6.5368,0.168 -9.5411,4.112c-3.0044,3.944 -3.6036,8.497 -1.3385,10.17c2.2651,1.673 6.5368,-0.169 9.5412,-4.113z" opacity="0.7"/>
  <path id="svg_53" fill="#37474F" d="m63.2575,149.837c-0.6439,0.012 -1.2794,-0.145 -1.8419,-0.453c-1.1308,-0.645 -1.755,-1.924 -1.755,-3.612c0,-3.763 3.1006,-8.564 6.9124,-10.75c2.0465,-1.164 3.9908,-1.385 5.3466,-0.61c1.1359,0.64 1.7601,1.925 1.7601,3.607c0,3.763 -3.1006,8.589 -6.9123,10.755c-1.0571,0.647 -2.2663,1.013 -3.5099,1.063zm6.8202,-15.505c-1.1736,0.046 -2.3146,0.394 -3.3103,1.007c-3.7094,2.111 -6.7179,6.791 -6.7179,10.433c0,1.547 0.5526,2.71 1.5656,3.284c1.2331,0.706 3.0443,0.504 4.963,-0.609c3.7094,-2.106 6.723,-6.786 6.723,-10.428c0,-1.541 -0.5577,-2.71 -1.5657,-3.284c-0.5072,-0.275 -1.0788,-0.414 -1.6577,-0.403z"/>
  <path id="svg_54" fill="#E62C38" d="m72.6511,143.721c-0.048,0.475 -0.2081,0.931 -0.4676,1.334c-0.2594,0.402 -0.6109,0.739 -1.0264,0.984c-0.8237,0.473 -1.494,0.191 -1.494,-0.62c0.0476,-0.475 0.2076,-0.932 0.467,-1.336c0.2594,-0.403 0.6112,-0.741 1.027,-0.986c0.8238,-0.469 1.494,-0.192 1.494,0.624z"/>
  <path id="svg_55" fill="#37474F" d="m85.7391,110.5997l0,0.2822c0.0001,0.0796 -0.0212,0.1578 -0.0616,0.2268c-0.0404,0.069 -0.0986,0.1263 -0.1686,0.1661l-10.6781,6.0452c-0.0241,0.013 -0.0512,0.02 -0.0788,0.019c-0.0275,0 -0.0545,-0.007 -0.0782,-0.021c-0.0238,-0.014 -0.0435,-0.033 -0.0572,-0.057c-0.0137,-0.023 -0.021,-0.05 -0.0211,-0.077l0,-0.277c0.0004,-0.08 0.0219,-0.158 0.0623,-0.227c0.0403,-0.069 0.0982,-0.126 0.1679,-0.166l10.6781,-6.0452c0.0237,-0.013 0.0504,-0.0197 0.0775,-0.0196c0.0271,0.0001 0.0538,0.0071 0.0774,0.0202c0.0236,0.0132 0.0434,0.0321 0.0575,0.0549c0.014,0.0228 0.022,0.0488 0.0229,0.0754z"/>
  <path id="svg_56" fill="#E0E0E0" d="m85.7391,112.6505l0,0.2821c0.0001,0.0794 -0.0212,0.1584 -0.0616,0.2264c-0.0404,0.069 -0.0986,0.127 -0.1686,0.167l-10.6781,6.045c-0.0241,0.013 -0.0512,0.019 -0.0788,0.019c-0.0275,0 -0.0545,-0.008 -0.0782,-0.021c-0.0238,-0.014 -0.0435,-0.034 -0.0572,-0.057c-0.0137,-0.024 -0.021,-0.05 -0.0211,-0.077l0,-0.278c0.0009,-0.079 0.0226,-0.157 0.0629,-0.226c0.0403,-0.068 0.0979,-0.126 0.1673,-0.166l10.6781,-6.0455c0.0237,-0.0129 0.0504,-0.0196 0.0775,-0.0195c0.0271,0.0001 0.0538,0.0071 0.0774,0.0202c0.0236,0.0131 0.0434,0.032 0.0575,0.0548c0.014,0.0229 0.022,0.0488 0.0229,0.0755z"/>
  <path id="svg_57" fill="#E0E0E0" d="m80.4027,117.738l0,0.282c0,0.08 -0.0212,0.158 -0.0616,0.227c-0.0405,0.069 -0.0986,0.126 -0.1687,0.166l-5.3416,3.023c-0.0237,0.013 -0.0504,0.019 -0.0775,0.019c-0.0271,0 -0.0538,-0.007 -0.0774,-0.02c-0.0236,-0.013 -0.0434,-0.032 -0.0575,-0.055c-0.0141,-0.023 -0.022,-0.049 -0.0229,-0.075l0,-0.282c0.0009,-0.08 0.0226,-0.158 0.0629,-0.226c0.0403,-0.069 0.0979,-0.127 0.1673,-0.167l5.3416,-3.023c0.0235,-0.014 0.0505,-0.022 0.0782,-0.023c0.0277,-0.001 0.0551,0.006 0.0792,0.02c0.0242,0.013 0.0442,0.033 0.0579,0.056c0.0137,0.024 0.0207,0.051 0.0201,0.078z"/>
  <path id="svg_58" fill="#E62C38" d="m70.7908,125.611c3.0043,-3.944 3.6036,-8.497 1.3384,-10.17c-2.2651,-1.673 -6.5368,0.169 -9.5412,4.113c-3.0043,3.944 -3.6036,8.497 -1.3384,10.169c2.2651,1.673 6.5368,-0.168 9.5412,-4.112z"/>
  <path id="svg_59" fill="white" d="m70.7908,125.611c3.0043,-3.944 3.6036,-8.497 1.3384,-10.17c-2.2651,-1.673 -6.5368,0.169 -9.5412,4.113c-3.0043,3.944 -3.6036,8.497 -1.3384,10.169c2.2651,1.673 6.5368,-0.168 9.5412,-4.112z" opacity="0.7"/>
  <path id="svg_60" fill="#37474F" d="m63.2575,130.72c-0.6439,0.011 -1.2794,-0.145 -1.8419,-0.454c-1.1308,-0.644 -1.755,-1.924 -1.755,-3.611c0,-3.763 3.1006,-8.564 6.9124,-10.751c2.0465,-1.163 3.9908,-1.385 5.3466,-0.614c1.1359,0.645 1.7601,1.929 1.7601,3.612c0,3.763 -3.1006,8.564 -6.9123,10.755c-1.0571,0.647 -2.2663,1.013 -3.5099,1.063zm6.8202,-15.506c-1.1736,0.047 -2.3146,0.394 -3.3103,1.008c-3.7094,2.105 -6.723,6.78 -6.723,10.422c0,1.547 0.5526,2.711 1.5656,3.285c1.2331,0.705 3.0443,0.504 4.963,-0.61c3.7094,-2.105 6.723,-6.785 6.723,-10.427c0,-1.542 -0.5577,-2.711 -1.5657,-3.285c-0.5067,-0.27 -1.0764,-0.406 -1.6526,-0.393z"/>
  <path id="svg_61" fill="#E62C38" d="m72.6511,124.604c-0.048,0.475 -0.2081,0.931 -0.4676,1.334c-0.2594,0.402 -0.6109,0.739 -1.0264,0.984c-0.8237,0.468 -1.494,0.191 -1.494,-0.62c0.0476,-0.475 0.2076,-0.933 0.467,-1.336c0.2594,-0.403 0.6112,-0.741 1.027,-0.986c0.8238,-0.469 1.494,-0.192 1.494,0.624z"/>
  <path id="svg_62" fill="#E62C38" d="m79.0167,94.1915c5.2843,-6.917 6.3462,-14.9104 2.3717,-17.8538c-3.9744,-2.9434 -11.4802,0.2778 -16.7646,7.1947c-5.2843,6.917 -6.3462,14.9104 -2.3717,17.8538c3.9744,2.9434 11.4802,-0.2778 16.7646,-7.1947z"/>
  <path id="svg_63" fill="white" d="m79.0167,94.1915c5.2843,-6.917 6.3462,-14.9104 2.3717,-17.8538c-3.9744,-2.9434 -11.4802,0.2778 -16.7646,7.1947c-5.2843,6.917 -6.3462,14.9104 -2.3717,17.8538c3.9744,2.9434 11.4802,-0.2778 16.7646,-7.1947z" opacity="0.7"/>
  <path id="svg_64" fill="#E62C38" d="m78.0491,95.3914c-0.9568,-1.6271 -3.4588,-3.2693 -3.4588,-3.2693l-1.7191,0.3375l-3.9858,0.7607l-1.8726,0.5037c-2.1796,1.6977 -0.5117,7.7629 -0.2098,8.6948c1.7777,-0.2477 3.4855,-0.8493 5.0193,-1.7682c2.3655,-1.39 4.4715,-3.1688 6.2268,-5.2592z"/>
  <path id="svg_65" fill="black" d="m78.0491,95.3914c-0.9568,-1.6271 -3.4588,-3.2693 -3.4588,-3.2693l-1.7191,0.3375l-3.9858,0.7607l-1.8726,0.5037c-2.1796,1.6977 -0.5117,7.7629 -0.2098,8.6948c1.7777,-0.2477 3.4855,-0.8493 5.0193,-1.7682c2.3655,-1.39 4.4715,-3.1688 6.2268,-5.2592z" opacity="0.2"/>
  <path id="svg_66" fill="#FFA8A7" d="m74.5904,94.3639c0,0.4685 -0.9977,1.2292 -2.9676,0.665c-1.1,-0.2702 -2.0699,-0.9098 -2.7424,-1.8085l0,-1.6624l0.0358,-2.7152l3.9551,0.9017l0,2.7152c0.6702,0.403 1.7345,1.4357 1.7191,1.9042z"/>
  <path id="svg_67" fill="#F28F8F" d="m72.8713,90.3594l0,1.3047c-0.8616,-0.2201 -1.6943,-0.5379 -2.4814,-0.9471c-0.4735,-0.3177 -0.8108,-0.7968 -0.9465,-1.3449l3.4279,0.9873z"/>
  <path id="svg_68" fill="#FFA8A7" d="m76.7906,85.7401c0.0826,1.2284 -0.0051,2.4622 -0.261,3.6673c-0.4144,1.34 -0.9926,1.9646 -2.3587,1.8286c-1.0932,-0.1222 -2.1723,-0.3448 -3.2234,-0.6649c-0.5896,-0.1613 -1.0946,-0.5378 -1.4121,-1.0529c-0.1515,-0.2685 -0.3632,-0.4994 -0.6191,-0.675l-0.8801,0.5995c-0.5618,-0.3687 -1.0408,-0.847 -1.407,-1.4055c-0.4144,-0.7607 -0.133,-3.5263 -0.133,-3.5263l6.2012,-2.156c0,0 3.1722,-0.6398 3.2336,-0.6297c0.3287,0.147 0.5974,0.3991 0.7623,0.7153c0.174,0.4131 0.6038,1.1385 0.5117,1.2947c-0.0921,0.1561 -0.4144,2.0049 -0.4144,2.0049z"/>
  <path id="svg_69" fill="#263238" d="m73.3521,86.6667c0,0.0677 -0.0204,0.1339 -0.0587,0.1903c-0.0382,0.0563 -0.0925,0.1002 -0.1561,0.1261c-0.0636,0.0259 -0.1335,0.0327 -0.201,0.0195c-0.0675,-0.0132 -0.1295,-0.0459 -0.1781,-0.0937c-0.0487,-0.0479 -0.0818,-0.109 -0.0953,-0.1754c-0.0134,-0.0664 -0.0065,-0.1353 0.0198,-0.1979c0.0264,-0.0625 0.071,-0.116 0.1282,-0.1537c0.0572,-0.0376 0.1244,-0.0577 0.1933,-0.0577c0.0922,0 0.1807,0.0361 0.246,0.1003c0.0652,0.0643 0.1019,0.1514 0.1019,0.2422z"/>
  <path id="svg_70" fill="#263238" d="m76.2172,86.41c0.0011,0.0689 -0.0188,0.1366 -0.0569,0.1944c-0.0382,0.0578 -0.093,0.1032 -0.1574,0.1302c-0.0644,0.0271 -0.1356,0.0347 -0.2044,0.0219c-0.0688,-0.0128 -0.1322,-0.0455 -0.182,-0.0939c-0.0499,-0.0484 -0.0841,-0.1104 -0.0981,-0.1779c-0.014,-0.0676 -0.0074,-0.1377 0.0192,-0.2015c0.0266,-0.0638 0.0718,-0.1184 0.13,-0.1568c0.0581,-0.0385 0.1266,-0.059 0.1966,-0.059c0.0461,-0.0006 0.0919,0.0077 0.1347,0.0246c0.0428,0.0169 0.0818,0.0421 0.1146,0.074c0.0329,0.0318 0.059,0.0698 0.0768,0.1117c0.0178,0.0419 0.027,0.0868 0.0269,0.1323z"/>
  <path id="svg_71" fill="#263238" d="m75.5776,85.0599l0.8289,0.3526c0,0 0.1689,-0.403 -0.1893,-0.5541c-0.1134,-0.048 -0.2405,-0.0541 -0.3581,-0.0171c-0.1175,0.0371 -0.2175,0.1147 -0.2815,0.2186z"/>
  <path id="svg_72" fill="#F28F8F" d="m74.4675,86.2231l0.2712,2.1663l1.1257,-0.4937l-1.3969,-1.6726z"/>
  <path id="svg_73" fill="#C87A7B" d="m74.5492,89.1349c-0.0024,0.1294 -0.0428,0.2554 -0.1163,0.3626c-0.0736,0.1073 -0.1771,0.1913 -0.2981,0.2418c-0.0305,0.0154 -0.0633,0.0256 -0.0972,0.0303c-0.106,0.0233 -0.2157,0.0244 -0.3222,0.0034c-0.1065,-0.021 -0.2073,-0.0637 -0.296,-0.1254c-0.0886,-0.0616 -0.1632,-0.1409 -0.2189,-0.2327c-0.0556,-0.0918 -0.0912,-0.194 -0.1043,-0.3001c-0.0156,-0.09 -0.0156,-0.182 0,-0.272l1.453,0.2921z"/>
  <path id="svg_74" fill="#FFA8A7" d="m78.3816,93.019c-1.1097,-0.7455 -2.4586,-1.0646 -3.7913,-0.8966l2.5583,4.2416c0.7669,-0.8109 1.4829,-1.6672 2.1438,-2.5641c-0.2763,-0.2721 -0.5884,-0.539 -0.9108,-0.7809z"/>
  <path id="svg_75" fill="#F28F8F" d="m74.0376,89.7699c-0.106,0.0233 -0.2157,0.0245 -0.3222,0.0035c-0.1065,-0.021 -0.2073,-0.0637 -0.296,-0.1254c-0.0886,-0.0617 -0.1632,-0.141 -0.2189,-0.2327c-0.0557,-0.0918 -0.0912,-0.1941 -0.1043,-0.3002c0.1244,-0.0338 0.2554,-0.0367 0.3813,-0.0086c0.1258,0.0281 0.2427,0.0865 0.3401,0.1698c0.1257,0.1367 0.2029,0.31 0.22,0.4936z"/>
  <path id="svg_76" fill="#263238" d="m68.8445,86.3998l0.1023,1.4105c0.1389,-0.0167 0.2726,-0.0622 0.3924,-0.1334c0.1197,-0.0712 0.2229,-0.1666 0.3026,-0.2798c0.0797,-0.1132 0.1342,-0.2417 0.1599,-0.3771c0.0258,-0.1354 0.0221,-0.2747 -0.0107,-0.4086c0,0 4.8658,-0.4332 5.9965,-4.3272c0,0 1.0233,1.0528 1.0233,3.4557c0.4065,-0.2454 0.7066,-0.6301 0.8426,-1.0802c0.136,-0.45 0.0983,-0.9336 -0.1058,-1.3579c0.2171,-0.0848 0.3951,-0.2448 0.5007,-0.4498c0.1055,-0.2051 0.1313,-0.4411 0.0724,-0.6635c-0.0303,-0.2093 -0.1228,-0.4051 -0.2657,-0.5628c-0.1429,-0.1577 -0.3299,-0.2704 -0.5376,-0.3238c0,0 1.1,-1.7632 -0.2917,-2.6347c-1.3916,-0.8714 -3.3666,0.7607 -3.3666,0.7607c0,0 -3.1824,-1.0075 -4.8044,0.4484c-1.6219,1.4558 -1.6884,2.554 -1.6884,2.554c-0.5598,0.1915 -1.0347,0.5684 -1.3436,1.0664c-0.3089,0.498 -0.4326,1.0861 -0.35,1.6639c0.1331,2.2115 1.6424,3.7479 2.2308,4.5842c0.5884,0.8362 1.2024,1.8084 1.2024,1.8084l0.0307,-2.7102c0,0 -0.6959,0.5038 -1.535,-0.2821c-0.8391,-0.7858 -0.8953,-2.015 -0.1944,-2.559c0.1976,-0.1635 0.4453,-0.2568 0.7032,-0.265c0.258,-0.0082 0.5113,0.0691 0.7192,0.2196c0.0661,0.0544 0.1195,0.1221 0.1566,0.1986c0.0371,0.0765 0.057,0.16 0.0583,0.2447z"/>
  <path id="svg_77" fill="#37474F" d="m81.6309,98.8273l0,0.9823c0.0002,0.1321 -0.0352,0.2619 -0.1026,0.376c-0.0675,0.1142 -0.1645,0.2087 -0.2812,0.2739l-17.754,10.075c-0.0397,0.0232 -0.0849,0.0356 -0.131,0.0359c-0.0461,0.0004 -0.0915,-0.0113 -0.1315,-0.0338c-0.04,-0.0225 -0.0733,-0.0551 -0.0964,-0.0944c-0.0231,-0.0393 -0.0352,-0.0839 -0.0351,-0.1293l0,-1.0075c0.0008,-0.1319 0.0367,-0.2613 0.104,-0.3753c0.0673,-0.114 0.1638,-0.2086 0.2798,-0.2746l17.7591,-10.075c0.0415,-0.0232 0.0886,-0.0348 0.1363,-0.0335c0.0476,0.0013 0.094,0.0154 0.1341,0.0409c0.0401,0.0254 0.0723,0.0612 0.0932,0.1034c0.0209,0.0422 0.0296,0.0892 0.0253,0.136z"/>
  <path id="svg_78" fill="#E0E0E0" d="m77.3532,103.8147l0,0.529c0.0009,0.0707 -0.0177,0.1403 -0.0538,0.2015c-0.036,0.0612 -0.0881,0.1116 -0.1508,0.1461l-9.5628,5.4204c-0.0213,0.0127 -0.0457,0.0196 -0.0706,0.0198c-0.0249,0.0002 -0.0494,-0.0063 -0.0709,-0.0187c-0.0215,-0.0124 -0.0392,-0.0302 -0.0512,-0.0517c-0.012,-0.0215 -0.0179,-0.0458 -0.017,-0.0703l0,-0.5289c-0.0003,-0.0706 0.0185,-0.14 0.0545,-0.2011c0.0359,-0.0611 0.0878,-0.1117 0.1501,-0.1465l9.5628,-5.4154c0.0211,-0.011 0.0447,-0.0166 0.0686,-0.0163c0.0239,0.0003 0.0474,0.0065 0.0683,0.018c0.0208,0.0116 0.0384,0.028 0.0511,0.048c0.0128,0.0199 0.0202,0.0427 0.0217,0.0661z"/>
  <path id="svg_79" fill="#E62C38" d="m83.7949,90.5508c0,1.9797 -1.627,4.5085 -3.6378,5.6521c-2.0108,1.1435 -3.6429,0.4634 -3.6429,-1.5113c0,-1.9747 1.6321,-4.5338 3.6429,-5.6521c2.0108,-1.1183 3.6378,-0.4534 3.6378,1.5113z"/>
  <path id="svg_80" fill="white" d="m80.3004,90.7622c0.5628,-0.3224 0.6293,-0.3576 0.8494,-0.4735c0.1216,-0.0684 0.2525,-0.1193 0.3888,-0.1511c0.0784,-0.0237 0.1621,-0.0237 0.2405,0c0.0349,0.0128 0.0669,0.0323 0.0942,0.0573c0.0272,0.0251 0.0491,0.0553 0.0644,0.0888c0.0483,0.1078 0.0727,0.2246 0.0716,0.3425c0,0.2166 0,0.2771 0,0.8312c0,0.5541 0,0.6196 0,0.8412c-0.0036,0.1453 -0.0277,0.2894 -0.0716,0.4282c-0.0359,0.1164 -0.0893,0.2268 -0.1586,0.3274c-0.0684,0.1063 -0.1491,0.2043 -0.2405,0.2922c-0.1177,0.1118 -0.2482,0.2099 -0.3888,0.2922c-0.2201,0.136 -0.2866,0.1763 -0.8494,0.5037c-0.5628,0.3275 -0.6293,0.3527 -0.8493,0.4685c-0.1205,0.0708 -0.2518,0.1218 -0.3889,0.1511c-0.0779,0.0261 -0.1625,0.0261 -0.2404,0c-0.0356,-0.0131 -0.0681,-0.0333 -0.0953,-0.0593c-0.0273,-0.026 -0.0489,-0.0572 -0.0634,-0.0918c-0.0497,-0.1074 -0.0741,-0.2245 -0.0716,-0.3425c0,-0.2116 0,-0.2771 0,-0.8262c0,-0.5491 0,-0.6196 0,-0.8463c0.0033,-0.1436 0.0275,-0.2861 0.0716,-0.4231c0.0359,-0.1164 0.0894,-0.2268 0.1587,-0.3274c0.067,-0.1072 0.1479,-0.2054 0.2404,-0.2922c0.1178,-0.1118 0.2483,-0.2099 0.3889,-0.2922c0.22,-0.136 0.2865,-0.1763 0.8493,-0.5037l0,0.005zm0,-0.3778c-0.5679,0.3224 -0.6395,0.3677 -0.8647,0.5038c-0.1859,0.1083 -0.3577,0.2385 -0.5116,0.3878c-0.1427,0.1338 -0.2682,0.2844 -0.3735,0.4484c-0.1021,0.1569 -0.1829,0.3262 -0.2405,0.5037c-0.0578,0.1812 -0.0905,0.3693 -0.0972,0.5592c0,0.2266 0,0.2972 0,0.8563c0,0.5592 0,0.6347 0,0.8463c-0.0005,0.1546 0.0327,0.3074 0.0972,0.4483c0.0469,0.1037 0.1333,0.1851 0.2405,0.2267c0.1182,0.0482 0.2488,0.0587 0.3735,0.0303c0.1794,-0.0405 0.3518,-0.1067 0.5116,-0.1965c0.2252,-0.1159 0.2968,-0.1562 0.8647,-0.5038c0.5679,-0.3475 0.6396,-0.3677 0.8647,-0.5037c0.1837,-0.1116 0.3551,-0.2416 0.5116,-0.3879c0.1428,-0.1337 0.2682,-0.2843 0.3735,-0.4483c0.1041,-0.1558 0.1851,-0.3254 0.2405,-0.5037c0.0578,-0.1813 0.0905,-0.3694 0.0972,-0.5592c0,-0.2267 0,-0.2972 0,-0.8614c0,-0.5642 0,-0.6297 0,-0.8463c0.0001,-0.1529 -0.0331,-0.304 -0.0972,-0.4433c-0.0467,-0.1049 -0.1329,-0.188 -0.2405,-0.2317c-0.1218,-0.0357 -0.2516,-0.0357 -0.3735,0c-0.1801,0.0381 -0.3528,0.1045 -0.5116,0.1964c-0.2251,0.1159 -0.2916,0.1512 -0.8647,0.5038"/>
  <path id="svg_81" fill="white" d="m80.3003,91.397c-0.2999,0.1766 -0.5538,0.4198 -0.7412,0.7102c-0.1875,0.2903 -0.3034,0.6199 -0.3384,0.9622c0,0.5894 0.4861,0.7858 1.0796,0.4483c0.2999,-0.1765 0.5538,-0.4197 0.7412,-0.7101c0.1875,-0.2904 0.3033,-0.62 0.3384,-0.9623c0,-0.5894 -0.4861,-0.7909 -1.0796,-0.4483zm0,1.748c-0.3889,0.2216 -0.701,0.0906 -0.701,-0.2922c0.0227,-0.2226 0.0979,-0.4369 0.2196,-0.6258c0.1217,-0.1889 0.2865,-0.3472 0.4814,-0.4623c0.3888,-0.2166 0.701,-0.0856 0.701,0.2922c-0.0211,0.223 -0.0956,0.4379 -0.2175,0.6271c-0.1218,0.1892 -0.2876,0.3471 -0.4835,0.461z"/>
  <path id="svg_82" fill="white" d="m81.6715,90.5709c-0.0067,0.0805 -0.033,0.1582 -0.0766,0.2266c-0.0437,0.0683 -0.1034,0.1254 -0.1741,0.1663c-0.1381,0.0806 -0.2506,0.0302 -0.2506,-0.1058c0.0067,-0.0805 0.033,-0.1582 0.0766,-0.2265c0.0436,-0.0684 0.1033,-0.1255 0.174,-0.1664c0.1382,-0.0755 0.2507,-0.0302 0.2507,0.1058z"/>
  <path id="svg_83" fill="#FFA8A7" d="m67.0125,93.7192c-2.855,0.3879 -3.2234,3.5868 -3.2234,3.5868l0,4.8813c1.0529,0.3193 2.1665,0.3952 3.2541,0.2217c0.4819,-1.5964 0.8663,-3.2197 1.1512,-4.8612c0.4401,-3.0276 -1.1819,-3.8286 -1.1819,-3.8286z"/>
  <path id="svg_84" fill="#E62C38" d="m169.26,32.0951l0,25.1524c0.001,0.5537 -0.146,1.0977 -0.428,1.5772c-0.281,0.4794 -0.686,0.8772 -1.173,1.1532l-74.5266,42.2347c-0.1656,0.0947 -0.3536,0.1448 -0.545,0.1452c-0.1915,0.0004 -0.3797,-0.0488 -0.5457,-0.1428c-0.166,-0.094 -0.3039,-0.2294 -0.3999,-0.3925c-0.0959,-0.1632 -0.1465,-0.3483 -0.1467,-0.5368l0,-25.1575c0.0001,-0.554 0.1487,-1.0982 0.4308,-1.5776c0.2821,-0.4794 0.6877,-0.877 1.1758,-1.1527l74.5213,-42.2398c0.167,-0.0935 0.355,-0.1423 0.547,-0.1415c0.192,0.0008 0.38,0.0511 0.546,0.146c0.165,0.0949 0.303,0.2309 0.398,0.3946c0.096,0.1636 0.146,0.3491 0.146,0.5379z"/>
  <path id="svg_85" fill="white" d="m169.26,32.0951l0,25.1524c0.001,0.5537 -0.146,1.0977 -0.428,1.5772c-0.281,0.4794 -0.686,0.8772 -1.173,1.1532l-74.5266,42.2347c-0.1656,0.0947 -0.3536,0.1448 -0.545,0.1452c-0.1915,0.0004 -0.3797,-0.0488 -0.5457,-0.1428c-0.166,-0.094 -0.3039,-0.2294 -0.3999,-0.3925c-0.0959,-0.1632 -0.1465,-0.3483 -0.1467,-0.5368l0,-25.1575c0.0001,-0.554 0.1487,-1.0982 0.4308,-1.5776c0.2821,-0.4794 0.6877,-0.877 1.1758,-1.1527l74.5213,-42.2398c0.167,-0.0935 0.355,-0.1423 0.547,-0.1415c0.192,0.0008 0.38,0.0511 0.546,0.146c0.165,0.0949 0.303,0.2309 0.398,0.3946c0.096,0.1636 0.146,0.3491 0.146,0.5379z" opacity="0.7"/>
  <path id="svg_86" fill="white" d="m119.84,62.9398l0,19.4902c0,0.4296 -0.116,0.8514 -0.335,1.2229c-0.22,0.3714 -0.534,0.6794 -0.913,0.8929l-22.9064,12.9766c-0.1284,0.0736 -0.2743,0.1126 -0.4229,0.1129c-0.1486,0.0002 -0.2947,-0.0381 -0.4234,-0.1112c-0.1288,-0.0731 -0.2357,-0.1783 -0.3098,-0.3051c-0.0742,-0.1268 -0.1131,-0.2706 -0.1127,-0.4169l0,-19.4852c-0.0003,-0.4292 0.1145,-0.8508 0.3329,-1.2223c0.2183,-0.3715 0.5323,-0.6797 0.9104,-0.8934l22.9059,-12.9817c0.129,-0.0733 0.275,-0.1119 0.424,-0.1121c0.149,-0.0001 0.295,0.0382 0.424,0.1111c0.129,0.0729 0.236,0.178 0.311,0.3046c0.075,0.1265 0.115,0.2703 0.115,0.4167z"/>
  <path id="svg_87" fill="#37474F" d="m119.84,79.7351l0,2.6951c0,0.4297 -0.116,0.8517 -0.335,1.2232c-0.219,0.3716 -0.534,0.6795 -0.913,0.8925l-3.965,2.2468l-8.054,4.564l4.022,-8.2465l2.886,-5.914c0.511,-1.0781 1.688,-1.738 2.215,-1.2544l4.144,3.7933z"/>
  <path id="svg_88" fill="#455A64" d="m114.627,86.7924l-8.054,4.564l-10.8874,6.1659c-0.1284,0.0736 -0.2743,0.1125 -0.4229,0.1128c-0.1486,0.0003 -0.2947,-0.038 -0.4234,-0.1111c-0.1288,-0.0731 -0.2356,-0.1783 -0.3098,-0.3051c-0.0742,-0.1268 -0.1131,-0.2706 -0.1127,-0.417l0,-1.748l7.9102,-16.2208c0.511,-1.0729 1.683,-1.7329 2.21,-1.2543l6.058,5.5413l4.032,3.6723z"/>
  <path id="svg_89" fill="#455A64" d="m117.523,69.4987c0,1.5969 -1.315,3.637 -2.937,4.5337c-1.622,0.8967 -2.932,0.3728 -2.932,-1.2241c0,-1.5969 1.31,-3.632 2.932,-4.5337c1.622,-0.9017 2.937,-0.3426 2.937,1.2241z"/>
  <path id="svg_90" fill="white" d="m166.114,46.2958l0,0.5038c0,0.1361 -0.036,0.2699 -0.105,0.3876c-0.069,0.1178 -0.169,0.2153 -0.289,0.2824l-43.393,24.5681c-0.041,0.0228 -0.088,0.0347 -0.135,0.0343c-0.047,-0.0003 -0.094,-0.0128 -0.134,-0.0362c-0.041,-0.0235 -0.075,-0.057 -0.099,-0.0973c-0.023,-0.0403 -0.036,-0.086 -0.036,-0.1325l0,-0.5038c0.001,-0.137 0.038,-0.2714 0.108,-0.3898c0.07,-0.1184 0.17,-0.2167 0.291,-0.2852l43.388,-24.5631c0.041,-0.0228 0.087,-0.0346 0.135,-0.0343c0.047,0.0003 0.093,0.0128 0.134,0.0362c0.041,0.0235 0.075,0.057 0.098,0.0973c0.024,0.0403 0.037,0.086 0.037,0.1325z"/>
  <path id="svg_91" fill="white" d="m166.114,49.7972l0,0.5037c0,0.1361 -0.036,0.2699 -0.105,0.3877c-0.069,0.1177 -0.169,0.2152 -0.289,0.2823l-43.393,24.5681c-0.041,0.0226 -0.087,0.0345 -0.134,0.0344c-0.047,-0.0001 -0.093,-0.0122 -0.133,-0.035c-0.041,-0.0229 -0.075,-0.0557 -0.099,-0.0953c-0.024,-0.0396 -0.037,-0.0847 -0.038,-0.1308l0,-0.5038c0,-0.1364 0.037,-0.2703 0.107,-0.3881c0.071,-0.1177 0.171,-0.2149 0.292,-0.2818l43.388,-24.5681c0.04,-0.0226 0.086,-0.0345 0.133,-0.0344c0.047,0.0001 0.093,0.0122 0.134,0.035c0.041,0.0229 0.075,0.0557 0.099,0.0953c0.024,0.0396 0.037,0.0847 0.038,0.1308z"/>
  <path id="svg_92" fill="white" d="m166.114,39.2635l0,0.5038c0,0.1366 -0.037,0.2708 -0.106,0.3893c-0.069,0.1184 -0.168,0.2169 -0.288,0.2857l-43.393,24.563c-0.041,0.0226 -0.087,0.0345 -0.134,0.0344c-0.047,-0.0001 -0.093,-0.0122 -0.133,-0.035c-0.041,-0.0229 -0.075,-0.0557 -0.099,-0.0953c-0.024,-0.0396 -0.037,-0.0847 -0.038,-0.1308l0,-0.5037c0,-0.1365 0.037,-0.2704 0.107,-0.3881c0.071,-0.1178 0.171,-0.215 0.292,-0.2819l43.388,-24.5681c0.04,-0.0226 0.086,-0.0345 0.133,-0.0344c0.047,0.0002 0.093,0.0122 0.134,0.035c0.041,0.0229 0.075,0.0557 0.099,0.0953c0.024,0.0396 0.037,0.0847 0.038,0.1308z"/>
  <path id="svg_93" fill="white" d="m166.114,42.7799l0,0.5038c0,0.1359 -0.036,0.2695 -0.106,0.3872c-0.069,0.1177 -0.168,0.2152 -0.288,0.2828l-43.393,24.563c-0.04,0.0243 -0.087,0.0374 -0.134,0.0381c-0.048,0.0006 -0.095,-0.0112 -0.136,-0.0343c-0.041,-0.0231 -0.075,-0.0567 -0.099,-0.0972c-0.023,-0.0405 -0.036,-0.0865 -0.035,-0.1333l0,-0.5037c0.001,-0.1364 0.038,-0.2701 0.108,-0.3877c0.07,-0.1177 0.17,-0.215 0.291,-0.2823l43.388,-24.5631c0.04,-0.0242 0.087,-0.0374 0.134,-0.038c0.047,-0.0007 0.094,0.0112 0.135,0.0343c0.042,0.0231 0.076,0.0567 0.099,0.0972c0.024,0.0405 0.036,0.0865 0.036,0.1332z"/>
  <path id="svg_94" fill="white" d="m156.966,58.5369l0,0.5038c-0.001,0.1365 -0.038,0.2704 -0.108,0.3881c-0.07,0.1177 -0.171,0.215 -0.292,0.2819l-34.239,19.3592c-0.041,0.0226 -0.087,0.0345 -0.134,0.0343c-0.047,-0.0001 -0.093,-0.0121 -0.133,-0.035c-0.041,-0.0228 -0.075,-0.0556 -0.099,-0.0952c-0.024,-0.0396 -0.037,-0.0847 -0.038,-0.1308l0,-0.5038c0,-0.1364 0.037,-0.2704 0.107,-0.3881c0.071,-0.1177 0.171,-0.215 0.292,-0.2819l34.239,-19.3591c0.041,-0.0227 0.087,-0.0345 0.134,-0.0344c0.047,0.0001 0.093,0.0121 0.134,0.035c0.04,0.0228 0.074,0.0556 0.098,0.0952c0.024,0.0397 0.038,0.0847 0.039,0.1308z"/>
  <path id="svg_95" fill="#455A64" d="m120.245,90.1976l0,0.5038c-0.001,0.1364 -0.038,0.2702 -0.107,0.3885c-0.069,0.1183 -0.168,0.217 -0.287,0.2865l-27.9517,15.828c-0.0412,0.0229 -0.0877,0.0347 -0.135,0.0344c-0.0472,-0.0004 -0.0936,-0.0129 -0.1345,-0.0363c-0.0408,-0.0234 -0.0747,-0.0569 -0.0984,-0.0972c-0.0236,-0.0404 -0.0361,-0.086 -0.0363,-0.1326l0,-0.4786c-0.0007,-0.136 0.0354,-0.2698 0.1047,-0.3876c0.0692,-0.1177 0.1691,-0.2152 0.2893,-0.2824l27.9509,-15.833c0.04,-0.0221 0.084,-0.0341 0.129,-0.035c0.046,-0.0009 0.09,0.0094 0.13,0.03c0.041,0.0205 0.075,0.0506 0.1,0.0876c0.026,0.0369 0.041,0.0795 0.046,0.1239z"/>
  <path id="svg_96" fill="#455A64" d="m120.245,53.9525l0,0.5037c-0.001,0.1359 -0.037,0.2693 -0.107,0.3869c-0.069,0.1175 -0.168,0.2152 -0.287,0.2831l-27.9517,15.828c-0.0405,0.0243 -0.0869,0.0374 -0.1344,0.0381c-0.0474,0.0006 -0.0942,-0.0112 -0.1354,-0.0343c-0.0412,-0.0232 -0.0754,-0.0567 -0.0991,-0.0972c-0.0236,-0.0406 -0.0358,-0.0866 -0.0353,-0.1333l0,-0.5037c-0.0002,-0.136 0.0362,-0.2696 0.1054,-0.3873c0.0692,-0.1176 0.1687,-0.2152 0.2886,-0.2827l27.9509,-15.828c0.041,-0.0227 0.087,-0.0345 0.134,-0.0344c0.047,0.0001 0.093,0.0122 0.134,0.035c0.04,0.0228 0.074,0.0557 0.098,0.0953c0.024,0.0396 0.037,0.0847 0.039,0.1308z"/>
  <path id="svg_97" fill="#E62C38" d="m169.26,100.7512l0,25.1528c0.001,0.553 -0.146,1.097 -0.428,1.577c-0.281,0.479 -0.686,0.877 -1.173,1.153l-74.5266,42.235c-0.1659,0.095 -0.3544,0.145 -0.5463,0.145c-0.1919,0 -0.3805,-0.049 -0.5466,-0.144c-0.1662,-0.095 -0.304,-0.231 -0.3996,-0.395c-0.0956,-0.163 -0.1455,-0.349 -0.1448,-0.538l0,-25.153c0.0001,-0.554 0.1487,-1.098 0.4308,-1.577c0.2821,-0.48 0.6877,-0.877 1.1758,-1.153l74.5213,-42.2347c0.166,-0.0933 0.354,-0.1421 0.546,-0.1416c0.191,0.0006 0.379,0.0505 0.544,0.1448c0.166,0.0943 0.304,0.2296 0.4,0.3926c0.096,0.1629 0.146,0.3478 0.147,0.5361z"/>
  <path id="svg_98" fill="white" d="m169.26,100.7512l0,25.1528c0.001,0.553 -0.146,1.097 -0.428,1.577c-0.281,0.479 -0.686,0.877 -1.173,1.153l-74.5266,42.235c-0.1659,0.095 -0.3544,0.145 -0.5463,0.145c-0.1919,0 -0.3805,-0.049 -0.5466,-0.144c-0.1662,-0.095 -0.304,-0.231 -0.3996,-0.395c-0.0956,-0.163 -0.1455,-0.349 -0.1448,-0.538l0,-25.153c0.0001,-0.554 0.1487,-1.098 0.4308,-1.577c0.2821,-0.48 0.6877,-0.877 1.1758,-1.153l74.5213,-42.2347c0.166,-0.0933 0.354,-0.1421 0.546,-0.1416c0.191,0.0006 0.379,0.0505 0.544,0.1448c0.166,0.0943 0.304,0.2296 0.4,0.3926c0.096,0.1629 0.146,0.3478 0.147,0.5361z" opacity="0.7"/>
  <path id="svg_99" fill="white" d="m119.84,131.597l0,19.49c0,0.429 -0.116,0.851 -0.335,1.223c-0.22,0.371 -0.534,0.679 -0.913,0.892l-22.9064,12.962c-0.1284,0.074 -0.2743,0.113 -0.4229,0.113c-0.1486,0 -0.2947,-0.038 -0.4234,-0.111c-0.1288,-0.073 -0.2357,-0.179 -0.3098,-0.305c-0.0742,-0.127 -0.1131,-0.271 -0.1127,-0.417l0,-19.47c-0.0003,-0.43 0.1145,-0.851 0.3329,-1.223c0.2183,-0.371 0.5323,-0.679 0.9104,-0.893l22.9059,-12.957c0.127,-0.072 0.271,-0.111 0.418,-0.112c0.147,-0.001 0.291,0.035 0.419,0.105c0.129,0.07 0.236,0.171 0.313,0.295c0.077,0.123 0.119,0.263 0.124,0.408z"/>
  <path id="svg_100" fill="#37474F" d="m119.84,148.391l0,2.69c0.001,0.43 -0.114,0.853 -0.333,1.224c-0.22,0.372 -0.535,0.68 -0.915,0.892l-3.965,2.252l-8.054,4.564l4.022,-8.247l2.886,-5.914c0.511,-1.078 1.688,-1.738 2.215,-1.254l4.144,3.793z"/>
  <path id="svg_101" fill="#455A64" d="m114.627,155.449l-8.054,4.564l-10.8874,6.151c-0.1284,0.074 -0.2743,0.112 -0.4229,0.113c-0.1486,0 -0.2947,-0.038 -0.4234,-0.111c-0.1288,-0.073 -0.2356,-0.179 -0.3098,-0.306c-0.0742,-0.126 -0.1131,-0.27 -0.1127,-0.416l0,-1.754l7.9102,-16.215c0.511,-1.073 1.683,-1.733 2.21,-1.255l6.058,5.542l4.032,3.687z"/>
  <path id="svg_102" fill="#455A64" d="m117.523,138.155c0,1.597 -1.315,3.637 -2.937,4.559c-1.622,0.922 -2.932,0.373 -2.932,-1.224c0,-1.597 1.31,-3.632 2.932,-4.534c1.622,-0.901 2.937,-0.393 2.937,1.199z"/>
  <path id="svg_103" fill="white" d="m166.114,114.952l0,0.504c0,0.136 -0.036,0.27 -0.105,0.388c-0.069,0.118 -0.169,0.215 -0.289,0.282l-43.393,24.548c-0.041,0.023 -0.088,0.035 -0.135,0.034c-0.047,0 -0.094,-0.012 -0.134,-0.036c-0.041,-0.023 -0.075,-0.057 -0.099,-0.097c-0.023,-0.04 -0.036,-0.086 -0.036,-0.133l0,-0.473c0.001,-0.137 0.038,-0.271 0.108,-0.39c0.07,-0.118 0.17,-0.217 0.291,-0.285l43.388,-24.563c0.04,-0.023 0.086,-0.035 0.132,-0.035c0.047,0 0.092,0.012 0.133,0.034c0.04,0.022 0.074,0.054 0.099,0.093c0.024,0.039 0.038,0.084 0.04,0.129z"/>
  <path id="svg_104" fill="white" d="m166.114,118.469l0,0.503c0,0.136 -0.036,0.27 -0.105,0.388c-0.069,0.118 -0.169,0.215 -0.289,0.282l-43.393,24.568c-0.041,0.023 -0.088,0.035 -0.135,0.035c-0.047,-0.001 -0.094,-0.013 -0.134,-0.037c-0.041,-0.023 -0.075,-0.057 -0.099,-0.097c-0.023,-0.04 -0.036,-0.086 -0.036,-0.132l0,-0.484c0,-0.136 0.037,-0.27 0.107,-0.388c0.071,-0.118 0.171,-0.215 0.292,-0.282l43.388,-24.568c0.039,-0.022 0.084,-0.034 0.13,-0.035c0.045,0 0.09,0.01 0.131,0.031c0.04,0.022 0.074,0.052 0.099,0.09c0.025,0.038 0.04,0.081 0.044,0.126z"/>
  <path id="svg_105" fill="white" d="m166.114,107.9202l0,0.5038c0,0.1361 -0.036,0.2699 -0.105,0.3876c-0.069,0.1178 -0.169,0.2153 -0.289,0.2824l-43.393,24.568c-0.041,0.023 -0.087,0.035 -0.134,0.034c-0.047,0 -0.093,-0.012 -0.133,-0.035c-0.041,-0.022 -0.075,-0.055 -0.099,-0.095c-0.024,-0.039 -0.037,-0.085 -0.038,-0.131l0,-0.503c0,-0.137 0.037,-0.271 0.107,-0.389c0.071,-0.117 0.171,-0.214 0.292,-0.281l43.388,-24.5685c0.04,-0.0226 0.086,-0.0344 0.133,-0.0343c0.047,0.0001 0.093,0.0121 0.134,0.035c0.041,0.0228 0.075,0.0556 0.099,0.0952c0.024,0.0397 0.037,0.0847 0.038,0.1308z"/>
  <path id="svg_106" fill="white" d="m166.114,111.4362l0,0.5037c0,0.136 -0.036,0.2696 -0.106,0.3872c-0.069,0.1177 -0.168,0.2153 -0.288,0.2828l-43.393,24.5631c-0.04,0.024 -0.087,0.037 -0.134,0.038c-0.048,0.001 -0.095,-0.011 -0.136,-0.034c-0.041,-0.024 -0.075,-0.057 -0.099,-0.098c-0.023,-0.04 -0.036,-0.086 -0.035,-0.133l0,-0.504c0.001,-0.136 0.038,-0.27 0.108,-0.387c0.07,-0.118 0.17,-0.215 0.291,-0.283l43.388,-24.5625c0.04,-0.0243 0.087,-0.0374 0.134,-0.0381c0.047,-0.0006 0.094,0.0112 0.135,0.0343c0.042,0.0232 0.076,0.0567 0.099,0.0972c0.024,0.0405 0.036,0.0865 0.036,0.1333z"/>
  <path id="svg_107" fill="white" d="m156.966,127.194l0,0.503c-0.001,0.137 -0.038,0.271 -0.108,0.389c-0.07,0.117 -0.171,0.215 -0.292,0.281l-34.239,19.36c-0.041,0.022 -0.087,0.034 -0.134,0.034c-0.047,0 -0.093,-0.012 -0.133,-0.035c-0.041,-0.023 -0.075,-0.056 -0.099,-0.095c-0.024,-0.04 -0.037,-0.085 -0.038,-0.131l0,-0.504c0,-0.136 0.037,-0.27 0.107,-0.388c0.071,-0.118 0.171,-0.215 0.292,-0.282l34.239,-19.359c0.041,-0.023 0.087,-0.034 0.134,-0.034c0.047,0 0.093,0.012 0.134,0.035c0.04,0.022 0.074,0.055 0.098,0.095c0.024,0.04 0.038,0.085 0.039,0.131z"/>
  <path id="svg_108" fill="#E62C38" d="m158.372,26.0097c-0.044,0.4414 -0.194,0.8663 -0.435,1.2407c-0.242,0.3744 -0.569,0.6879 -0.956,0.9154c-0.768,0.4332 -1.387,0.1763 -1.387,-0.5793c0.044,-0.4411 0.193,-0.8659 0.433,-1.2403c0.241,-0.3745 0.568,-0.6881 0.954,-0.9159c0.793,-0.4383 1.391,-0.1763 1.391,0.5794z"/>
  <path id="svg_109" fill="#E62C38" d="m163.136,23.2994c-0.044,0.4422 -0.193,0.868 -0.435,1.2433c-0.242,0.3752 -0.569,0.6896 -0.957,0.9179c-0.767,0.4332 -1.386,0.1763 -1.386,-0.5794c0.043,-0.4413 0.191,-0.8664 0.432,-1.2409c0.241,-0.3746 0.568,-0.6881 0.954,-0.91523c0.768,-0.43829 1.392,-0.18136 1.392,0.57433z"/>
  <path id="svg_110" fill="#E62C38" d="m167.894,20.57953c-0.043,0.44127 -0.191,0.86635 -0.432,1.24089c-0.241,0.37454 -0.568,0.68804 -0.954,0.91515c-0.768,0.43823 -1.392,0.17632 -1.392,-0.57931c0.045,-0.44139 0.194,-0.8663 0.436,-1.2407c0.241,-0.3744 0.569,-0.68788 0.956,-0.91534c0.767,-0.42819 1.386,-0.1612 1.386,0.57931z"/>
  <path id="svg_111" fill="black" d="m158.372,26.0097c-0.044,0.4414 -0.194,0.8663 -0.435,1.2407c-0.242,0.3744 -0.569,0.6879 -0.956,0.9154c-0.768,0.4332 -1.387,0.1763 -1.387,-0.5793c0.044,-0.4411 0.193,-0.8659 0.433,-1.2403c0.241,-0.3745 0.568,-0.6881 0.954,-0.9159c0.793,-0.4383 1.391,-0.1763 1.391,0.5794z" opacity="0.4"/>
  <path id="svg_112" fill="black" d="m163.136,23.2994c-0.044,0.4422 -0.193,0.868 -0.435,1.2433c-0.242,0.3752 -0.569,0.6896 -0.957,0.9179c-0.767,0.4332 -1.386,0.1763 -1.386,-0.5794c0.043,-0.4413 0.191,-0.8664 0.432,-1.2409c0.241,-0.3746 0.568,-0.6881 0.954,-0.91523c0.768,-0.43829 1.392,-0.18136 1.392,0.57433z" opacity="0.4"/>
  <path id="svg_113" fill="black" d="m167.894,20.57953c-0.043,0.44127 -0.191,0.86635 -0.432,1.24089c-0.241,0.37454 -0.568,0.68804 -0.954,0.91515c-0.768,0.43823 -1.392,0.17632 -1.392,-0.57931c0.045,-0.44139 0.194,-0.8663 0.436,-1.2407c0.241,-0.3744 0.569,-0.68788 0.956,-0.91534c0.767,-0.42819 1.386,-0.1612 1.386,0.57931z" opacity="0.4"/>
  <path id="svg_114" fill="#E62C38" d="m172.489,67.4284l-2.497,-1.4457c-0.171,-0.1268 -0.377,-0.2012 -0.59,-0.2137c-0.214,-0.0126 -0.427,0.0372 -0.612,0.1431l-75.6627,42.8947c-0.4954,0.2799 -0.9071,0.6833 -1.1937,1.1697c-0.2865,0.4865 -0.4378,1.0387 -0.4385,1.601l0,25.5405c0.0035,0.224 0.0778,0.441 0.2126,0.622c0.1348,0.18 0.3234,0.315 0.5395,0.385l2.3638,1.416l-0.0818,-2.272l74.2908,-42.1038c0.496,-0.2799 0.907,-0.6833 1.194,-1.1698c0.286,-0.4864 0.438,-1.0386 0.438,-1.6009l0,-23.9183l2.037,-1.0478z"/>
  <path id="svg_115" fill="#E62C38" d="m171.333,67.4282l-75.6628,42.8643c-0.4961,0.2803 -0.9083,0.6846 -1.1949,1.1719c-0.2866,0.4874 -0.4374,1.0407 -0.4372,1.6036l0,25.54c-0.0003,0.195 0.0528,0.386 0.1537,0.554c0.1008,0.168 0.2457,0.305 0.4193,0.399c0.1662,0.092 0.3539,0.141 0.5449,0.141c0.191,0 0.3788,-0.049 0.5449,-0.141l75.6621,-42.8799c0.496,-0.279 0.909,-0.6823 1.195,-1.1689c0.287,-0.4866 0.438,-1.0392 0.437,-1.6017l0,-25.5403c-0.001,-0.1911 -0.053,-0.3786 -0.15,-0.5438c-0.098,-0.1651 -0.238,-0.3022 -0.406,-0.3975c-0.168,-0.0954 -0.359,-0.1456 -0.553,-0.1457c-0.194,-0.0001 -0.385,0.0499 -0.553,0.145z"/>
  <path id="svg_116" fill="white" d="m172.995,68.3602l0,25.5403c0.001,0.5625 -0.15,1.1151 -0.437,1.6017c-0.286,0.4866 -0.699,0.8899 -1.195,1.1689l-75.6621,42.8799c-0.1683,0.095 -0.3591,0.145 -0.5532,0.145c-0.1941,-0.001 -0.3848,-0.051 -0.5531,-0.146c-0.1682,-0.095 -0.3082,-0.232 -0.4058,-0.398c-0.0977,-0.165 -0.1496,-0.352 -0.1507,-0.543l0,-25.541c-0.0002,-0.5629 0.1506,-1.1161 0.4372,-1.6035c0.2866,-0.4874 0.6988,-0.8917 1.1949,-1.1719l75.6628,-42.8643c0.167,-0.0947 0.357,-0.1448 0.55,-0.1451c0.193,-0.0003 0.383,0.049 0.551,0.1431c0.168,0.0942 0.309,0.2298 0.407,0.3936c0.098,0.1638 0.152,0.3501 0.154,0.5403z" opacity="0.4"/>
  <path id="svg_117" fill="white" d="m122.813,99.6683l0,19.7827c0,0.436 -0.116,0.864 -0.337,1.241c-0.221,0.378 -0.539,0.691 -0.922,0.91l-23.259,13.178c-0.1305,0.074 -0.2785,0.113 -0.4292,0.113c-0.1507,0.001 -0.2987,-0.038 -0.4293,-0.112c-0.1306,-0.074 -0.2392,-0.181 -0.3148,-0.309c-0.0756,-0.128 -0.1156,-0.274 -0.1161,-0.422l0,-19.773c-0.0004,-0.436 0.1163,-0.864 0.3382,-1.24c0.222,-0.3774 0.5413,-0.6897 0.9256,-0.9058l23.2546,-13.1833c0.129,-0.0738 0.277,-0.1129 0.426,-0.1134c0.15,-0.0006 0.298,0.0374 0.428,0.1102c0.13,0.0728 0.239,0.1779 0.315,0.3048c0.077,0.1269 0.118,0.2713 0.12,0.4188z"/>
  <path id="svg_118" fill="#E62C38" d="m122.818,116.726l0,2.735c0,0.437 -0.117,0.866 -0.34,1.244c-0.223,0.378 -0.543,0.691 -0.929,0.907l-4.021,2.282l-8.187,4.635l4.093,-8.373l2.932,-6.004c0.537,-1.094 1.714,-1.7635 2.246,-1.2749l4.206,3.8489z"/>
  <path id="svg_119" fill="black" d="m122.818,116.726l0,2.735c0,0.437 -0.117,0.866 -0.34,1.244c-0.223,0.378 -0.543,0.691 -0.929,0.907l-4.021,2.282l-8.187,4.635l4.093,-8.373l2.932,-6.004c0.537,-1.094 1.714,-1.7635 2.246,-1.2749l4.206,3.8489z" opacity="0.2"/>
  <path id="svg_120" fill="#E62C38" d="m117.528,123.894l-8.187,4.634l-11.0512,6.262c-0.1304,0.074 -0.2784,0.113 -0.4291,0.113c-0.1507,0.001 -0.2987,-0.038 -0.4293,-0.112c-0.1306,-0.074 -0.2392,-0.181 -0.3148,-0.309c-0.0756,-0.128 -0.1157,-0.274 -0.1161,-0.422l0,-1.779l8.0325,-16.467c0.512,-1.093 1.709,-1.763 2.241,-1.275l6.14,5.617l4.114,3.738z"/>
  <path id="svg_121" fill="#E62C38" d="m120.465,106.3384c0,1.6171 -1.336,3.6926 -2.983,4.6245c-1.648,0.932 -2.978,0.3829 -2.978,-1.2392c0,-1.6221 1.335,-3.6925 2.978,-4.6245c1.642,-0.932 2.983,-0.3929 2.983,1.2392z"/>
  <path id="svg_122" fill="white" d="m169.798,82.778l0,0.5037c-0.001,0.1378 -0.038,0.273 -0.108,0.3923c-0.07,0.1193 -0.17,0.2185 -0.291,0.2878l-44.058,24.9409c-0.041,0.0228 -0.088,0.0346 -0.135,0.0343c-0.048,-0.0003 -0.094,-0.0128 -0.135,-0.0363c-0.041,-0.0234 -0.075,-0.0569 -0.098,-0.0972c-0.024,-0.0403 -0.036,-0.086 -0.036,-0.1326l0,-0.5037c-0.001,-0.1387 0.035,-0.2752 0.105,-0.3955c0.07,-0.1203 0.172,-0.2203 0.294,-0.2896l44.052,-24.9409c0.042,-0.0243 0.09,-0.0372 0.138,-0.0373c0.049,-0.0001 0.096,0.0126 0.138,0.0368c0.042,0.0242 0.076,0.0589 0.1,0.1007c0.023,0.0417 0.035,0.0889 0.034,0.1366z"/>
  <path id="svg_123" fill="white" d="m169.798,86.3494l0,0.5037c0,0.1385 -0.037,0.2746 -0.107,0.3947c-0.07,0.1202 -0.171,0.2203 -0.292,0.2904l-44.058,24.9258c-0.041,0.0228 -0.088,0.0346 -0.135,0.0343c-0.048,-0.0004 -0.094,-0.0129 -0.135,-0.0363c-0.041,-0.0234 -0.075,-0.0569 -0.098,-0.0972c-0.024,-0.0403 -0.036,-0.086 -0.036,-0.1326l0,-0.5037c-0.001,-0.1387 0.035,-0.2752 0.105,-0.3955c0.07,-0.1204 0.172,-0.2203 0.294,-0.2896l44.052,-24.9409c0.043,-0.0249 0.091,-0.0379 0.141,-0.0376c0.049,0.0004 0.098,0.0139 0.14,0.0394c0.042,0.0254 0.076,0.0616 0.099,0.1048c0.023,0.0432 0.033,0.0917 0.03,0.1403z"/>
  <path id="svg_124" fill="white" d="m169.798,75.6346l0,0.5038c-0.001,0.1377 -0.038,0.273 -0.108,0.3922c-0.07,0.1193 -0.17,0.2185 -0.291,0.2879l-44.058,24.9409c-0.041,0.0228 -0.088,0.0346 -0.135,0.0343c-0.048,-0.0003 -0.094,-0.0128 -0.135,-0.0363c-0.041,-0.0234 -0.074,-0.0569 -0.098,-0.0972c-0.024,-0.0403 -0.036,-0.086 -0.036,-0.1326l0,-0.5037c-0.002,-0.1382 0.034,-0.2742 0.105,-0.3939c0.07,-0.1196 0.171,-0.2185 0.294,-0.2862l44.052,-24.9459c0.042,-0.0227 0.09,-0.0343 0.137,-0.0336c0.048,0.0007 0.095,0.0136 0.136,0.0374c0.042,0.0239 0.076,0.0579 0.1,0.0987c0.024,0.0409 0.036,0.0871 0.037,0.1342z"/>
  <path id="svg_125" fill="white" d="m169.798,79.2062l0,0.5037c-0.001,0.1378 -0.038,0.273 -0.108,0.3923c-0.07,0.1193 -0.17,0.2185 -0.291,0.2878l-44.058,24.9408c-0.041,0.0228 -0.088,0.0346 -0.135,0.0343c-0.048,-0.0003 -0.094,-0.0128 -0.135,-0.0363c-0.041,-0.0234 -0.075,-0.0569 -0.098,-0.0972c-0.024,-0.0403 -0.036,-0.086 -0.036,-0.1326l0,-0.5037c-0.001,-0.1387 0.035,-0.2752 0.105,-0.3955c0.07,-0.1203 0.172,-0.2203 0.294,-0.2896l44.052,-24.9408c0.042,-0.0243 0.09,-0.0372 0.138,-0.0373c0.049,-0.0001 0.096,0.0126 0.138,0.0368c0.042,0.0242 0.076,0.0589 0.1,0.1007c0.023,0.0417 0.035,0.0889 0.034,0.1366z"/>
  <path id="svg_126" fill="white" d="m160.506,95.2106l0,0.5037c0.001,0.1381 -0.035,0.2739 -0.105,0.3935c-0.071,0.1195 -0.172,0.2185 -0.294,0.2866l-34.766,19.6466c-0.041,0.023 -0.088,0.034 -0.135,0.034c-0.048,0 -0.094,-0.013 -0.135,-0.036c-0.041,-0.024 -0.075,-0.057 -0.098,-0.097c-0.024,-0.041 -0.036,-0.086 -0.036,-0.133l0,-0.504c-0.001,-0.138 0.035,-0.275 0.105,-0.395c0.07,-0.121 0.172,-0.22 0.294,-0.29l34.766,-19.6462c0.042,-0.023 0.089,-0.0349 0.136,-0.0343c0.048,0.0005 0.095,0.0135 0.136,0.0375c0.041,0.024 0.075,0.0583 0.098,0.0993c0.023,0.041 0.035,0.0873 0.034,0.1343z"/>
  <path id="svg_127" fill="#E62C38" d="m179.202,200.273c0,0 0.568,0.211 0.511,1.103c-0.056,0.892 -0.603,2.337 -0.747,3.259c-0.143,0.922 0.236,2.988 -0.066,3.471c-0.302,0.484 -4.513,2.317 -4.513,2.317l0.404,-6.644c0,0 1.157,-2.756 2.144,-3.224c0.718,-0.287 1.499,-0.384 2.267,-0.282z"/>
  <path id="svg_128" fill="black" d="m179.202,200.273c0,0 0.568,0.211 0.511,1.103c-0.056,0.892 -0.603,2.337 -0.747,3.259c-0.143,0.922 0.236,2.988 -0.066,3.471c-0.302,0.484 -4.513,2.317 -4.513,2.317l0.404,-6.644c0,0 1.157,-2.756 2.144,-3.224c0.718,-0.287 1.499,-0.384 2.267,-0.282z" opacity="0.4"/>
  <path id="svg_129" fill="#37474F" d="m178.491,199.79l0.711,0.503c-0.483,-0.005 -0.959,0.108 -1.387,0.33c-0.427,0.221 -0.791,0.545 -1.059,0.94c-0.854,1.345 -0.906,4.659 -0.952,5.879c-0.046,1.219 -0.317,2.609 -1.586,3.077c-1.269,0.469 -3.336,-0.216 -4.241,-1.143c-0.11,-0.394 -0.075,-0.813 0.097,-1.184c0.302,-0.408 3.541,-0.378 3.541,-0.378c0,0 1.079,-5.486 1.079,-5.541c0,-0.055 1.254,-2.473 1.254,-2.473l2.543,-0.01z"/>
  <path id="svg_130" fill="#37474F" d="m151.7,211.255c0,0 0.313,0.852 -0.081,1.083c-0.799,0.37 -1.677,0.543 -2.559,0.504c-1.151,0 -3.356,-0.614 -4.093,-0.655c-0.737,-0.04 -2.287,0.136 -4.144,0.081c-1.317,-0.014 -2.609,-0.361 -3.751,-1.008c-0.2,-0.167 -0.359,-0.378 -0.463,-0.616c-0.103,-0.237 -0.15,-0.496 -0.135,-0.754c0.082,-0.247 15.226,1.365 15.226,1.365z"/>
  <path id="svg_131" fill="#455A64" d="m136.428,209.779c0.143,0.362 0.865,1.319 2.558,1.768c0.141,0.038 0.285,0.067 0.43,0.085c1.468,0.217 4.093,0.041 5.265,0.026c1.32,0 2.558,0.559 4.195,0.544c1.638,-0.016 2.415,-0.247 2.748,-0.827c0.332,-0.579 0.092,-0.891 0,-2.015c-0.092,-1.123 -0.113,-2.639 -0.21,-3.269c0,0 -0.138,-0.604 -0.445,-0.64l-4.763,-0.231c-0.267,0.126 -0.425,0.982 -1.024,1.345c-0.598,0.362 -2.701,0.141 -3.842,0c-1.141,-0.141 -2.809,-0.252 -3.955,0.503c-0.4,0.32 -0.701,0.743 -0.87,1.222c-0.169,0.478 -0.199,0.994 -0.087,1.489z"/>
  <path id="svg_132" fill="#FFA8A7" d="m151.122,202.596l-0.117,2.841c0,0 -0.359,1.617 -2.477,1.617c0,0 -2.287,0.045 -2.287,-1.758l0.143,-3.526l4.738,0.826z"/>
  <path id="svg_133" fill="#E62C38" d="m136.428,209.779c0.143,0.362 0.865,1.32 2.558,1.768c0.141,0.039 0.285,0.067 0.43,0.086c-0.645,-4.333 1.919,-5.103 1.919,-5.103c-1.146,-0.162 -2.809,-0.252 -3.955,0.503c-0.406,0.323 -0.71,0.752 -0.878,1.238c-0.168,0.486 -0.194,1.008 -0.074,1.508z"/>
  <path id="svg_134" fill="#FFA8A7" d="m174.566,193.87l1.494,3.794l-3.556,2.609l-2.317,-3.33c0,0 1.314,-3.455 4.379,-3.073z"/>
  <path id="svg_135" fill="#455A64" d="m170.279,208.661c0.523,0.59 1.254,0.963 2.046,1.043c0.077,-0.006 0.154,-0.006 0.23,0c1.372,0.055 2.047,-0.308 2.262,-1.235c0.215,-0.927 0.112,-5.395 0.844,-6.725c0.732,-1.33 1.776,-1.919 2.809,-1.97l-2.43,-2.125c-0.379,-0.119 -0.782,-0.138 -1.17,-0.055c-0.388,0.084 -0.747,0.266 -1.041,0.528c0,0 -1.504,0.887 -1.35,2.136c0.153,1.249 0.823,1.713 0.793,3.274c-0.008,0.854 -0.082,1.707 -0.22,2.549c0,0 -1.351,-0.397 -2.17,0.464c-0.376,0.383 -0.651,0.852 -0.798,1.365c-0.036,0.131 -0.037,0.269 -0.003,0.401c0.034,0.131 0.102,0.252 0.198,0.35z"/>
  <path id="svg_136" fill="white" d="m145.361,206.419c-0.106,-0.034 -0.22,-0.043 -0.331,-0.026c-0.111,0.016 -0.216,0.058 -0.308,0.122c-0.471,0.282 -0.568,1.979 -0.425,2.262c0.143,0.282 0.379,0 0.45,-0.645c0.055,-0.613 0.267,-1.202 0.614,-1.713z"/>
  <path id="svg_137" fill="white" d="m143.811,206.736c0,0 -0.215,0.106 -0.404,0.675c-0.189,0.57 -0.118,1.305 -0.317,1.406c-0.2,0.101 -0.266,-0.388 -0.272,-0.882c-0.048,-0.429 0.055,-0.861 0.292,-1.224c0.098,-0.084 0.225,-0.129 0.356,-0.124c0.13,0.004 0.253,0.058 0.345,0.149z"/>
  <path id="svg_138" fill="white" d="m142.46,206.66c-0.284,0.249 -0.514,0.553 -0.675,0.892c-0.379,0.695 -0.384,1.093 -0.512,1.149c-0.128,0.055 -0.215,-0.156 -0.184,-0.544c0.059,-0.593 0.329,-1.147 0.763,-1.562c0.043,-0.036 0.094,-0.063 0.149,-0.08c0.055,-0.016 0.112,-0.021 0.169,-0.015c0.057,0.006 0.112,0.024 0.162,0.051c0.05,0.028 0.093,0.065 0.128,0.109z"/>
  <path id="svg_139" fill="#E62C38" d="m170.278,208.66c0.524,0.591 1.255,0.963 2.047,1.043c0.077,-0.005 0.154,-0.005 0.23,0c-0.144,-1.231 0.032,-2.477 0.512,-3.622c0,0 -1.351,-0.398 -2.169,0.463c-0.377,0.384 -0.651,0.853 -0.799,1.366c-0.038,0.129 -0.041,0.267 -0.01,0.398c0.031,0.132 0.097,0.253 0.189,0.352z"/>
  <path id="svg_140" fill="white" d="m173.174,202.435c0.188,0.364 0.489,0.661 0.86,0.846c0.021,0.021 0.037,0.046 0.046,0.074c0.009,0.027 0.012,0.057 0.007,0.086c-0.004,0.029 -0.016,0.056 -0.033,0.08c-0.017,0.024 -0.04,0.044 -0.066,0.057c-0.21,0.126 -0.701,-0.353 -0.701,-0.353c0,0 -0.409,-0.508 -0.113,-0.79z"/>
  <path id="svg_141" fill="white" d="m173.272,204.162c0.134,0.322 0.306,0.628 0.511,0.912c0.297,0.378 0.312,0.635 0.108,0.64c-0.205,0.005 -0.512,-0.363 -0.665,-0.776c-0.087,-0.255 -0.071,-0.533 0.046,-0.776z"/>
  <path id="svg_142" fill="white" d="m173.164,205.512c0.166,0.377 0.379,0.733 0.635,1.058c0.322,0.358 -0.082,0.504 -0.328,0.247c-0.245,-0.257 -0.66,-1.048 -0.307,-1.305z"/>
  <path id="svg_143" fill="#37474F" d="m144.589,178.405c0.092,1.778 0.89,10.579 1.023,13.223c0.133,2.645 0.604,11.133 0.604,11.133c0.9,0.407 1.871,0.637 2.86,0.68c1.75,0.126 2.256,-0.564 2.256,-0.564c0,0 0.256,-2.156 0.604,-3.874c0.348,-1.717 1.939,-11.379 1.873,-14.634c0.002,-1.756 -0.255,-3.504 -0.763,-5.188l2.646,-15.964c0,0 0.557,3.45 1.187,7.083c0.629,3.652 1.335,7.48 1.621,8.16c0.574,1.366 11.697,18.478 11.697,18.478c0.73,-0.849 1.552,-1.617 2.451,-2.292c0.567,-0.413 1.23,-0.681 1.928,-0.781c0,0 -4.523,-12.347 -5.546,-14.251c-0.73,-1.251 -1.762,-2.306 -3.003,-3.073c0,0 -0.118,-24.684 -0.256,-26.286c-0.121,-1.103 -0.345,-2.192 -0.67,-3.254l-18.998,2.675c0,0 -1.535,15.566 -1.683,18.352c-0.148,2.785 0.051,8.594 0.169,10.377z"/>
  <path id="svg_144" fill="#263238" d="m156.868,170.305l-0.164,-6.896l1.5,-6.045c3.832,-0.353 4.814,-3.209 4.814,-3.209c-1.596,1.444 -3.648,2.305 -5.812,2.438l-1.535,6.609c0,0 0.568,3.466 1.197,7.103z"/>
  <path id="svg_145" fill="#FFA8A7" d="m162.558,121.964c1.135,0.521 2.083,1.368 2.722,2.428c1.14,1.829 5.669,13.556 5.428,14.68c-0.24,1.123 -6.595,9.153 -6.595,9.153c0,0 -2.267,-2.68 -2.62,-4.09c0,0 2.62,-4.781 3.239,-5.3c0,0 -1.647,-4.216 -2.123,-5.627c-0.476,-1.41 -2.825,-9.36 -0.051,-11.244z"/>
  <path id="svg_146" fill="#F28F8F" d="m149.076,111.4971c0,0 -1.397,1.8439 -1.428,2.3269c-0.03,0.484 1.428,0.454 1.428,0.454l0,-2.7809z"/>
  <path id="svg_147" fill="#FFA8A7" d="m149.981,118.639c0.128,0.109 0.275,0.191 0.435,0.242c0.859,0.198 1.758,0.14 2.584,-0.166l0,3.405l6.237,0c0,0 -0.215,-2.649 -0.235,-3.561c-0.021,-0.912 1.611,-3.244 0.373,-7.9341c-1.238,-4.6899 -6.355,-5.3952 -8.698,-3.7429c-0.673,0.9742 -1.218,2.0288 -1.622,3.1384c-0.389,1.3651 -0.711,7.2186 0.926,8.6186z"/>
  <path id="svg_148" fill="#E62C38" d="m147.029,136.367l-1.11,13.173c0,0 1.596,1.713 8.186,1.753l0.573,0c7.046,-0.066 10.924,-4.287 10.924,-4.287l-3.525,-8.972c1.202,-2.514 2.041,-5.181 2.491,-7.924c0.077,-0.504 0.149,-1.007 0.2,-1.561c0.512,-5.255 -1.837,-6.972 -4.032,-7.053c-2.195,-0.081 -9.051,1.007 -9.051,1.007l-6.288,6.786c0,0 -0.379,3.023 -0.159,4.594c0.22,1.572 1.791,2.484 1.791,2.484z"/>
  <path id="svg_149" fill="black" d="m154.09,151.268l0.568,0c7.045,-0.066 10.924,-4.287 10.924,-4.287l-3.526,-8.972c1.203,-2.514 2.042,-5.181 2.492,-7.924c-0.112,0.378 -1.919,6.438 -5.669,8.921c0,0 4.416,1.129 3.75,5.159c-0.665,4.03 -4.476,6.413 -8.539,7.103z" opacity="0.2"/>
  <path id="svg_150" fill="#F28F8F" d="m149.982,118.64c0.127,0.108 0.275,0.19 0.435,0.241c0.859,0.198 1.758,0.14 2.583,-0.166l0.103,-0.68c0,0 -1.776,0.922 -3.126,0.61l0.005,-0.005z"/>
  <path id="svg_151" fill="#263238" d="m153.788,111.5067c0.208,-0.0698 0.428,-0.0965 0.646,-0.0783c0.218,0.0182 0.431,0.081 0.623,0.1843c0.192,0.1032 0.361,0.2448 0.495,0.4156c0.134,0.1708 0.23,0.3672 0.283,0.5766c0.077,0.2975 0.077,0.6091 0,0.9071c-0.297,1.254 -1.131,2.287 -2.819,2.181c0,0 0.046,2.206 1.76,2.745c1.714,0.539 4.262,0.116 4.262,0.116c0.478,-0.683 1.012,-1.327 1.596,-1.924c0.763,-0.726 4.17,-4.1258 3.93,-7.1735c-0.241,-3.0477 -2.426,-3.4004 -2.426,-3.4004c0.273,-0.3997 0.412,-0.8727 0.399,-1.3537c-0.013,-0.481 -0.177,-0.9461 -0.47,-1.3312c-0.244,-0.3626 -0.617,-0.6211 -1.046,-0.7239c-0.429,-0.1027 -0.881,-0.0421 -1.267,0.1697c0,0 -0.307,-1.9797 -2.215,-2.1913c-0.528,-0.0699 -1.066,0.0193 -1.542,0.2557c-0.475,0.2365 -0.867,0.6092 -1.124,1.0692c0,0 -1.622,-1.8387 -3.812,-1.0075c-0.295,0.089 -0.568,0.2362 -0.804,0.4325c-0.235,0.1963 -0.428,0.4378 -0.566,0.7096c-0.137,0.2719 -0.218,0.5685 -0.235,0.8718c-0.018,0.3033 0.027,0.607 0.132,0.8927c0,0 -2.047,-0.8412 -3.239,0.8665c-1.192,1.7077 0.215,4.5035 2.712,5.2994c0.262,-0.741 0.666,-1.4252 1.192,-2.015c0,0 0.261,1.3602 1.049,1.4811c0,0 -0.906,2.156 0.43,2.9519c0,0 -0.645,1.7124 0,1.7834c0,0 0.301,0.272 0.511,-0.65c0.184,-0.6699 0.66,-1.7429 1.545,-2.0603z"/>
  <path id="svg_152" fill="#FFA8A7" d="m151.67,122.468c0.453,1.377 0.375,2.869 -0.22,4.192c-0.809,1.825 -2.316,3.263 -4.196,3.999c-1.775,0.691 -12.939,1.723 -13.62,1.658c-1.023,-0.091 -12.924,-7.053 -13.717,-7.345c-0.793,-0.292 -5.05,-1.627 -5.592,-2.519c-0.162,-0.22 -0.248,-0.484 -0.248,-0.755c0,-0.272 0.086,-0.536 0.248,-0.756c0,0 -0.251,-1.007 0.512,-1.405c-0.047,-0.307 0.008,-0.621 0.159,-0.894c0.151,-0.273 0.387,-0.489 0.675,-0.618c0,0 -2.282,-3.073 -2.38,-3.445c-0.097,-0.373 1.167,-0.655 2.559,0.911c0.547,0.668 1.151,1.288 1.806,1.854l2.179,1.773c0,0 0.824,-2.921 2.277,-2.649c0,0 0.236,0.08 0.164,0.504c-0.072,0.423 -0.353,1.193 -0.44,1.909c-0.031,0.783 -0.007,1.567 0.072,2.347c0,0 10.458,5.138 11.153,5.138c0.696,0 13.712,-3.843 15.682,-3.878c1.97,-0.036 2.927,-0.021 2.927,-0.021z"/>
 </g>
</svg>