<svg width="250" height="250" xmlns="http://www.w3.org/2000/svg">

 <g>
  <title>background</title>
  <rect fill="none" id="canvas_background" height="252" width="252" y="-1" x="-1"/>
 </g>
 <g>
  <title>Layer 1</title>
  <path id="svg_1" fill="#E0E0E0" d="m277,206.485l-299,0l0,0.148l299,0l0,-0.148z"/>
  <path id="svg_2" fill="#E0E0E0" d="m203.84,212.721l-20.571,0l0,0.147l20.571,0l0,-0.147z"/>
  <path id="svg_3" fill="#E0E0E0" d="m44.402,212.791l-11.5773,0l0,0.147l11.5773,0l0,-0.147z"/>
  <path id="svg_4" fill="#E0E0E0" d="m128.098,212.449l-23.466,0l0,0.147l23.466,0l0,-0.147z"/>
  <path id="svg_5" fill="#E0E0E0" d="m104.034,210.354l-10.489,0l0,0.147l10.489,0l0,-0.147z"/>
  <path id="svg_6" fill="#E0E0E0" d="m231.887,210.43l-31.688,0l0,0.148l31.688,0l0,-0.148z"/>
  <path id="svg_7" fill="#E0E0E0" d="m119.726,180.226l-115.4678,0c-0.9046,-0.002 -1.7715,-0.356 -2.4106,-0.987c-0.6391,-0.63 -0.998,-1.484 -0.998,-2.375l0,-159.81084c0.0079,-0.8855 0.3703,-1.73218 1.0085,-2.35614c0.6382,-0.62396 1.5007,-0.9748 2.4001,-0.97632l115.4678,0c0.906,0 1.774,0.3542 2.415,0.98468c0.64,0.63048 1,1.48559 1,2.37722l0,159.7814c0,0.892 -0.36,1.747 -1,2.377c-0.641,0.631 -1.509,0.985 -2.415,0.985zm-115.4678,-166.38754c-0.8649,0.00156 -1.6939,0.34094 -2.3049,0.94364c-0.611,0.60271 -0.9542,1.41949 -0.9542,2.27106l0,159.81084c0,0.852 0.3432,1.668 0.9542,2.271c0.611,0.603 1.44,0.942 2.3049,0.944l115.4678,0c0.866,-0.002 1.695,-0.341 2.307,-0.944c0.612,-0.602 0.957,-1.419 0.958,-2.271l0,-159.81084c-0.001,-0.85211 -0.346,-1.66888 -0.958,-2.27142c-0.612,-0.60253 -1.441,-0.94172 -2.307,-0.94328l-115.4678,0z"/>
  <path id="svg_8" fill="#E0E0E0" d="m249.079,180.226l-115.474,0c-0.905,-0.002 -1.772,-0.356 -2.412,-0.986c-0.64,-0.631 -1.001,-1.485 -1.002,-2.376l0,-159.81084c0.009,-0.88603 0.373,-1.73271 1.012,-2.35651c0.639,-0.6238 1.503,-0.97445 2.402,-0.97595l115.474,0c0.899,0.00307 1.76,0.35459 2.397,0.97839c0.636,0.62379 0.998,1.46959 1.006,2.35407l0,159.81084c0,0.89 -0.358,1.743 -0.996,2.373c-0.638,0.63 -1.503,0.986 -2.407,0.989zm-115.474,-166.38754c-0.865,0.00156 -1.695,0.34075 -2.307,0.94328c-0.611,0.60254 -0.956,1.41931 -0.958,2.27142l0,159.81084c0.002,0.852 0.347,1.669 0.958,2.271c0.612,0.603 1.442,0.942 2.307,0.944l115.474,0c0.866,-0.002 1.695,-0.341 2.307,-0.944c0.612,-0.602 0.957,-1.419 0.958,-2.271l0,-159.81084c-0.001,-0.85211 -0.346,-1.66888 -0.958,-2.27142c-0.612,-0.60253 -1.441,-0.94172 -2.307,-0.94328l-115.474,0z"/>
  <path id="svg_9" fill="#E0E0E0" d="m240.707,132.789c-7.355,-11.028 -0.64,-22.8803 -1.758,-35.1503c-1.118,-12.2701 -12.959,-14.9431 -10.716,-25.3173c2.595,-12.0581 -4.324,-23.6276 -12.163,-23.6276c-7.84,0 -14.753,11.54 -12.158,23.6099c2.243,10.3919 -9.568,13.0708 -10.716,25.3173c-1.148,12.2465 5.597,24.14 -1.764,35.15c-7.361,11.01 -5.424,25.629 -1.28,32.877c1.103,1.923 2.431,3.712 3.959,5.328c2.809,2.969 6.208,5.336 9.986,6.955c3.779,1.619 7.855,2.454 11.976,2.454c4.12,0 8.197,-0.835 11.975,-2.454c3.778,-1.619 7.178,-3.986 9.986,-6.955c1.524,-1.618 2.851,-3.406 3.953,-5.328c4.15,-7.23 6.082,-21.808 -1.28,-32.859z"/>
  <path id="svg_10" fill="#F0F0F0" d="m216.07,141.155c0.489,0 0.972,0.095 1.424,0.279c0.451,0.184 0.861,0.453 1.206,0.793c0.346,0.34 0.62,0.744 0.807,1.189c0.187,0.444 0.283,0.92 0.283,1.401l0,61.668l-7.439,0l0,-61.668c0,-0.481 0.096,-0.957 0.283,-1.401c0.187,-0.445 0.461,-0.849 0.806,-1.189c0.345,-0.34 0.755,-0.609 1.207,-0.793c0.451,-0.184 0.935,-0.279 1.423,-0.279z"/>
  <path id="svg_11" fill="#E0E0E0" d="m169.306,206.486l-10.112,0l0,-61.663c0.003,-1.321 0.538,-2.588 1.487,-3.523c0.949,-0.934 2.236,-1.46 3.578,-1.464c1.342,0.004 2.629,0.53 3.578,1.464c0.949,0.935 1.484,2.202 1.487,3.523l-0.018,61.663z"/>
  <path id="svg_12" fill="#F0F0F0" d="m164.241,189.853c17.23,0 31.198,-13.753 31.198,-30.717c0,-16.964 -13.968,-30.716 -31.198,-30.716c-17.23,0 -31.198,13.752 -31.198,30.716c0,16.964 13.968,30.717 31.198,30.717z"/>
  <path id="svg_13" fill="#F0F0F0" d="m200.901,149.919c1.637,-6.488 -2.379,-13.054 -8.969,-14.666c-6.59,-1.612 -13.259,2.341 -14.896,8.83c-1.637,6.488 2.379,13.055 8.969,14.666c6.59,1.612 13.259,-2.341 14.896,-8.83z"/>
  <path id="svg_14" fill="#F0F0F0" d="m146.188,140.983c0.646,-3.906 -2.046,-7.587 -6.013,-8.224c-3.967,-0.636 -7.707,2.015 -8.353,5.921c-0.646,3.906 2.046,7.588 6.013,8.224c3.967,0.636 7.707,-2.015 8.353,-5.921z"/>
  <path id="svg_15" fill="#F0F0F0" d="m146.923,141.155c2.821,0 5.107,-2.251 5.107,-5.028c0,-2.777 -2.286,-5.028 -5.107,-5.028c-2.82,0 -5.107,2.251 -5.107,5.028c0,2.777 2.287,5.028 5.107,5.028z"/>
  <path id="svg_16" fill="#E0E0E0" d="m99.992,169.681c-4.851,0.711 -9.487,2.453 -13.586,5.105c-0.036,-4.663 -0.903,-9.085 -3.128,-12.659c-3.385,3.244 -6.1294,7.448 -8.3719,11.97c-0.8192,-8.473 -3.0857,-16.715 -8.1029,-21.938c-7.5168,4.657 -11.3919,12.417 -13.2337,20.637c-3.0428,-5.542 -7.4594,-10.237 -12.8391,-13.648c-4.5986,4.769 -6.0697,11.363 -5.9441,18.122c-5.2265,-5.993 -11.0271,-10.668 -16.6842,-11.216c-1.3934,9.474 1.5727,18.411 5.3461,25.477c2.4498,4.533 6.1096,8.321 10.5851,10.958c4.4754,2.636 9.5967,4.02 14.812,4.002l24.5718,0c10.4709,0 20.2899,-5.499 25.1999,-14.607c3.103,-5.77 4.586,-13.195 1.375,-22.203z"/>
  <path id="svg_17" fill="#F0F0F0" d="m92.972,47.3632c3.032,-8.755 0.598,-14.9902 -6.799,-14.9902c-4.653,0 -10.4234,2.4552 -16.0446,6.4471c-0.6339,-2.2785 -2.4219,-3.6386 -5.2983,-3.6386c-5.0651,0 -12.0437,4.2156 -17.5154,10.1622c-1.5406,-1.441 -3.5801,-2.2514 -5.705,-2.2667c-4.8497,-0.2709 -10.7161,2.1549 -15.8171,6.0938c-0.2556,-0.3522 -0.593,-0.6392 -0.9842,-0.8368c-0.3911,-0.1977 -0.8246,-0.3004 -1.2643,-0.2996c-2.7926,-0.153 -6.578,2.2963 -8.4497,5.4639c-0.1136,0.1943 -0.2153,0.3886 -0.3229,0.5887l79.6715,0c0.239,-2.7672 -0.257,-5.0752 -1.471,-6.7238z"/>
  <path id="svg_18" fill="#F0F0F0" d="m93.217,100.5234c1.483,-4.2744 0.305,-7.3183 -3.319,-7.3183c-2.278,0 -5.095,1.1775 -7.84,3.1499c-0.148,-0.5495 -0.49,-1.0291 -0.964,-1.3528c-0.475,-0.3237 -1.051,-0.4703 -1.625,-0.4135c-2.4699,0 -5.8785,2.0606 -8.5576,4.9691c-0.7509,-0.7062 -1.7481,-1.1023 -2.7866,-1.1068c-2.392,-0.1354 -5.2325,1.048 -7.7262,2.9732c-0.1209,-0.1702 -0.2808,-0.3101 -0.4667,-0.4083c-0.186,-0.0982 -0.3928,-0.1519 -0.6037,-0.1569c-1.3635,-0.0765 -3.2113,1.1187 -4.1262,2.6671l-0.1615,0.2826l38.9175,0c0.163,-1.1473 -0.1,-2.3138 -0.741,-3.2853z"/>
  <path id="svg_19" fill="#F0F0F0" d="m182.976,68.1767c-0.307,-0.0425 -0.616,-0.0641 -0.926,-0.0648c0.287,-4.2686 -1.37,-7.0005 -4.916,-7.0005c-2.553,0 -5.693,1.4248 -8.886,3.8329c0.915,-8.2899 -2.015,-13.6772 -8.653,-13.6772c-5.346,0 -12.122,3.5326 -18.813,9.2202c-0.598,-3.25 -2.56,-5.2048 -5.873,-5.2048c-5.818,0 -14.089,6.0291 -20.72,14.531c-0.756,-0.9804 -1.725,-1.7817 -2.837,-2.3451c-1.111,-0.5634 -2.336,-0.8746 -3.586,-0.9108c-5.537,-0.3827 -12.42,3.0793 -18.538,8.7197c-0.223,-0.4756 -0.577,-0.8798 -1.022,-1.1662c-0.445,-0.2864 -0.964,-0.4434 -1.496,-0.4529c-3.031,-0.2119 -7.176,2.9027 -9.6333,7.0653l110.7733,0c2.602,-6.3117 0.532,-11.8344 -4.874,-12.5468z"/>
  <path id="svg_20" fill="#F5F5F5" d="m127.5,233.074c64.035,0 115.946,-2.984 115.946,-6.665c0,-3.681 -51.911,-6.665 -115.946,-6.665c-64.0354,0 -115.9463,2.984 -115.9463,6.665c0,3.681 51.9109,6.665 115.9463,6.665z"/>
  <path id="svg_21" fill="#E62C38" d="m7.2178,69.9834l136.3262,19.3236l18.293,18.1754l-154.6192,-37.499z"/>
  <path id="svg_22" fill="white" d="m7.2178,69.9834l136.3262,19.3236l18.293,18.1754l-154.6192,-37.499z" opacity="0.6"/>
  <path id="svg_23" fill="#E62C38" d="m7.2178,69.9834l136.3262,19.3236l-6.327,26.283l-129.9992,-45.6066z"/>
  <path id="svg_24" fill="black" d="m7.2178,69.9834l136.3262,19.3236l-6.327,26.283l-129.9992,-45.6066z" opacity="0.2"/>
  <path id="svg_25" fill="#E62C38" d="m134.419,39.5561l7.911,36.504c0.206,0.9532 0.019,1.9479 -0.519,2.7658c-0.538,0.8179 -1.383,1.3922 -2.351,1.597l-70.612,14.8371c-0.968,0.201 -1.9775,0.0166 -2.8078,-0.513c-0.8303,-0.5295 -1.414,-1.3612 -1.6234,-2.3131l-7.9175,-36.504c-0.204,-0.9539 -0.0159,-1.9485 0.5232,-2.7662c0.5391,-0.8176 1.3852,-1.3917 2.3532,-1.5966l70.6123,-14.8371c0.968,-0.2009 1.979,-0.0157 2.809,0.5151c0.831,0.5308 1.414,1.3638 1.622,2.3169l0,-0.0059z"/>
  <path id="svg_26" fill="black" d="m134.419,39.5561l7.911,36.504c0.206,0.9532 0.019,1.9479 -0.519,2.7658c-0.538,0.8179 -1.383,1.3922 -2.351,1.597l-70.612,14.8371c-0.968,0.201 -1.9775,0.0166 -2.8078,-0.513c-0.8303,-0.5295 -1.414,-1.3612 -1.6234,-2.3131l-7.9175,-36.504c-0.204,-0.9539 -0.0159,-1.9485 0.5232,-2.7662c0.5391,-0.8176 1.3852,-1.3917 2.3532,-1.5966l70.6123,-14.8371c0.968,-0.2009 1.979,-0.0157 2.809,0.5151c0.831,0.5308 1.414,1.3638 1.622,2.3169l0,-0.0059z" opacity="0.4"/>
  <path id="svg_27" fill="#E62C38" d="m132.678,37.1655l-23.591,28.5143c-2.188,2.6437 -5.227,4.4728 -8.614,5.1848c-3.388,0.712 -6.92,0.2641 -10.014,-1.2694l-33.3623,-16.5446c0.5397,-0.7634 1.3543,-1.2959 2.2784,-1.4896l70.6119,-14.8371c0.921,-0.1931 1.883,-0.0353 2.691,0.4416z"/>
  <path id="svg_28" fill="#E62C38" d="m7.2178,69.9834l112.4422,26.3123l17.557,19.2943l-129.9992,-45.6066z"/>
  <path id="svg_29" fill="white" d="m7.2178,69.9834l112.4422,26.3123l17.557,19.2943l-129.9992,-45.6066z" opacity="0.6"/>
  <path id="svg_30" fill="#E62C38" d="m48.2339,95.345l-0.3023,0.508l12.5129,7.2166l0.3022,-0.508l-12.5128,-7.2166z"/>
  <path id="svg_31" fill="#E62C38" d="m66.271,105.7434l-0.3022,0.5081l4.4994,2.595l0.3022,-0.5081l-4.4994,-2.595z"/>
  <path id="svg_32" fill="#E62C38" d="m7.2178,69.9834l112.4422,26.3122l-21.857,25.9354l-90.5852,-52.2476z"/>
  <path id="svg_33" fill="#E62C38" d="m157.615,131.628c-0.152,0.001 -0.302,-0.027 -0.443,-0.082l-18.311,-7.136c-0.293,-0.116 -0.527,-0.342 -0.652,-0.627c-0.124,-0.286 -0.129,-0.609 -0.013,-0.898c0.116,-0.289 0.344,-0.522 0.633,-0.646c0.289,-0.125 0.617,-0.132 0.911,-0.019l18.317,7.136c0.259,0.101 0.475,0.287 0.609,0.528c0.134,0.24 0.179,0.519 0.126,0.789c-0.052,0.269 -0.199,0.512 -0.414,0.686c-0.215,0.175 -0.485,0.27 -0.763,0.269z"/>
  <path id="svg_34" fill="black" d="m157.615,131.628c-0.152,0.001 -0.302,-0.027 -0.443,-0.082l-18.311,-7.136c-0.293,-0.116 -0.527,-0.342 -0.652,-0.627c-0.124,-0.286 -0.129,-0.609 -0.013,-0.898c0.116,-0.289 0.344,-0.522 0.633,-0.646c0.289,-0.125 0.617,-0.132 0.911,-0.019l18.317,7.136c0.259,0.101 0.475,0.287 0.609,0.528c0.134,0.24 0.179,0.519 0.126,0.789c-0.052,0.269 -0.199,0.512 -0.414,0.686c-0.215,0.175 -0.485,0.27 -0.763,0.269z" opacity="0.3"/>
  <path id="svg_35" fill="#E62C38" d="m156.533,121.29c-0.15,-0.001 -0.299,-0.031 -0.437,-0.089l-9.837,-3.856c-0.147,-0.056 -0.281,-0.14 -0.395,-0.248c-0.114,-0.107 -0.205,-0.236 -0.269,-0.378c-0.063,-0.142 -0.097,-0.296 -0.1,-0.451c-0.003,-0.155 0.026,-0.309 0.084,-0.454c0.058,-0.144 0.144,-0.276 0.254,-0.387c0.11,-0.112 0.241,-0.201 0.386,-0.262c0.145,-0.061 0.301,-0.094 0.458,-0.096c0.158,-0.001 0.315,0.028 0.461,0.086l9.837,3.838c0.295,0.115 0.532,0.339 0.658,0.625c0.127,0.286 0.133,0.61 0.018,0.9c-0.084,0.226 -0.237,0.421 -0.437,0.559c-0.199,0.137 -0.437,0.212 -0.681,0.213z"/>
  <path id="svg_36" fill="white" d="m156.533,121.29c-0.15,-0.001 -0.299,-0.031 -0.437,-0.089l-9.837,-3.856c-0.147,-0.056 -0.281,-0.14 -0.395,-0.248c-0.114,-0.107 -0.205,-0.236 -0.269,-0.378c-0.063,-0.142 -0.097,-0.296 -0.1,-0.451c-0.003,-0.155 0.026,-0.309 0.084,-0.454c0.058,-0.144 0.144,-0.276 0.254,-0.387c0.11,-0.112 0.241,-0.201 0.386,-0.262c0.145,-0.061 0.301,-0.094 0.458,-0.096c0.158,-0.001 0.315,0.028 0.461,0.086l9.837,3.838c0.295,0.115 0.532,0.339 0.658,0.625c0.127,0.286 0.133,0.61 0.018,0.9c-0.084,0.226 -0.237,0.421 -0.437,0.559c-0.199,0.137 -0.437,0.212 -0.681,0.213z" opacity="0.5"/>
  <path id="svg_37" fill="#E62C38" d="m135.967,131.476c-0.149,-0.002 -0.297,-0.03 -0.436,-0.083l-17.862,-6.983c-0.147,-0.056 -0.282,-0.14 -0.396,-0.247c-0.114,-0.108 -0.205,-0.236 -0.268,-0.379c-0.063,-0.142 -0.097,-0.295 -0.1,-0.45c-0.003,-0.156 0.026,-0.31 0.083,-0.454c0.058,-0.145 0.145,-0.277 0.255,-0.388c0.11,-0.111 0.241,-0.2 0.386,-0.262c0.145,-0.061 0.3,-0.093 0.458,-0.095c0.158,-0.002 0.314,0.027 0.461,0.085l17.862,6.959c0.259,0.101 0.474,0.288 0.608,0.528c0.135,0.241 0.179,0.52 0.127,0.789c-0.053,0.27 -0.199,0.513 -0.414,0.687c-0.215,0.175 -0.485,0.27 -0.764,0.269l0,0.024z"/>
  <path id="svg_38" fill="black" d="m135.967,131.476c-0.149,-0.002 -0.297,-0.03 -0.436,-0.083l-17.862,-6.983c-0.147,-0.056 -0.282,-0.14 -0.396,-0.247c-0.114,-0.108 -0.205,-0.236 -0.268,-0.379c-0.063,-0.142 -0.097,-0.295 -0.1,-0.45c-0.003,-0.156 0.026,-0.31 0.083,-0.454c0.058,-0.145 0.145,-0.277 0.255,-0.388c0.11,-0.111 0.241,-0.2 0.386,-0.262c0.145,-0.061 0.3,-0.093 0.458,-0.095c0.158,-0.002 0.314,0.027 0.461,0.085l17.862,6.959c0.259,0.101 0.474,0.288 0.608,0.528c0.135,0.241 0.179,0.52 0.127,0.789c-0.053,0.27 -0.199,0.513 -0.414,0.687c-0.215,0.175 -0.485,0.27 -0.764,0.269l0,0.024z" opacity="0.3"/>
  <path id="svg_39" fill="#E4897B" d="m200.636,78.3794c1.584,3.0439 3.038,6.0938 4.419,9.2143c1.381,3.1205 2.667,6.2822 3.791,9.5969l0.407,1.2541c0.072,0.2238 0.173,0.5888 0.233,0.8479c0.06,0.259 0.114,0.5534 0.144,0.8007c0.137,0.9499 0.207,1.9079 0.209,2.8673c0.009,1.7694 -0.075,3.5381 -0.251,5.299c-0.334,3.4087 -0.877,6.7944 -1.627,10.1384l-3.283,-0.359c-0.042,-3.315 -0.072,-6.6648 -0.191,-9.9325c-0.054,-1.625 -0.15,-3.2559 -0.317,-4.7867c-0.076,-0.7189 -0.196,-1.4326 -0.359,-2.1373c-0.03,-0.1648 -0.078,-0.2885 -0.113,-0.4239c-0.036,-0.1354 -0.072,-0.1825 -0.132,-0.3591l-0.454,-1.1128c-1.25,-2.9792 -2.656,-5.982 -4.091,-8.9729l-4.341,-8.9729l5.956,-2.9615z"/>
  <path id="svg_40" fill="#E4897B" d="m204.726,117.003l-1.531,2.82l4.892,1.342c0,0 0.933,-2.266 -0.179,-4.056l-3.182,-0.106z"/>
  <path id="svg_41" fill="#E4897B" d="m201.323,123.886l4.497,0.353l2.267,-3.073l-4.892,-1.343l-1.872,4.063z"/>
  <path id="svg_42" fill="#263238" d="m180.046,58.0312c-0.065,0.3474 -0.31,0.5888 -0.538,0.5417c-0.227,-0.0471 -0.353,-0.3592 -0.281,-0.7007c0.072,-0.3415 0.311,-0.5888 0.538,-0.5417c0.228,0.0471 0.359,0.3591 0.281,0.7007z"/>
  <path id="svg_43" fill="#DE5753" d="m179.771,58.6201c-0.631,0.9632 -1.394,1.8368 -2.266,2.5964c0.204,0.2133 0.452,0.3806 0.727,0.4903c0.276,0.1098 0.573,0.1594 0.87,0.1455l0.669,-3.2322z"/>
  <path id="svg_44" fill="#263238" d="m181.709,56.3885c-0.057,-0.0015 -0.11,-0.0247 -0.15,-0.0648c-0.172,-0.1935 -0.387,-0.3444 -0.629,-0.4405c-0.242,-0.0962 -0.504,-0.1349 -0.764,-0.113c-0.05,0.0005 -0.098,-0.0163 -0.136,-0.0475c-0.038,-0.0312 -0.064,-0.0747 -0.072,-0.1227c-0.009,-0.048 0,-0.0975 0.025,-0.1397c0.025,-0.0421 0.064,-0.0742 0.111,-0.0904c0.333,-0.0415 0.671,-0.0014 0.984,0.1167c0.313,0.1182 0.591,0.3107 0.81,0.5604c0.039,0.0385 0.06,0.0903 0.06,0.1442c0,0.054 -0.021,0.1057 -0.06,0.1443c-0.024,0.0215 -0.052,0.0375 -0.083,0.0467c-0.031,0.0091 -0.064,0.0113 -0.096,0.0063z"/>
  <path id="svg_45" fill="#E4897B" d="m189.937,62.8413c-0.628,3.1676 -1.256,8.9612 0.993,11.0749c0,0 -0.879,3.2088 -6.853,3.2088c-6.578,0 -3.134,-3.2088 -3.134,-3.2088c3.588,-0.842 3.487,-3.462 2.865,-5.9172l6.129,-5.1577z"/>
  <path id="svg_46" fill="#263238" d="m191.833,75.912c0.473,-1.5485 0.993,-3.3207 -0.084,-3.8801c-1.196,-0.5888 -7.696,-1.2364 -9.938,-0.0883c-2.243,1.1481 -1.603,4.2981 -1.603,4.2981l11.625,-0.3297z"/>
  <path id="svg_47" fill="#E62C38" d="m205.623,222.735c-0.185,0.025 -0.374,0.012 -0.555,-0.036c-0.181,-0.049 -0.35,-0.133 -0.497,-0.246c-0.052,-0.072 -0.08,-0.157 -0.08,-0.245c0,-0.087 0.028,-0.173 0.08,-0.244c0.034,-0.061 0.081,-0.114 0.138,-0.156c0.056,-0.041 0.122,-0.071 0.191,-0.085c0.646,-0.142 1.853,0.671 1.907,0.706c0.016,0.013 0.028,0.029 0.035,0.048c0.007,0.018 0.01,0.038 0.007,0.058c-0.003,0.019 -0.013,0.037 -0.026,0.05c-0.014,0.014 -0.032,0.023 -0.052,0.027c-0.377,0.08 -0.762,0.121 -1.148,0.123zm-0.55,-0.824l-0.125,0c-0.041,0.008 -0.079,0.025 -0.112,0.05c-0.033,0.024 -0.06,0.055 -0.08,0.091c-0.096,0.165 -0.036,0.236 0,0.259c0.186,0.248 1.083,0.248 1.74,0.142c-0.428,-0.279 -0.914,-0.46 -1.423,-0.53l0,-0.012z"/>
  <path id="svg_48" fill="#E62C38" d="m206.747,222.629l-0.048,0c-0.454,-0.247 -1.333,-1.178 -1.243,-1.672c0.015,-0.077 0.057,-0.145 0.118,-0.195c0.061,-0.049 0.137,-0.076 0.216,-0.076c0.079,-0.008 0.159,-0.001 0.235,0.021c0.076,0.022 0.147,0.059 0.208,0.109c0.508,0.412 0.598,1.66 0.598,1.713c0.002,0.019 -0.001,0.037 -0.009,0.054c-0.009,0.017 -0.022,0.031 -0.039,0.04c-0.011,0.005 -0.023,0.007 -0.036,0.006zm-0.885,-1.766l-0.024,0c-0.137,0 -0.149,0.082 -0.155,0.106c-0.054,0.288 0.508,1.001 0.957,1.336c-0.031,-0.492 -0.21,-0.963 -0.515,-1.354c-0.04,-0.031 -0.086,-0.054 -0.135,-0.067c-0.05,-0.013 -0.101,-0.016 -0.152,-0.01l0.024,-0.011z"/>
  <path id="svg_49" fill="#E62C38" d="m179.245,222.735c-0.562,0 -1.106,-0.076 -1.292,-0.324c-0.047,-0.065 -0.072,-0.143 -0.072,-0.223c0,-0.081 0.025,-0.159 0.072,-0.224c0.037,-0.061 0.085,-0.113 0.143,-0.155c0.057,-0.041 0.123,-0.071 0.192,-0.087c0.724,-0.194 2.267,0.666 2.332,0.701c0.018,0.011 0.032,0.027 0.04,0.046c0.009,0.019 0.012,0.04 0.008,0.06c-0.003,0.021 -0.013,0.04 -0.028,0.054c-0.015,0.015 -0.035,0.025 -0.056,0.028c-0.441,0.082 -0.89,0.124 -1.339,0.124zm-0.7,-0.836c-0.065,-0.009 -0.132,-0.009 -0.197,0c-0.042,0.008 -0.082,0.025 -0.117,0.049c-0.035,0.025 -0.064,0.056 -0.086,0.092c-0.078,0.13 -0.048,0.189 0,0.224c0.197,0.271 1.309,0.289 2.135,0.177c-0.538,-0.286 -1.127,-0.466 -1.735,-0.53l0,-0.012z"/>
  <path id="svg_50" fill="#E62C38" d="m180.573,222.629l-0.042,0c-0.532,-0.23 -1.579,-1.178 -1.501,-1.655c0,-0.117 0.102,-0.259 0.389,-0.288c0.106,-0.016 0.215,-0.009 0.319,0.022c0.103,0.031 0.198,0.083 0.279,0.155c0.562,0.447 0.675,1.613 0.681,1.666c0.003,0.018 0,0.036 -0.007,0.053c-0.008,0.016 -0.02,0.03 -0.035,0.041c-0.012,0.007 -0.026,0.011 -0.041,0.012c-0.014,0.001 -0.029,-0.001 -0.042,-0.006zm-1.071,-1.766l-0.065,0c-0.186,0 -0.198,0.094 -0.204,0.117c-0.048,0.295 0.67,1.031 1.196,1.349c-0.051,-0.495 -0.261,-0.961 -0.598,-1.331c-0.085,-0.073 -0.192,-0.116 -0.305,-0.124l-0.024,-0.011z"/>
  <path id="svg_51" fill="#E4897B" d="m185.405,222.523l-4.396,0l-0.436,-10.015l4.395,0l0.437,10.015z"/>
  <path id="svg_52" fill="#E4897B" d="m211.782,222.523l-4.395,0l-2.207,-10.015l4.389,0l2.213,10.015z"/>
  <path id="svg_53" fill="#263238" d="m207.076,222.022l4.934,0c0.088,0.001 0.173,0.031 0.241,0.086c0.069,0.054 0.116,0.13 0.135,0.215l0.867,3.844c0.02,0.094 0.018,0.191 -0.005,0.284c-0.024,0.092 -0.068,0.179 -0.13,0.252c-0.062,0.074 -0.14,0.133 -0.229,0.173c-0.088,0.039 -0.184,0.059 -0.281,0.057c-1.723,-0.03 -2.56,-0.13 -4.731,-0.13c-1.333,0 -4.084,0.142 -5.932,0.142c-1.848,0 -2.081,-1.767 -1.327,-1.961c3.384,-0.73 4.658,-1.737 5.74,-2.691c0.197,-0.175 0.453,-0.271 0.718,-0.271z"/>
  <path id="svg_54" fill="#263238" d="m181.039,222.022l4.784,0c0.088,0.001 0.174,0.031 0.242,0.086c0.069,0.054 0.116,0.13 0.135,0.215l0.867,3.844c0.021,0.093 0.02,0.189 -0.002,0.282c-0.023,0.092 -0.066,0.178 -0.127,0.252c-0.061,0.074 -0.138,0.133 -0.225,0.173c-0.088,0.04 -0.183,0.06 -0.28,0.059c-1.728,-0.03 -4.227,-0.13 -6.404,-0.13c-2.542,0 -4.742,0.142 -7.726,0.142c-1.794,0 -2.303,-1.767 -1.549,-1.961c3.438,-0.742 6.243,-0.818 9.215,-2.62c0.316,-0.212 0.688,-0.33 1.07,-0.342z"/>
  <path id="svg_55" fill="#E4897B" d="m178.928,81.5115c-3.673,-0.2803 -7.328,-0.7579 -10.949,-1.4307c-1.794,-0.3415 -3.624,-0.7242 -5.442,-1.207c-1.863,-0.4696 -3.693,-1.0596 -5.478,-1.7663c-0.46,-0.1884 -0.926,-0.3945 -1.387,-0.5888c-0.518,-0.2514 -1.018,-0.5387 -1.495,-0.8596c-0.861,-0.5593 -1.603,-1.1422 -2.338,-1.7192c-1.465,-1.1775 -2.823,-2.3551 -4.186,-3.5621c-2.673,-2.4375 -5.209,-4.9574 -7.654,-7.6069l2.2,-2.4198l8.677,6.1409c1.429,1.0126 2.877,2.0077 4.3,2.9438c0.705,0.4651 1.429,0.9008 2.093,1.2717c0.277,0.1559 0.565,0.2936 0.861,0.4122c0.353,0.1354 0.712,0.2708 1.088,0.4003c3.232,0.9799 6.537,1.7083 9.885,2.1785c3.415,0.5299 6.943,0.9656 10.352,1.3188l-0.527,6.4942z"/>
  <path id="svg_56" fill="#E62C38" d="m198.793,74.8939c4.121,0.9303 8.283,12.7823 8.283,12.7823l-8.474,5.9879c0,0 -2.392,-5.5228 -4.7,-10.3507c-2.416,-5.0576 0.682,-9.3674 4.891,-8.4195z"/>
  <path id="svg_57" fill="black" d="m198.793,74.8939c4.121,0.9303 8.283,12.7823 8.283,12.7823l-8.474,5.9879c0,0 -2.392,-5.5228 -4.7,-10.3507c-2.416,-5.0576 0.682,-9.3674 4.891,-8.4195z" opacity="0.4"/>
  <path id="svg_58" fill="#E62C38" d="m196.42,81.3701l-1.681,3.7034c1.74,3.6975 3.331,7.3597 3.756,8.337c-0.06,-4.3746 -0.903,-9.803 -2.075,-12.0404z"/>
  <path id="svg_59" fill="black" d="m196.42,81.3701l-1.681,3.7034c1.74,3.6975 3.331,7.3597 3.756,8.337c-0.06,-4.3746 -0.903,-9.803 -2.075,-12.0404z" opacity="0.6"/>
  <path id="svg_60" fill="#E62C38" d="m174.186,75.1174c0,0 -4.676,5.1989 -0.263,37.3871l23.495,0c0.168,-3.5326 -2.099,-20.8779 1.376,-37.6108c-2.597,-0.4924 -5.224,-0.8189 -7.864,-0.9774c-3.326,-0.1885 -6.661,-0.1885 -9.987,0c-2.281,0.2263 -4.54,0.6279 -6.757,1.2011z"/>
  <path id="svg_61" fill="black" d="m174.186,75.1174c0,0 -4.676,5.1989 -0.263,37.3871l23.495,0c0.168,-3.5326 -2.099,-20.8779 1.376,-37.6108c-2.597,-0.4924 -5.224,-0.8189 -7.864,-0.9774c-3.326,-0.1885 -6.661,-0.1885 -9.987,0c-2.281,0.2263 -4.54,0.6279 -6.757,1.2011z" opacity="0.4"/>
  <path id="svg_62" fill="#E62C38" d="m172.446,81.3701c-0.155,1.2187 -0.275,2.6612 -0.353,4.3627c2.321,-0.6856 4.525,-1.7054 6.542,-3.0262l-6.189,-1.3365z"/>
  <path id="svg_63" fill="black" d="m172.446,81.3701c-0.155,1.2187 -0.275,2.6612 -0.353,4.3627c2.321,-0.6856 4.525,-1.7054 6.542,-3.0262l-6.189,-1.3365z" opacity="0.6"/>
  <path id="svg_64" fill="#E62C38" d="m182.516,82.0178c-3.145,2.7437 -15.153,2.467 -15.153,2.467l-0.395,-11.4457c4.055,0.5686 8.145,0.8598 12.241,0.8713c6.692,-0.1354 6.74,5.0811 3.307,8.1074z"/>
  <path id="svg_65" fill="black" d="m182.516,82.0178c-3.145,2.7437 -15.153,2.467 -15.153,2.467l-0.395,-11.4457c4.055,0.5686 8.145,0.8598 12.241,0.8713c6.692,-0.1354 6.74,5.0811 3.307,8.1074z" opacity="0.4"/>
  <path id="svg_66" fill="#E4897B" d="m142.313,60.3746l-2.99,-3.4679l-3.223,3.5327c0,0 1.985,3.2854 5.136,2.7673l1.077,-2.8321z"/>
  <path id="svg_67" fill="#E4897B" d="m135.041,52.8618l-1.16,4.5276l2.195,3.0262l3.223,-3.509l-4.258,-4.0448z"/>
  <path id="svg_68" fill="#CE6F64" d="m180.573,212.514l0.227,5.157l4.395,0l-0.227,-5.157l-4.395,0z"/>
  <path id="svg_69" fill="#CE6F64" d="m209.575,212.514l-4.395,0l1.136,5.157l4.396,0l-1.137,-5.157z"/>
  <path id="svg_70" fill="#263238" d="m183.216,53.7566c-3.941,-1.7663 -5.185,-9.6146 6.153,-7.654c0,0 -1.71,1.8605 1.758,3.0381c3.468,1.1775 0.568,8.4488 -7.911,4.6159z"/>
  <path id="svg_71" fill="#E4897B" d="m191.779,59.6446c-1.13,4.1215 -1.572,6.6296 -4.186,8.3547c-3.911,2.5906 -8.772,-0.3827 -8.928,-4.7808c-0.137,-3.9507 1.734,-10.068 6.249,-10.9041c0.997,-0.1924 2.027,-0.1301 2.992,0.1807c0.965,0.3109 1.834,0.86 2.522,1.5951c0.688,0.7351 1.174,1.6315 1.411,2.6039c0.236,0.9723 0.216,1.9882 -0.06,2.9505z"/>
  <path id="svg_72" fill="#263238" d="m189.214,48.1635c2.685,1.4719 6.32,2.3551 5.98,4.4511c-0.449,2.5612 2.194,0.9597 1.578,4.7691c-0.4,2.4905 -5.065,10.0386 -8.372,9.6736c-4.939,-0.5888 -4.311,-7.9838 -4.329,-11.8815c-0.012,-2.3021 -0.12,-9.9149 5.143,-7.0123z"/>
  <path id="svg_73" fill="#263238" d="m183.478,51.4663c-1.196,0.2767 -2.78,7.0652 1.854,7.6893c5.328,0.7124 -1.854,-7.6893 -1.854,-7.6893z"/>
  <path id="svg_74" fill="#263238" d="m183.599,53.8744c-1.465,0.1296 -4.784,-1.6073 -4.378,-4.2215c0,-0.0177 2.099,3.0558 4.378,4.2215z"/>
  <path id="svg_75" fill="#E4897B" d="m185.775,59.6976c-0.45,0.9708 -1.213,1.7678 -2.171,2.2668c-1.262,0.6477 -1.973,-0.2943 -1.686,-1.5426c0.257,-1.1186 1.226,-2.8084 2.523,-2.9439c1.298,-0.1354 1.854,1.0422 1.334,2.2197z"/>
  <path id="svg_76" fill="#263238" d="m192.353,54.9343c0.894,-0.3818 1.677,-0.9759 2.28,-1.7291c0.604,-0.7532 1.008,-1.6419 1.176,-2.5865c0,0 1.974,5.399 -3.456,4.3156z"/>
  <path id="svg_77" fill="#263238" d="m197.34,54.8461c-0.416,-0.2752 -0.895,-0.4446 -1.393,-0.4928c-0.499,-0.0483 -1.003,0.0259 -1.465,0.216c0,0 1.842,-2.3494 2.858,0.2768z"/>
  <path id="svg_78" fill="#E62C38" d="m182.259,112.5045c0,0 4.987,33.0535 7.72,45.4355c2.99,13.542 14.292,58.736 14.292,58.736l8.043,0c0,0 -7.445,-44.081 -9.155,-57.529c-1.854,-14.572 -5.741,-46.666 -5.741,-46.666l-15.159,0.0235z"/>
  <path id="svg_79" fill="white" d="m182.259,112.5045c0,0 4.987,33.0535 7.72,45.4355c2.99,13.542 14.292,58.736 14.292,58.736l8.043,0c0,0 -7.445,-44.081 -9.155,-57.529c-1.854,-14.572 -5.741,-46.666 -5.741,-46.666l-15.159,0.0235z" opacity="0.5"/>
  <path id="svg_80" fill="#E62C38" d="m202.986,213.756c-0.036,0 0.831,3.044 0.831,3.044l9.054,0l-0.168,-2.714l-9.717,-0.33z"/>
  <path id="svg_81" fill="black" d="m202.986,213.756c-0.036,0 0.831,3.044 0.831,3.044l9.054,0l-0.168,-2.714l-9.717,-0.33z" opacity="0.1"/>
  <path id="svg_82" fill="#E62C38" d="m185.41,124.28c5.765,1.113 5.155,22.279 4.462,33.165c-1.663,-7.695 -4.097,-22.503 -5.759,-33.012c0.402,-0.195 0.86,-0.249 1.297,-0.153z"/>
  <path id="svg_83" fill="white" d="m185.41,124.28c5.765,1.113 5.155,22.279 4.462,33.165c-1.663,-7.695 -4.097,-22.503 -5.759,-33.012c0.402,-0.195 0.86,-0.249 1.297,-0.153z" opacity="0.4"/>
  <path id="svg_84" fill="#E62C38" d="m173.923,112.5049c0,0 -0.598,32.3351 -0.126,45.5301c0.497,13.718 5.382,58.642 5.382,58.642l7.44,0c0,0 0.275,-44.123 0.598,-57.594c0.364,-14.69 2.164,-46.5781 2.164,-46.5781l-15.458,0z"/>
  <path id="svg_85" fill="white" d="m173.923,112.5049c0,0 -0.598,32.3351 -0.126,45.5301c0.497,13.718 5.382,58.642 5.382,58.642l7.44,0c0,0 0.275,-44.123 0.598,-57.594c0.364,-14.69 2.164,-46.5781 2.164,-46.5781l-15.458,0z" opacity="0.5"/>
  <path id="svg_86" fill="#E62C38" d="m180.722,211.413c-0.018,0 -0.035,-0.006 -0.048,-0.018c-0.014,-0.012 -0.022,-0.029 -0.023,-0.047c-1.316,-12.435 -4.408,-42.521 -4.784,-53.313c-0.401,-11.016 -0.036,-35.733 0.083,-43.045c0,-0.019 0.008,-0.037 0.021,-0.05c0.014,-0.014 0.032,-0.021 0.051,-0.021c0.02,0 0.039,0.007 0.053,0.02c0.014,0.013 0.023,0.031 0.025,0.051c-0.12,7.312 -0.485,32.029 -0.084,43.039c0.389,10.792 3.48,40.867 4.784,53.302c0,0.02 -0.007,0.039 -0.02,0.054c-0.013,0.015 -0.032,0.025 -0.052,0.028l-0.006,0z"/>
  <path id="svg_87" fill="white" d="m180.722,211.413c-0.018,0 -0.035,-0.006 -0.048,-0.018c-0.014,-0.012 -0.022,-0.029 -0.023,-0.047c-1.316,-12.435 -4.408,-42.521 -4.784,-53.313c-0.401,-11.016 -0.036,-35.733 0.083,-43.045c0,-0.019 0.008,-0.037 0.021,-0.05c0.014,-0.014 0.032,-0.021 0.051,-0.021c0.02,0 0.039,0.007 0.053,0.02c0.014,0.013 0.023,0.031 0.025,0.051c-0.12,7.312 -0.485,32.029 -0.084,43.039c0.389,10.792 3.48,40.867 4.784,53.302c0,0.02 -0.007,0.039 -0.02,0.054c-0.013,0.015 -0.032,0.025 -0.052,0.028l-0.006,0z" opacity="0.4"/>
  <path id="svg_88" fill="#E62C38" d="m177.732,213.756c-0.03,0 0.425,3.044 0.425,3.044l9.048,0l0.245,-2.714l-9.718,-0.33z"/>
  <path id="svg_89" fill="black" d="m177.732,213.756c-0.03,0 0.425,3.044 0.425,3.044l9.048,0l0.245,-2.714l-9.718,-0.33z" opacity="0.1"/>
 </g>
</svg>